<ttFont>
    <TTGlyph name=".notdef" xMin="102" yMin="0" xMax="950" yMax="1024">
      <contour>
        <pt x="102" y="1024" on="1"/>
        <pt x="950" y="1024" on="1"/>
        <pt x="950" y="0" on="1"/>
        <pt x="102" y="0" on="1"/>
      </contour>
      <contour>
        <pt x="229" y="127" on="1"/>
        <pt x="823" y="127" on="1"/>
        <pt x="823" y="897" on="1"/>
        <pt x="229" y="897" on="1"/>
      </contour>
    </TTGlyph>
    <TTGlyph name="A" xMin="74" yMin="-20" xMax="840" yMax="1282">
      <contour>
        <pt x="304" y="662" on="1"/>
        <pt x="216" y="-20" on="1"/>
        <pt x="74" y="-2" on="1"/>
        <pt x="238" y="1257" on="1"/>
        <pt x="272" y="1266" on="0"/>
        <pt x="338" y="1276" on="0"/>
        <pt x="396" y="1281" on="0"/>
        <pt x="442" y="1282" on="0"/>
        <pt x="457" y="1282" on="1"/>
        <pt x="488" y="1282" on="0"/>
        <pt x="609" y="1274" on="0"/>
        <pt x="679" y="1257" on="1"/>
        <pt x="840" y="-2" on="1"/>
        <pt x="699" y="-20" on="1"/>
        <pt x="611" y="662" on="1"/>
      </contour>
      <contour>
        <pt x="457" y="1151" on="1"/>
        <pt x="433" y="1151" on="0"/>
        <pt x="385" y="1146" on="0"/>
        <pt x="365" y="1141" on="1"/>
        <pt x="320" y="793" on="1"/>
        <pt x="591" y="793" on="1"/>
        <pt x="550" y="1141" on="1"/>
        <pt x="530" y="1146" on="0"/>
        <pt x="482" y="1151" on="0"/>
      </contour>
    </TTGlyph>
    <TTGlyph name="AE" xMin="74" yMin="-20" xMax="1070" yMax="1282">
      <contour>
        <pt x="1070" y="1130" on="1"/>
        <pt x="693" y="1130" on="1"/>
        <pt x="693" y="793" on="1"/>
        <pt x="939" y="793" on="1"/>
        <pt x="939" y="662" on="1"/>
        <pt x="693" y="662" on="1"/>
        <pt x="693" y="131" on="1"/>
        <pt x="1070" y="131" on="1"/>
        <pt x="1070" y="0" on="1"/>
        <pt x="550" y="0" on="1"/>
        <pt x="550" y="662" on="1"/>
        <pt x="304" y="662" on="1"/>
        <pt x="216" y="-20" on="1"/>
        <pt x="74" y="-2" on="1"/>
        <pt x="238" y="1257" on="1"/>
        <pt x="272" y="1266" on="0"/>
        <pt x="338" y="1276" on="0"/>
        <pt x="396" y="1281" on="0"/>
        <pt x="442" y="1282" on="0"/>
        <pt x="457" y="1282" on="1"/>
        <pt x="472" y="1282" on="0"/>
        <pt x="515" y="1281" on="0"/>
        <pt x="569" y="1277" on="0"/>
        <pt x="630" y="1269" on="0"/>
        <pt x="662" y="1262" on="1"/>
        <pt x="1070" y="1262" on="1"/>
      </contour>
      <contour>
        <pt x="457" y="1151" on="1"/>
        <pt x="433" y="1151" on="0"/>
        <pt x="385" y="1146" on="0"/>
        <pt x="365" y="1141" on="1"/>
        <pt x="320" y="793" on="1"/>
        <pt x="550" y="793" on="1"/>
        <pt x="550" y="1141" on="1"/>
        <pt x="530" y="1146" on="0"/>
        <pt x="482" y="1151" on="0"/>
      </contour>
    </TTGlyph>
    <TTGlyph name="Aacute" xMin="74" yMin="-20" xMax="840" yMax="1657">
      <component glyphName="A" x="0" y="0" flags="0x204"/>
      <component glyphName="acute" x="221" y="316" flags="0x4"/>
    </TTGlyph>
    <TTGlyph name="Acircumflex" xMin="74" yMin="-20" xMax="840" yMax="1657">
      <component glyphName="A" x="0" y="0" flags="0x204"/>
      <component glyphName="circumflex" x="97" y="316" flags="0x4"/>
    </TTGlyph>
    <TTGlyph name="Acute" xMin="322" yMin="1352" xMax="633" yMax="1661">
      <contour>
        <pt x="633" y="1567" on="1"/>
        <pt x="416" y="1352" on="1"/>
        <pt x="322" y="1446" on="1"/>
        <pt x="539" y="1661" on="1"/>
      </contour>
    </TTGlyph>
    <TTGlyph name="Adieresis" xMin="74" yMin="-20" xMax="840" yMax="1578">
      <component glyphName="A" x="0" y="0" flags="0x204"/>
      <component glyphName="dieresis" x="167" y="316" flags="0x4"/>
    </TTGlyph>
    <TTGlyph name="Agrave" xMin="74" yMin="-20" xMax="840" yMax="1657">
      <component glyphName="A" x="0" y="0" flags="0x204"/>
      <component glyphName="grave" x="220" y="316" flags="0x4"/>
    </TTGlyph>
    <TTGlyph name="Aring" xMin="74" yMin="-20" xMax="840" yMax="1699">
      <component glyphName="A" x="0" y="0" flags="0x204"/>
      <component glyphName="ring" x="144" y="337" flags="0x4"/>
    </TTGlyph>
    <TTGlyph name="Atilde" xMin="74" yMin="-20" xMax="840" yMax="1653">
      <component glyphName="A" x="0" y="0" flags="0x204"/>
      <component glyphName="tilde" x="77" y="316" flags="0x4"/>
    </TTGlyph>
    <TTGlyph name="B" xMin="100" yMin="-20" xMax="854" yMax="1282">
      <contour>
        <pt x="690" y="723" on="1"/>
        <pt x="726" y="700" on="0"/>
        <pt x="786" y="636" on="0"/>
        <pt x="829" y="552" on="0"/>
        <pt x="854" y="446" on="0"/>
        <pt x="854" y="381" on="1"/>
        <pt x="852" y="289" on="0"/>
        <pt x="802" y="141" on="0"/>
        <pt x="704" y="37" on="0"/>
        <pt x="557" y="-20" on="0"/>
        <pt x="459" y="-20" on="1"/>
        <pt x="416" y="-20" on="0"/>
        <pt x="328" y="-8" on="0"/>
        <pt x="246" y="16" on="0"/>
        <pt x="173" y="51" on="0"/>
        <pt x="145" y="74" on="1"/>
        <pt x="145" y="1100" on="1"/>
        <pt x="100" y="1208" on="1"/>
        <pt x="169" y="1243" on="0"/>
        <pt x="314" y="1282" on="0"/>
        <pt x="383" y="1282" on="1"/>
        <pt x="463" y="1282" on="0"/>
        <pt x="579" y="1230" on="0"/>
        <pt x="654" y="1139" on="0"/>
        <pt x="690" y="1016" on="0"/>
        <pt x="690" y="944" on="1"/>
      </contour>
      <contour>
        <pt x="289" y="160" on="1"/>
        <pt x="324" y="134" on="0"/>
        <pt x="417" y="111" on="0"/>
        <pt x="471" y="111" on="1"/>
        <pt x="529" y="111" on="0"/>
        <pt x="618" y="149" on="0"/>
        <pt x="677" y="220" on="0"/>
        <pt x="707" y="321" on="0"/>
        <pt x="707" y="383" on="1"/>
        <pt x="707" y="446" on="0"/>
        <pt x="672" y="549" on="0"/>
        <pt x="604" y="622" on="0"/>
        <pt x="504" y="662" on="0"/>
        <pt x="440" y="662" on="1"/>
        <pt x="289" y="662" on="1"/>
      </contour>
      <contour>
        <pt x="442" y="793" on="1"/>
        <pt x="492" y="793" on="0"/>
        <pt x="547" y="782" on="1"/>
        <pt x="547" y="942" on="1"/>
        <pt x="547" y="982" on="0"/>
        <pt x="530" y="1058" on="0"/>
        <pt x="492" y="1116" on="0"/>
        <pt x="430" y="1151" on="0"/>
        <pt x="385" y="1151" on="1"/>
        <pt x="325" y="1151" on="0"/>
        <pt x="289" y="1135" on="1"/>
        <pt x="289" y="793" on="1"/>
      </contour>
    </TTGlyph>
    <TTGlyph name="C" xMin="63" yMin="-20" xMax="811" yMax="1282">
      <contour>
        <pt x="723" y="1102" on="1"/>
        <pt x="669" y="1128" on="0"/>
        <pt x="574" y="1151" on="0"/>
        <pt x="532" y="1151" on="1"/>
        <pt x="451" y="1151" on="0"/>
        <pt x="352" y="1094" on="0"/>
        <pt x="298" y="996" on="0"/>
        <pt x="280" y="866" on="0"/>
        <pt x="280" y="793" on="1"/>
        <pt x="280" y="174" on="1"/>
        <pt x="337" y="139" on="0"/>
        <pt x="452" y="111" on="0"/>
        <pt x="524" y="111" on="1"/>
        <pt x="558" y="111" on="0"/>
        <pt x="616" y="117" on="0"/>
        <pt x="669" y="130" on="0"/>
        <pt x="722" y="154" on="0"/>
        <pt x="752" y="172" on="1"/>
        <pt x="811" y="43" on="1"/>
        <pt x="757" y="15" on="0"/>
        <pt x="610" y="-20" on="0"/>
        <pt x="516" y="-20" on="1"/>
        <pt x="479" y="-20" on="0"/>
        <pt x="374" y="-9" on="0"/>
        <pt x="253" y="25" on="0"/>
        <pt x="124" y="91" on="0"/>
        <pt x="63" y="145" on="1"/>
        <pt x="137" y="240" on="1"/>
        <pt x="137" y="788" on="1"/>
        <pt x="137" y="890" on="0"/>
        <pt x="172" y="1069" on="0"/>
        <pt x="260" y="1204" on="0"/>
        <pt x="411" y="1282" on="0"/>
        <pt x="528" y="1282" on="1"/>
        <pt x="602" y="1282" on="0"/>
        <pt x="717" y="1254" on="0"/>
        <pt x="774" y="1223" on="1"/>
      </contour>
    </TTGlyph>
    <TTGlyph name="Ccedilla" xMin="62" yMin="-354" xMax="810" yMax="1282">
      <contour>
        <pt x="380" y="-158" on="1"/>
        <pt x="380" y="-8" on="1"/>
        <pt x="344" y="-2" on="0"/>
        <pt x="265" y="21" on="0"/>
        <pt x="184" y="57" on="0"/>
        <pt x="101" y="109" on="0"/>
        <pt x="62" y="145" on="1"/>
        <pt x="136" y="240" on="1"/>
        <pt x="136" y="788" on="1"/>
        <pt x="136" y="890" on="0"/>
        <pt x="171" y="1069" on="0"/>
        <pt x="259" y="1204" on="0"/>
        <pt x="410" y="1282" on="0"/>
        <pt x="527" y="1282" on="1"/>
        <pt x="601" y="1282" on="0"/>
        <pt x="716" y="1254" on="0"/>
        <pt x="773" y="1223" on="1"/>
        <pt x="722" y="1102" on="1"/>
        <pt x="668" y="1128" on="0"/>
        <pt x="573" y="1151" on="0"/>
        <pt x="531" y="1151" on="1"/>
        <pt x="450" y="1151" on="0"/>
        <pt x="351" y="1094" on="0"/>
        <pt x="297" y="996" on="0"/>
        <pt x="279" y="866" on="0"/>
        <pt x="279" y="793" on="1"/>
        <pt x="279" y="174" on="1"/>
        <pt x="336" y="139" on="0"/>
        <pt x="451" y="111" on="0"/>
        <pt x="523" y="111" on="1"/>
        <pt x="557" y="111" on="0"/>
        <pt x="615" y="117" on="0"/>
        <pt x="668" y="130" on="0"/>
        <pt x="721" y="154" on="0"/>
        <pt x="751" y="172" on="1"/>
        <pt x="810" y="43" on="1"/>
        <pt x="756" y="15" on="0"/>
        <pt x="609" y="-20" on="0"/>
        <pt x="515" y="-20" on="1"/>
        <pt x="503" y="-20" on="1"/>
        <pt x="503" y="-61" on="1"/>
        <pt x="511" y="-61" on="1"/>
        <pt x="596" y="-61" on="0"/>
        <pt x="691" y="-132" on="0"/>
        <pt x="691" y="-207" on="1"/>
        <pt x="691" y="-248" on="0"/>
        <pt x="657" y="-305" on="0"/>
        <pt x="601" y="-339" on="0"/>
        <pt x="529" y="-354" on="0"/>
        <pt x="490" y="-354" on="1"/>
        <pt x="432" y="-354" on="0"/>
        <pt x="330" y="-332" on="0"/>
        <pt x="292" y="-315" on="1"/>
        <pt x="292" y="-205" on="1"/>
        <pt x="343" y="-226" on="0"/>
        <pt x="442" y="-254" on="0"/>
        <pt x="490" y="-254" on="1"/>
        <pt x="519" y="-254" on="0"/>
        <pt x="566" y="-235" on="0"/>
        <pt x="566" y="-207" on="1"/>
        <pt x="566" y="-181" on="0"/>
        <pt x="528" y="-158" on="0"/>
        <pt x="486" y="-158" on="1"/>
      </contour>
    </TTGlyph>
    <TTGlyph name="D" xMin="106" yMin="0" xMax="884" yMax="1282">
      <contour>
        <pt x="145" y="1116" on="1"/>
        <pt x="106" y="1229" on="1"/>
        <pt x="155" y="1252" on="0"/>
        <pt x="297" y="1282" on="0"/>
        <pt x="382" y="1282" on="1"/>
        <pt x="512" y="1282" on="0"/>
        <pt x="702" y="1180" on="0"/>
        <pt x="825" y="1005" on="0"/>
        <pt x="884" y="772" on="0"/>
        <pt x="884" y="641" on="1"/>
        <pt x="884" y="500" on="0"/>
        <pt x="821" y="264" on="0"/>
        <pt x="683" y="94" on="0"/>
        <pt x="464" y="0" on="0"/>
        <pt x="308" y="0" on="1"/>
        <pt x="145" y="0" on="1"/>
      </contour>
      <contour>
        <pt x="288" y="131" on="1"/>
        <pt x="329" y="131" on="1"/>
        <pt x="444" y="131" on="0"/>
        <pt x="602" y="207" on="0"/>
        <pt x="699" y="343" on="0"/>
        <pt x="741" y="530" on="0"/>
        <pt x="741" y="641" on="1"/>
        <pt x="741" y="767" on="0"/>
        <pt x="689" y="958" on="0"/>
        <pt x="595" y="1086" on="0"/>
        <pt x="463" y="1151" on="0"/>
        <pt x="384" y="1151" on="1"/>
        <pt x="356" y="1151" on="0"/>
        <pt x="307" y="1146" on="0"/>
        <pt x="288" y="1141" on="1"/>
      </contour>
    </TTGlyph>
    <TTGlyph name="E" xMin="77" yMin="-20" xMax="691" yMax="1262">
      <contour>
        <pt x="691" y="1130" on="1"/>
        <pt x="294" y="1130" on="1"/>
        <pt x="294" y="793" on="1"/>
        <pt x="560" y="793" on="1"/>
        <pt x="560" y="662" on="1"/>
        <pt x="294" y="662" on="1"/>
        <pt x="294" y="217" on="1"/>
        <pt x="340" y="186" on="0"/>
        <pt x="432" y="145" on="0"/>
        <pt x="529" y="121" on="0"/>
        <pt x="633" y="111" on="0"/>
        <pt x="691" y="111" on="1"/>
        <pt x="681" y="-20" on="1"/>
        <pt x="582" y="-20" on="0"/>
        <pt x="407" y="15" on="0"/>
        <pt x="256" y="75" on="0"/>
        <pt x="128" y="156" on="0"/>
        <pt x="77" y="201" on="1"/>
        <pt x="151" y="295" on="1"/>
        <pt x="151" y="1130" on="1"/>
        <pt x="110" y="1262" on="1"/>
        <pt x="691" y="1262" on="1"/>
      </contour>
    </TTGlyph>
    <TTGlyph name="Eacute" xMin="77" yMin="-20" xMax="691" yMax="1657">
      <component glyphName="E" x="0" y="0" flags="0x204"/>
      <component glyphName="acute" x="174" y="316" flags="0x4"/>
    </TTGlyph>
    <TTGlyph name="Ecircumflex" xMin="77" yMin="-20" xMax="697" yMax="1657">
      <component glyphName="E" x="0" y="0" flags="0x204"/>
      <component glyphName="circumflex" x="58" y="316" flags="0x4"/>
    </TTGlyph>
    <TTGlyph name="Edieresis" xMin="77" yMin="-20" xMax="691" yMax="1578">
      <component glyphName="E" x="0" y="0" flags="0x204"/>
      <component glyphName="dieresis" x="129" y="316" flags="0x4"/>
    </TTGlyph>
    <TTGlyph name="Egrave" xMin="77" yMin="-20" xMax="691" yMax="1657">
      <component glyphName="E" x="0" y="0" flags="0x204"/>
      <component glyphName="grave" x="129" y="316" flags="0x4"/>
    </TTGlyph>
    <TTGlyph name="Eth" xMin="26" yMin="0" xMax="892" yMax="1282">
      <contour>
        <pt x="26" y="793" on="1"/>
        <pt x="153" y="793" on="1"/>
        <pt x="153" y="1116" on="1"/>
        <pt x="114" y="1229" on="1"/>
        <pt x="163" y="1252" on="0"/>
        <pt x="305" y="1282" on="0"/>
        <pt x="390" y="1282" on="1"/>
        <pt x="520" y="1282" on="0"/>
        <pt x="710" y="1180" on="0"/>
        <pt x="833" y="1005" on="0"/>
        <pt x="892" y="772" on="0"/>
        <pt x="892" y="641" on="1"/>
        <pt x="892" y="500" on="0"/>
        <pt x="829" y="264" on="0"/>
        <pt x="691" y="94" on="0"/>
        <pt x="472" y="0" on="0"/>
        <pt x="316" y="0" on="1"/>
        <pt x="153" y="0" on="1"/>
        <pt x="153" y="662" on="1"/>
        <pt x="67" y="662" on="1"/>
      </contour>
      <contour>
        <pt x="296" y="793" on="1"/>
        <pt x="489" y="793" on="1"/>
        <pt x="489" y="662" on="1"/>
        <pt x="296" y="662" on="1"/>
        <pt x="296" y="131" on="1"/>
        <pt x="337" y="131" on="1"/>
        <pt x="452" y="131" on="0"/>
        <pt x="610" y="207" on="0"/>
        <pt x="707" y="343" on="0"/>
        <pt x="749" y="530" on="0"/>
        <pt x="749" y="641" on="1"/>
        <pt x="749" y="767" on="0"/>
        <pt x="697" y="958" on="0"/>
        <pt x="603" y="1086" on="0"/>
        <pt x="471" y="1151" on="0"/>
        <pt x="392" y="1151" on="1"/>
        <pt x="364" y="1151" on="0"/>
        <pt x="315" y="1146" on="0"/>
        <pt x="296" y="1141" on="1"/>
      </contour>
    </TTGlyph>
    <TTGlyph name="Euro" xMin="83" yMin="-20" xMax="863" yMax="1282">
      <contour>
        <pt x="775" y="1102" on="1"/>
        <pt x="721" y="1128" on="0"/>
        <pt x="626" y="1151" on="0"/>
        <pt x="584" y="1151" on="1"/>
        <pt x="516" y="1151" on="0"/>
        <pt x="425" y="1110" on="0"/>
        <pt x="368" y="1038" on="0"/>
        <pt x="340" y="941" on="0"/>
        <pt x="335" y="885" on="1"/>
        <pt x="750" y="885" on="1"/>
        <pt x="726" y="774" on="1"/>
        <pt x="332" y="774" on="1"/>
        <pt x="332" y="680" on="1"/>
        <pt x="705" y="680" on="1"/>
        <pt x="681" y="569" on="1"/>
        <pt x="332" y="569" on="1"/>
        <pt x="332" y="174" on="1"/>
        <pt x="389" y="139" on="0"/>
        <pt x="504" y="111" on="0"/>
        <pt x="576" y="111" on="1"/>
        <pt x="610" y="111" on="0"/>
        <pt x="668" y="117" on="0"/>
        <pt x="721" y="130" on="0"/>
        <pt x="774" y="154" on="0"/>
        <pt x="804" y="172" on="1"/>
        <pt x="863" y="43" on="1"/>
        <pt x="809" y="15" on="0"/>
        <pt x="662" y="-20" on="0"/>
        <pt x="568" y="-20" on="1"/>
        <pt x="531" y="-20" on="0"/>
        <pt x="426" y="-9" on="0"/>
        <pt x="305" y="25" on="0"/>
        <pt x="176" y="91" on="0"/>
        <pt x="115" y="145" on="1"/>
        <pt x="189" y="240" on="1"/>
        <pt x="189" y="569" on="1"/>
        <pt x="83" y="569" on="1"/>
        <pt x="107" y="680" on="1"/>
        <pt x="189" y="680" on="1"/>
        <pt x="189" y="774" on="1"/>
        <pt x="83" y="774" on="1"/>
        <pt x="107" y="885" on="1"/>
        <pt x="193" y="885" on="1"/>
        <pt x="200" y="969" on="0"/>
        <pt x="246" y="1115" on="0"/>
        <pt x="336" y="1221" on="0"/>
        <pt x="477" y="1282" on="0"/>
        <pt x="580" y="1282" on="1"/>
        <pt x="654" y="1282" on="0"/>
        <pt x="769" y="1254" on="0"/>
        <pt x="826" y="1223" on="1"/>
      </contour>
    </TTGlyph>
    <TTGlyph name="F" xMin="106" yMin="0" xMax="717" yMax="1262">
      <contour>
        <pt x="717" y="1130" on="1"/>
        <pt x="291" y="1130" on="1"/>
        <pt x="291" y="793" on="1"/>
        <pt x="557" y="793" on="1"/>
        <pt x="557" y="662" on="1"/>
        <pt x="291" y="662" on="1"/>
        <pt x="291" y="0" on="1"/>
        <pt x="147" y="0" on="1"/>
        <pt x="147" y="1130" on="1"/>
        <pt x="106" y="1262" on="1"/>
        <pt x="717" y="1262" on="1"/>
      </contour>
    </TTGlyph>
    <TTGlyph name="G" xMin="63" yMin="-20" xMax="858" yMax="1282">
      <contour>
        <pt x="508" y="-20" on="1"/>
        <pt x="472" y="-20" on="0"/>
        <pt x="369" y="-9" on="0"/>
        <pt x="250" y="25" on="0"/>
        <pt x="123" y="91" on="0"/>
        <pt x="63" y="145" on="1"/>
        <pt x="137" y="240" on="1"/>
        <pt x="137" y="788" on="1"/>
        <pt x="137" y="890" on="0"/>
        <pt x="172" y="1069" on="0"/>
        <pt x="260" y="1204" on="0"/>
        <pt x="411" y="1282" on="0"/>
        <pt x="528" y="1282" on="1"/>
        <pt x="602" y="1282" on="0"/>
        <pt x="717" y="1254" on="0"/>
        <pt x="774" y="1223" on="1"/>
        <pt x="723" y="1102" on="1"/>
        <pt x="669" y="1128" on="0"/>
        <pt x="574" y="1151" on="0"/>
        <pt x="532" y="1151" on="1"/>
        <pt x="451" y="1151" on="0"/>
        <pt x="352" y="1094" on="0"/>
        <pt x="298" y="996" on="0"/>
        <pt x="280" y="866" on="0"/>
        <pt x="280" y="793" on="1"/>
        <pt x="280" y="174" on="1"/>
        <pt x="336" y="139" on="0"/>
        <pt x="447" y="111" on="0"/>
        <pt x="516" y="111" on="1"/>
        <pt x="582" y="111" on="0"/>
        <pt x="673" y="135" on="0"/>
        <pt x="715" y="158" on="1"/>
        <pt x="715" y="582" on="1"/>
        <pt x="858" y="582" on="1"/>
        <pt x="858" y="61" on="1"/>
        <pt x="816" y="41" on="0"/>
        <pt x="737" y="11" on="0"/>
        <pt x="653" y="-10" on="0"/>
        <pt x="562" y="-20" on="0"/>
      </contour>
    </TTGlyph>
    <TTGlyph name="H" xMin="144" yMin="0" xMax="857" yMax="1262">
      <contour>
        <pt x="288" y="1262" on="1"/>
        <pt x="288" y="793" on="1"/>
        <pt x="714" y="793" on="1"/>
        <pt x="714" y="1262" on="1"/>
        <pt x="857" y="1262" on="1"/>
        <pt x="857" y="0" on="1"/>
        <pt x="714" y="0" on="1"/>
        <pt x="714" y="662" on="1"/>
        <pt x="288" y="662" on="1"/>
        <pt x="288" y="0" on="1"/>
        <pt x="144" y="0" on="1"/>
        <pt x="144" y="1262" on="1"/>
      </contour>
    </TTGlyph>
    <TTGlyph name="I" xMin="144" yMin="0" xMax="288" yMax="1262">
      <contour>
        <pt x="144" y="1262" on="1"/>
        <pt x="288" y="1262" on="1"/>
        <pt x="288" y="0" on="1"/>
        <pt x="144" y="0" on="1"/>
      </contour>
    </TTGlyph>
    <TTGlyph name="Iacute" xMin="101" yMin="0" xMax="412" yMax="1657">
      <component glyphName="I" x="0" y="0" flags="0x204"/>
      <component glyphName="acute" x="19" y="316" flags="0x4"/>
    </TTGlyph>
    <TTGlyph name="Icircumflex" xMin="-61" yMin="0" xMax="496" yMax="1657">
      <component glyphName="I" x="0" y="0" flags="0x204"/>
      <component glyphName="circumflex" x="-143" y="316" flags="0x4"/>
    </TTGlyph>
    <TTGlyph name="Idieresis" xMin="8" yMin="0" xMax="426" yMax="1578">
      <component glyphName="I" x="0" y="0" flags="0x204"/>
      <component glyphName="dieresis" x="-74" y="316" flags="0x4"/>
    </TTGlyph>
    <TTGlyph name="Igrave" xMin="34" yMin="0" xMax="345" yMax="1657">
      <component glyphName="I" x="0" y="0" flags="0x204"/>
      <component glyphName="grave" x="-48" y="316" flags="0x4"/>
    </TTGlyph>
    <TTGlyph name="J" xMin="39" yMin="-20" xMax="420" yMax="1262">
      <contour>
        <pt x="420" y="1262" on="1"/>
        <pt x="420" y="555" on="1"/>
        <pt x="420" y="513" on="0"/>
        <pt x="417" y="419" on="0"/>
        <pt x="399" y="320" on="0"/>
        <pt x="363" y="218" on="0"/>
        <pt x="296" y="118" on="0"/>
        <pt x="195" y="23" on="0"/>
        <pt x="121" y="-20" on="1"/>
        <pt x="39" y="102" on="1"/>
        <pt x="93" y="132" on="0"/>
        <pt x="194" y="224" on="0"/>
        <pt x="223" y="279" on="1"/>
        <pt x="252" y="334" on="0"/>
        <pt x="276" y="493" on="0"/>
        <pt x="276" y="608" on="1"/>
        <pt x="276" y="1130" on="1"/>
        <pt x="106" y="1130" on="1"/>
        <pt x="65" y="1262" on="1"/>
      </contour>
    </TTGlyph>
    <TTGlyph name="K" xMin="144" yMin="-20" xMax="869" yMax="1282">
      <contour>
        <pt x="288" y="0" on="1"/>
        <pt x="144" y="0" on="1"/>
        <pt x="144" y="1262" on="1"/>
        <pt x="288" y="1262" on="1"/>
      </contour>
      <contour>
        <pt x="323" y="662" on="1"/>
        <pt x="325" y="764" on="0"/>
        <pt x="388" y="962" on="0"/>
        <pt x="503" y="1129" on="0"/>
        <pt x="667" y="1253" on="0"/>
        <pt x="771" y="1282" on="1"/>
        <pt x="822" y="1155" on="1"/>
        <pt x="762" y="1142" on="0"/>
        <pt x="649" y="1072" on="0"/>
        <pt x="557" y="974" on="0"/>
        <pt x="493" y="855" on="0"/>
        <pt x="482" y="793" on="1"/>
        <pt x="869" y="45" on="1"/>
        <pt x="744" y="-20" on="1"/>
        <pt x="392" y="662" on="1"/>
      </contour>
    </TTGlyph>
    <TTGlyph name="L" xMin="144" yMin="0" xMax="732" yMax="1262">
      <contour>
        <pt x="144" y="1262" on="1"/>
        <pt x="288" y="1262" on="1"/>
        <pt x="288" y="131" on="1"/>
        <pt x="732" y="131" on="1"/>
        <pt x="732" y="0" on="1"/>
        <pt x="144" y="0" on="1"/>
      </contour>
    </TTGlyph>
    <TTGlyph name="M" xMin="115" yMin="-20" xMax="1110" yMax="1282">
      <contour>
        <pt x="613" y="774" on="1"/>
        <pt x="672" y="931" on="0"/>
        <pt x="864" y="1181" on="0"/>
        <pt x="1012" y="1282" on="1"/>
        <pt x="1098" y="1165" on="1"/>
        <pt x="1034" y="1120" on="1"/>
        <pt x="1110" y="-12" on="1"/>
        <pt x="969" y="-12" on="1"/>
        <pt x="901" y="993" on="1"/>
        <pt x="859" y="940" on="0"/>
        <pt x="793" y="836" on="0"/>
        <pt x="740" y="726" on="0"/>
        <pt x="697" y="608" on="0"/>
        <pt x="678" y="541" on="1"/>
        <pt x="545" y="541" on="1"/>
        <pt x="527" y="604" on="0"/>
        <pt x="487" y="718" on="0"/>
        <pt x="436" y="828" on="0"/>
        <pt x="369" y="936" on="0"/>
        <pt x="324" y="993" on="1"/>
        <pt x="256" y="-20" on="1"/>
        <pt x="115" y="-20" on="1"/>
        <pt x="191" y="1118" on="1"/>
        <pt x="127" y="1165" on="1"/>
        <pt x="213" y="1282" on="1"/>
        <pt x="354" y="1191" on="0"/>
        <pt x="548" y="942" on="0"/>
      </contour>
    </TTGlyph>
    <TTGlyph name="N" xMin="90" yMin="0" xMax="872" yMax="1282">
      <contour>
        <pt x="160" y="1124" on="1"/>
        <pt x="144" y="1129" on="0"/>
        <pt x="108" y="1138" on="0"/>
        <pt x="90" y="1141" on="1"/>
        <pt x="117" y="1282" on="1"/>
        <pt x="206" y="1270" on="0"/>
        <pt x="377" y="1213" on="0"/>
        <pt x="533" y="1122" on="0"/>
        <pt x="672" y="997" on="0"/>
        <pt x="729" y="918" on="1"/>
        <pt x="729" y="1262" on="1"/>
        <pt x="872" y="1262" on="1"/>
        <pt x="872" y="0" on="1"/>
        <pt x="729" y="0" on="1"/>
        <pt x="727" y="645" on="1"/>
        <pt x="649" y="798" on="0"/>
        <pt x="442" y="1023" on="0"/>
        <pt x="303" y="1090" on="1"/>
        <pt x="303" y="0" on="1"/>
        <pt x="160" y="0" on="1"/>
      </contour>
    </TTGlyph>
    <TTGlyph name="Ntilde" xMin="90" yMin="0" xMax="872" yMax="1653">
      <component glyphName="N" x="0" y="0" flags="0x204"/>
      <component glyphName="tilde" x="123" y="316" flags="0x4"/>
    </TTGlyph>
    <TTGlyph name="O" xMin="129" yMin="-20" xMax="960" yMax="1282">
      <contour>
        <pt x="508" y="111" on="1"/>
        <pt x="583" y="111" on="0"/>
        <pt x="697" y="142" on="0"/>
        <pt x="743" y="174" on="1"/>
        <pt x="743" y="809" on="1"/>
        <pt x="743" y="871" on="0"/>
        <pt x="725" y="994" on="0"/>
        <pt x="673" y="1091" on="0"/>
        <pt x="581" y="1151" on="0"/>
        <pt x="508" y="1151" on="1"/>
        <pt x="434" y="1151" on="0"/>
        <pt x="342" y="1091" on="0"/>
        <pt x="290" y="994" on="0"/>
        <pt x="272" y="871" on="0"/>
        <pt x="272" y="809" on="1"/>
        <pt x="272" y="174" on="1"/>
        <pt x="320" y="142" on="0"/>
        <pt x="433" y="111" on="0"/>
      </contour>
      <contour>
        <pt x="508" y="1282" on="1"/>
        <pt x="615" y="1282" on="0"/>
        <pt x="760" y="1207" on="0"/>
        <pt x="849" y="1079" on="0"/>
        <pt x="887" y="906" on="0"/>
        <pt x="887" y="809" on="1"/>
        <pt x="887" y="240" on="1"/>
        <pt x="960" y="145" on="1"/>
        <pt x="926" y="116" on="0"/>
        <pt x="838" y="57" on="0"/>
        <pt x="727" y="10" on="0"/>
        <pt x="590" y="-20" on="0"/>
        <pt x="508" y="-20" on="1"/>
        <pt x="433" y="-20" on="0"/>
        <pt x="313" y="3" on="0"/>
        <pt x="220" y="37" on="0"/>
        <pt x="152" y="77" on="0"/>
        <pt x="129" y="94" on="1"/>
        <pt x="129" y="809" on="1"/>
        <pt x="129" y="906" on="0"/>
        <pt x="167" y="1079" on="0"/>
        <pt x="255" y="1207" on="0"/>
        <pt x="400" y="1282" on="0"/>
      </contour>
    </TTGlyph>
    <TTGlyph name="OE" xMin="128" yMin="-20" xMax="1236" yMax="1262">
      <contour>
        <pt x="812" y="74" on="1"/>
        <pt x="750" y="36" on="0"/>
        <pt x="589" y="-20" on="0"/>
        <pt x="484" y="-20" on="1"/>
        <pt x="415" y="-20" on="0"/>
        <pt x="302" y="3" on="0"/>
        <pt x="213" y="37" on="0"/>
        <pt x="149" y="77" on="0"/>
        <pt x="128" y="94" on="1"/>
        <pt x="130" y="788" on="1"/>
        <pt x="130" y="885" on="0"/>
        <pt x="167" y="1058" on="0"/>
        <pt x="255" y="1187" on="0"/>
        <pt x="400" y="1262" on="0"/>
        <pt x="509" y="1262" on="1"/>
        <pt x="1236" y="1262" on="1"/>
        <pt x="1236" y="1130" on="1"/>
        <pt x="839" y="1130" on="1"/>
        <pt x="839" y="793" on="1"/>
        <pt x="1105" y="793" on="1"/>
        <pt x="1105" y="662" on="1"/>
        <pt x="839" y="662" on="1"/>
        <pt x="839" y="215" on="1"/>
        <pt x="885" y="185" on="0"/>
        <pt x="976" y="145" on="0"/>
        <pt x="1073" y="121" on="0"/>
        <pt x="1177" y="111" on="0"/>
        <pt x="1236" y="111" on="1"/>
        <pt x="1226" y="-20" on="1"/>
        <pt x="1103" y="-20" on="0"/>
        <pt x="900" y="29" on="0"/>
      </contour>
      <contour>
        <pt x="695" y="1130" on="1"/>
        <pt x="509" y="1130" on="1"/>
        <pt x="434" y="1130" on="0"/>
        <pt x="341" y="1070" on="0"/>
        <pt x="289" y="973" on="0"/>
        <pt x="271" y="850" on="0"/>
        <pt x="271" y="788" on="1"/>
        <pt x="271" y="174" on="1"/>
        <pt x="313" y="142" on="0"/>
        <pt x="416" y="111" on="0"/>
        <pt x="482" y="111" on="1"/>
        <pt x="539" y="111" on="0"/>
        <pt x="647" y="139" on="0"/>
        <pt x="695" y="174" on="1"/>
      </contour>
    </TTGlyph>
    <TTGlyph name="Oacute" xMin="129" yMin="-20" xMax="960" yMax="1657">
      <component glyphName="O" x="0" y="0" flags="0x204"/>
      <component glyphName="acute" x="289" y="316" flags="0x4"/>
    </TTGlyph>
    <TTGlyph name="Ocircumflex" xMin="129" yMin="-20" xMax="960" yMax="1657">
      <component glyphName="O" x="0" y="0" flags="0x204"/>
      <component glyphName="circumflex" x="162" y="316" flags="0x4"/>
    </TTGlyph>
    <TTGlyph name="Odieresis" xMin="129" yMin="-20" xMax="960" yMax="1578">
      <component glyphName="O" x="0" y="0" flags="0x204"/>
      <component glyphName="dieresis" x="234" y="316" flags="0x4"/>
    </TTGlyph>
    <TTGlyph name="Ograve" xMin="129" yMin="-20" xMax="960" yMax="1657">
      <component glyphName="O" x="0" y="0" flags="0x204"/>
      <component glyphName="grave" x="288" y="316" flags="0x4"/>
    </TTGlyph>
    <TTGlyph name="Oslash" xMin="-24" yMin="-219" xMax="1039" yMax="1341">
      <contour>
        <pt x="130" y="94" on="1"/>
        <pt x="130" y="809" on="1"/>
        <pt x="130" y="906" on="0"/>
        <pt x="168" y="1079" on="0"/>
        <pt x="256" y="1207" on="0"/>
        <pt x="401" y="1282" on="0"/>
        <pt x="509" y="1282" on="1"/>
        <pt x="615" y="1282" on="0"/>
        <pt x="759" y="1208" on="0"/>
        <pt x="804" y="1145" on="1"/>
        <pt x="931" y="1341" on="1"/>
        <pt x="1039" y="1270" on="1"/>
        <pt x="867" y="1001" on="1"/>
        <pt x="888" y="912" on="0"/>
        <pt x="888" y="809" on="1"/>
        <pt x="888" y="240" on="1"/>
        <pt x="961" y="145" on="1"/>
        <pt x="927" y="116" on="0"/>
        <pt x="839" y="57" on="0"/>
        <pt x="728" y="10" on="0"/>
        <pt x="591" y="-20" on="0"/>
        <pt x="509" y="-20" on="1"/>
        <pt x="424" y="-20" on="0"/>
        <pt x="292" y="7" on="0"/>
        <pt x="243" y="29" on="1"/>
        <pt x="85" y="-219" on="1"/>
        <pt x="-24" y="-145" on="1"/>
      </contour>
      <contour>
        <pt x="273" y="317" on="1"/>
        <pt x="716" y="1008" on="1"/>
        <pt x="704" y="1039" on="0"/>
        <pt x="668" y="1091" on="0"/>
        <pt x="618" y="1129" on="0"/>
        <pt x="552" y="1151" on="0"/>
        <pt x="509" y="1151" on="1"/>
        <pt x="435" y="1151" on="0"/>
        <pt x="343" y="1091" on="0"/>
        <pt x="291" y="994" on="0"/>
        <pt x="273" y="871" on="0"/>
        <pt x="273" y="809" on="1"/>
      </contour>
      <contour>
        <pt x="509" y="111" on="1"/>
        <pt x="584" y="111" on="0"/>
        <pt x="698" y="142" on="0"/>
        <pt x="744" y="174" on="1"/>
        <pt x="744" y="809" on="1"/>
        <pt x="318" y="147" on="1"/>
        <pt x="360" y="129" on="0"/>
        <pt x="452" y="111" on="0"/>
      </contour>
    </TTGlyph>
    <TTGlyph name="Otilde" xMin="129" yMin="-20" xMax="960" yMax="1653">
      <component glyphName="O" x="0" y="0" flags="0x204"/>
      <component glyphName="tilde" x="142" y="316" flags="0x4"/>
    </TTGlyph>
    <TTGlyph name="P" xMin="95" yMin="0" xMax="822" yMax="1282">
      <contour>
        <pt x="95" y="1206" on="1"/>
        <pt x="133" y="1223" on="0"/>
        <pt x="225" y="1251" on="0"/>
        <pt x="321" y="1271" on="0"/>
        <pt x="415" y="1282" on="0"/>
        <pt x="456" y="1282" on="1"/>
        <pt x="541" y="1282" on="0"/>
        <pt x="685" y="1230" on="0"/>
        <pt x="730" y="1184" on="1"/>
        <pt x="765" y="1148" on="0"/>
        <pt x="803" y="1069" on="0"/>
        <pt x="820" y="989" on="0"/>
        <pt x="822" y="908" on="0"/>
        <pt x="822" y="870" on="1"/>
        <pt x="822" y="662" on="1"/>
        <pt x="294" y="662" on="1"/>
        <pt x="294" y="0" on="1"/>
        <pt x="151" y="0" on="1"/>
        <pt x="151" y="1094" on="1"/>
      </contour>
      <contour>
        <pt x="294" y="793" on="1"/>
        <pt x="683" y="793" on="1"/>
        <pt x="683" y="868" on="1"/>
        <pt x="683" y="890" on="0"/>
        <pt x="681" y="943" on="0"/>
        <pt x="671" y="999" on="0"/>
        <pt x="647" y="1056" on="0"/>
        <pt x="626" y="1081" on="1"/>
        <pt x="605" y="1106" on="0"/>
        <pt x="557" y="1134" on="0"/>
        <pt x="510" y="1148" on="0"/>
        <pt x="466" y="1151" on="0"/>
        <pt x="448" y="1151" on="1"/>
        <pt x="407" y="1151" on="0"/>
        <pt x="320" y="1138" on="0"/>
        <pt x="294" y="1126" on="1"/>
      </contour>
    </TTGlyph>
    <TTGlyph name="Q" xMin="121" yMin="0" xMax="983" yMax="1282">
      <contour>
        <pt x="879" y="131" on="1"/>
        <pt x="983" y="0" on="1"/>
        <pt x="500" y="0" on="1"/>
        <pt x="392" y="0" on="0"/>
        <pt x="247" y="75" on="0"/>
        <pt x="159" y="203" on="0"/>
        <pt x="121" y="375" on="0"/>
        <pt x="121" y="473" on="1"/>
        <pt x="121" y="809" on="1"/>
        <pt x="121" y="906" on="0"/>
        <pt x="159" y="1079" on="0"/>
        <pt x="247" y="1207" on="0"/>
        <pt x="392" y="1282" on="0"/>
        <pt x="500" y="1282" on="1"/>
        <pt x="607" y="1282" on="0"/>
        <pt x="752" y="1207" on="0"/>
        <pt x="841" y="1079" on="0"/>
        <pt x="879" y="906" on="0"/>
        <pt x="879" y="809" on="1"/>
      </contour>
      <contour>
        <pt x="735" y="809" on="1"/>
        <pt x="735" y="871" on="0"/>
        <pt x="717" y="994" on="0"/>
        <pt x="665" y="1091" on="0"/>
        <pt x="573" y="1151" on="0"/>
        <pt x="500" y="1151" on="1"/>
        <pt x="426" y="1151" on="0"/>
        <pt x="334" y="1091" on="0"/>
        <pt x="282" y="994" on="0"/>
        <pt x="264" y="871" on="0"/>
        <pt x="264" y="809" on="1"/>
        <pt x="264" y="473" on="1"/>
        <pt x="264" y="411" on="0"/>
        <pt x="282" y="288" on="0"/>
        <pt x="334" y="191" on="0"/>
        <pt x="426" y="131" on="0"/>
        <pt x="500" y="131" on="1"/>
        <pt x="735" y="131" on="1"/>
      </contour>
    </TTGlyph>
    <TTGlyph name="R" xMin="94" yMin="-20" xMax="891" yMax="1282">
      <contour>
        <pt x="94" y="1206" on="1"/>
        <pt x="172" y="1240" on="0"/>
        <pt x="347" y="1282" on="0"/>
        <pt x="428" y="1282" on="1"/>
        <pt x="516" y="1282" on="0"/>
        <pt x="662" y="1235" on="0"/>
        <pt x="713" y="1190" on="1"/>
        <pt x="750" y="1157" on="0"/>
        <pt x="793" y="1085" on="0"/>
        <pt x="815" y="1009" on="0"/>
        <pt x="821" y="931" on="0"/>
        <pt x="821" y="893" on="1"/>
        <pt x="821" y="662" on="1"/>
        <pt x="623" y="662" on="1"/>
        <pt x="891" y="37" on="1"/>
        <pt x="758" y="-20" on="1"/>
        <pt x="463" y="662" on="1"/>
        <pt x="293" y="662" on="1"/>
        <pt x="293" y="0" on="1"/>
        <pt x="150" y="0" on="1"/>
        <pt x="150" y="1094" on="1"/>
      </contour>
      <contour>
        <pt x="293" y="793" on="1"/>
        <pt x="682" y="793" on="1"/>
        <pt x="682" y="862" on="1"/>
        <pt x="682" y="885" on="0"/>
        <pt x="678" y="940" on="0"/>
        <pt x="665" y="995" on="0"/>
        <pt x="642" y="1048" on="0"/>
        <pt x="623" y="1069" on="1"/>
        <pt x="575" y="1118" on="0"/>
        <pt x="476" y="1151" on="0"/>
        <pt x="428" y="1151" on="1"/>
        <pt x="344" y="1151" on="0"/>
        <pt x="293" y="1126" on="1"/>
      </contour>
    </TTGlyph>
    <TTGlyph name="S" xMin="81" yMin="-20" xMax="779" yMax="1282">
      <contour>
        <pt x="444" y="1282" on="1"/>
        <pt x="522" y="1282" on="0"/>
        <pt x="644" y="1254" on="0"/>
        <pt x="704" y="1223" on="1"/>
        <pt x="642" y="1102" on="1"/>
        <pt x="585" y="1128" on="0"/>
        <pt x="489" y="1151" on="0"/>
        <pt x="446" y="1151" on="1"/>
        <pt x="400" y="1151" on="0"/>
        <pt x="324" y="1125" on="0"/>
        <pt x="269" y="1077" on="0"/>
        <pt x="239" y="1009" on="0"/>
        <pt x="239" y="967" on="1"/>
        <pt x="239" y="920" on="0"/>
        <pt x="273" y="844" on="0"/>
        <pt x="327" y="778" on="0"/>
        <pt x="397" y="721" on="0"/>
        <pt x="433" y="694" on="1"/>
        <pt x="505" y="640" on="0"/>
        <pt x="612" y="550" on="0"/>
        <pt x="684" y="464" on="0"/>
        <pt x="720" y="375" on="0"/>
        <pt x="720" y="324" on="1"/>
        <pt x="720" y="236" on="1"/>
        <pt x="779" y="123" on="1"/>
        <pt x="694" y="54" on="0"/>
        <pt x="499" y="-20" on="0"/>
        <pt x="388" y="-20" on="1"/>
        <pt x="365" y="-20" on="0"/>
        <pt x="293" y="-16" on="0"/>
        <pt x="209" y="-2" on="0"/>
        <pt x="121" y="25" on="0"/>
        <pt x="81" y="49" on="1"/>
        <pt x="140" y="178" on="1"/>
        <pt x="200" y="143" on="0"/>
        <pt x="327" y="111" on="0"/>
        <pt x="384" y="111" on="1"/>
        <pt x="444" y="111" on="0"/>
        <pt x="535" y="140" on="0"/>
        <pt x="577" y="166" on="1"/>
        <pt x="577" y="307" on="1"/>
        <pt x="577" y="350" on="0"/>
        <pt x="530" y="427" on="0"/>
        <pt x="460" y="494" on="0"/>
        <pt x="379" y="554" on="0"/>
        <pt x="345" y="580" on="1"/>
        <pt x="297" y="617" on="0"/>
        <pt x="206" y="695" on="0"/>
        <pt x="137" y="787" on="0"/>
        <pt x="95" y="895" on="0"/>
        <pt x="95" y="963" on="1"/>
        <pt x="95" y="1040" on="0"/>
        <pt x="145" y="1159" on="0"/>
        <pt x="237" y="1240" on="0"/>
        <pt x="366" y="1282" on="0"/>
      </contour>
    </TTGlyph>
    <TTGlyph name="T" xMin="24" yMin="0" xMax="761" yMax="1262">
      <contour>
        <pt x="331" y="1130" on="1"/>
        <pt x="64" y="1130" on="1"/>
        <pt x="24" y="1262" on="1"/>
        <pt x="761" y="1262" on="1"/>
        <pt x="761" y="1130" on="1"/>
        <pt x="474" y="1130" on="1"/>
        <pt x="474" y="0" on="1"/>
        <pt x="331" y="0" on="1"/>
      </contour>
    </TTGlyph>
    <TTGlyph name="Thorn" xMin="144" yMin="0" xMax="815" yMax="1262">
      <contour>
        <pt x="144" y="0" on="1"/>
        <pt x="144" y="1262" on="1"/>
        <pt x="287" y="1262" on="1"/>
        <pt x="287" y="979" on="1"/>
        <pt x="330" y="987" on="0"/>
        <pt x="414" y="995" on="0"/>
        <pt x="449" y="995" on="1"/>
        <pt x="534" y="995" on="0"/>
        <pt x="678" y="943" on="0"/>
        <pt x="723" y="897" on="1"/>
        <pt x="758" y="861" on="0"/>
        <pt x="796" y="782" on="0"/>
        <pt x="813" y="702" on="0"/>
        <pt x="815" y="622" on="0"/>
        <pt x="815" y="584" on="1"/>
        <pt x="815" y="375" on="1"/>
        <pt x="287" y="375" on="1"/>
        <pt x="287" y="0" on="1"/>
      </contour>
      <contour>
        <pt x="287" y="506" on="1"/>
        <pt x="676" y="506" on="1"/>
        <pt x="676" y="582" on="1"/>
        <pt x="676" y="604" on="0"/>
        <pt x="674" y="656" on="0"/>
        <pt x="663" y="712" on="0"/>
        <pt x="640" y="769" on="0"/>
        <pt x="619" y="795" on="1"/>
        <pt x="597" y="819" on="0"/>
        <pt x="549" y="847" on="0"/>
        <pt x="503" y="860" on="0"/>
        <pt x="459" y="864" on="0"/>
        <pt x="441" y="864" on="1"/>
        <pt x="400" y="864" on="0"/>
        <pt x="313" y="850" on="0"/>
        <pt x="287" y="840" on="1"/>
      </contour>
    </TTGlyph>
    <TTGlyph name="U" xMin="134" yMin="-20" xMax="957" yMax="1262">
      <contour>
        <pt x="957" y="121" on="1"/>
        <pt x="893" y="73" on="0"/>
        <pt x="775" y="17" on="0"/>
        <pt x="671" y="-12" on="0"/>
        <pt x="584" y="-20" on="0"/>
        <pt x="552" y="-20" on="1"/>
        <pt x="424" y="-20" on="0"/>
        <pt x="250" y="68" on="0"/>
        <pt x="196" y="162" on="1"/>
        <pt x="175" y="198" on="0"/>
        <pt x="150" y="273" on="0"/>
        <pt x="137" y="349" on="0"/>
        <pt x="134" y="424" on="0"/>
        <pt x="134" y="462" on="1"/>
        <pt x="134" y="1262" on="1"/>
        <pt x="278" y="1262" on="1"/>
        <pt x="278" y="518" on="1"/>
        <pt x="278" y="396" on="0"/>
        <pt x="309" y="242" on="0"/>
        <pt x="347" y="197" on="1"/>
        <pt x="359" y="183" on="0"/>
        <pt x="394" y="152" on="0"/>
        <pt x="445" y="127" on="0"/>
        <pt x="510" y="111" on="0"/>
        <pt x="552" y="111" on="1"/>
        <pt x="600" y="111" on="0"/>
        <pt x="699" y="137" on="0"/>
        <pt x="747" y="162" on="1"/>
        <pt x="747" y="1262" on="1"/>
        <pt x="890" y="1262" on="1"/>
        <pt x="890" y="236" on="1"/>
      </contour>
    </TTGlyph>
    <TTGlyph name="Uacute" xMin="134" yMin="-20" xMax="957" yMax="1657">
      <component glyphName="U" x="0" y="0" flags="0x204"/>
      <component glyphName="acute" x="292" y="316" flags="0x4"/>
    </TTGlyph>
    <TTGlyph name="Ucircumflex" xMin="134" yMin="-20" xMax="957" yMax="1657">
      <component glyphName="U" x="0" y="0" flags="0x204"/>
      <component glyphName="circumflex" x="153" y="316" flags="0x4"/>
    </TTGlyph>
    <TTGlyph name="Udieresis" xMin="134" yMin="-20" xMax="957" yMax="1578">
      <component glyphName="U" x="0" y="0" flags="0x204"/>
      <component glyphName="dieresis" x="217" y="316" flags="0x4"/>
    </TTGlyph>
    <TTGlyph name="Ugrave" xMin="134" yMin="-20" xMax="957" yMax="1657">
      <component glyphName="U" x="0" y="0" flags="0x204"/>
      <component glyphName="grave" x="290" y="316" flags="0x4"/>
    </TTGlyph>
    <TTGlyph name="V" xMin="63" yMin="-20" xMax="903" yMax="1282">
      <contour>
        <pt x="204" y="1282" on="1"/>
        <pt x="395" y="131" on="1"/>
        <pt x="416" y="134" on="0"/>
        <pt x="458" y="137" on="0"/>
        <pt x="483" y="137" on="1"/>
        <pt x="530" y="137" on="0"/>
        <pt x="571" y="131" on="1"/>
        <pt x="761" y="1282" on="1"/>
        <pt x="903" y="1262" on="1"/>
        <pt x="690" y="-20" on="1"/>
        <pt x="630" y="-5" on="0"/>
        <pt x="528" y="6" on="0"/>
        <pt x="483" y="6" on="1"/>
        <pt x="438" y="6" on="0"/>
        <pt x="336" y="-5" on="0"/>
        <pt x="276" y="-20" on="1"/>
        <pt x="63" y="1262" on="1"/>
      </contour>
    </TTGlyph>
    <TTGlyph name="W" xMin="55" yMin="-20" xMax="1222" yMax="1282">
      <contour>
        <pt x="196" y="1282" on="1"/>
        <pt x="413" y="145" on="1"/>
        <pt x="446" y="151" on="0"/>
        <pt x="532" y="160" on="0"/>
        <pt x="565" y="162" on="1"/>
        <pt x="565" y="922" on="1"/>
        <pt x="712" y="922" on="1"/>
        <pt x="712" y="162" on="1"/>
        <pt x="729" y="161" on="0"/>
        <pt x="770" y="158" on="0"/>
        <pt x="811" y="153" on="0"/>
        <pt x="849" y="148" on="0"/>
        <pt x="864" y="145" on="1"/>
        <pt x="1081" y="1282" on="1"/>
        <pt x="1222" y="1255" on="1"/>
        <pt x="979" y="-20" on="1"/>
        <pt x="944" y="-10" on="0"/>
        <pt x="856" y="8" on="0"/>
        <pt x="763" y="22" on="0"/>
        <pt x="674" y="31" on="0"/>
        <pt x="639" y="31" on="1"/>
        <pt x="603" y="31" on="0"/>
        <pt x="514" y="23" on="0"/>
        <pt x="421" y="9" on="0"/>
        <pt x="333" y="-10" on="0"/>
        <pt x="299" y="-20" on="1"/>
        <pt x="55" y="1255" on="1"/>
      </contour>
    </TTGlyph>
    <TTGlyph name="X" xMin="83" yMin="-20" xMax="833" yMax="1282">
      <contour>
        <pt x="225" y="1282" on="1"/>
        <pt x="385" y="793" on="1"/>
        <pt x="532" y="793" on="1"/>
        <pt x="692" y="1282" on="1"/>
        <pt x="833" y="1239" on="1"/>
        <pt x="667" y="727" on="1"/>
        <pt x="833" y="12" on="1"/>
        <pt x="692" y="-20" on="1"/>
        <pt x="534" y="662" on="1"/>
        <pt x="382" y="662" on="1"/>
        <pt x="225" y="-20" on="1"/>
        <pt x="83" y="12" on="1"/>
        <pt x="249" y="727" on="1"/>
        <pt x="83" y="1239" on="1"/>
      </contour>
    </TTGlyph>
    <TTGlyph name="Y" xMin="47" yMin="0" xMax="784" yMax="1282">
      <contour>
        <pt x="190" y="1282" on="1"/>
        <pt x="207" y="1171" on="1"/>
        <pt x="220" y="1088" on="0"/>
        <pt x="241" y="977" on="0"/>
        <pt x="262" y="903" on="0"/>
        <pt x="284" y="859" on="0"/>
        <pt x="297" y="844" on="1"/>
        <pt x="324" y="812" on="0"/>
        <pt x="390" y="793" on="0"/>
        <pt x="416" y="793" on="1"/>
        <pt x="442" y="793" on="0"/>
        <pt x="507" y="812" on="0"/>
        <pt x="534" y="844" on="1"/>
        <pt x="547" y="859" on="0"/>
        <pt x="568" y="903" on="0"/>
        <pt x="589" y="977" on="0"/>
        <pt x="611" y="1089" on="0"/>
        <pt x="624" y="1171" on="1"/>
        <pt x="641" y="1282" on="1"/>
        <pt x="784" y="1260" on="1"/>
        <pt x="767" y="1147" on="0"/>
        <pt x="737" y="982" on="0"/>
        <pt x="706" y="862" on="0"/>
        <pt x="668" y="779" on="0"/>
        <pt x="643" y="750" on="1"/>
        <pt x="603" y="703" on="0"/>
        <pt x="518" y="665" on="0"/>
        <pt x="487" y="659" on="1"/>
        <pt x="487" y="0" on="1"/>
        <pt x="344" y="0" on="1"/>
        <pt x="344" y="659" on="1"/>
        <pt x="312" y="665" on="0"/>
        <pt x="228" y="703" on="0"/>
        <pt x="188" y="750" on="1"/>
        <pt x="163" y="779" on="0"/>
        <pt x="125" y="862" on="0"/>
        <pt x="94" y="982" on="0"/>
        <pt x="64" y="1147" on="0"/>
        <pt x="47" y="1260" on="1"/>
      </contour>
    </TTGlyph>
    <TTGlyph name="Yacute" xMin="47" yMin="0" xMax="784" yMax="1657">
      <component glyphName="Y" x="0" y="0" flags="0x204"/>
      <component glyphName="acute" x="209" y="316" flags="0x4"/>
    </TTGlyph>
    <TTGlyph name="Z" xMin="51" yMin="0" xMax="798" yMax="1262">
      <contour>
        <pt x="264" y="131" on="1"/>
        <pt x="798" y="131" on="1"/>
        <pt x="798" y="0" on="1"/>
        <pt x="51" y="0" on="1"/>
        <pt x="583" y="1130" on="1"/>
        <pt x="91" y="1130" on="1"/>
        <pt x="91" y="1262" on="1"/>
        <pt x="798" y="1262" on="1"/>
      </contour>
    </TTGlyph>
    <TTGlyph name="a" xMin="63" yMin="-20" xMax="761" yMax="942">
      <contour>
        <pt x="219" y="942" on="1"/>
        <pt x="276" y="942" on="0"/>
        <pt x="393" y="930" on="0"/>
        <pt x="501" y="900" on="0"/>
        <pt x="596" y="848" on="0"/>
        <pt x="666" y="768" on="0"/>
        <pt x="706" y="658" on="0"/>
        <pt x="706" y="584" on="1"/>
        <pt x="706" y="174" on="1"/>
        <pt x="761" y="80" on="1"/>
        <pt x="665" y="26" on="0"/>
        <pt x="482" y="-20" on="0"/>
        <pt x="403" y="-20" on="1"/>
        <pt x="353" y="-20" on="0"/>
        <pt x="273" y="-7" on="0"/>
        <pt x="210" y="16" on="0"/>
        <pt x="163" y="46" on="0"/>
        <pt x="145" y="63" on="1"/>
        <pt x="111" y="98" on="0"/>
        <pt x="63" y="202" on="0"/>
        <pt x="63" y="268" on="1"/>
        <pt x="63" y="371" on="0"/>
        <pt x="150" y="503" on="0"/>
        <pt x="293" y="578" on="0"/>
        <pt x="477" y="607" on="0"/>
        <pt x="575" y="608" on="1"/>
        <pt x="570" y="675" on="0"/>
        <pt x="499" y="755" on="0"/>
        <pt x="393" y="797" on="0"/>
        <pt x="268" y="811" on="0"/>
        <pt x="209" y="813" on="1"/>
      </contour>
      <contour>
        <pt x="575" y="485" on="1"/>
        <pt x="542" y="485" on="0"/>
        <pt x="462" y="481" on="0"/>
        <pt x="379" y="467" on="0"/>
        <pt x="300" y="440" on="0"/>
        <pt x="239" y="396" on="0"/>
        <pt x="202" y="329" on="0"/>
        <pt x="202" y="283" on="1"/>
        <pt x="202" y="225" on="0"/>
        <pt x="242" y="154" on="0"/>
        <pt x="304" y="115" on="0"/>
        <pt x="375" y="102" on="0"/>
        <pt x="407" y="102" on="1"/>
        <pt x="458" y="102" on="0"/>
        <pt x="538" y="122" on="0"/>
        <pt x="575" y="137" on="1"/>
      </contour>
    </TTGlyph>
    <TTGlyph name="aacute" xMin="63" yMin="-20" xMax="761" yMax="1341">
      <component glyphName="a" x="0" y="0" flags="0x204"/>
      <component glyphName="acute" x="224" y="0" flags="0x4"/>
    </TTGlyph>
    <TTGlyph name="acircumflex" xMin="63" yMin="-20" xMax="761" yMax="1341">
      <component glyphName="a" x="0" y="0" flags="0x204"/>
      <component glyphName="circumflex" x="53" y="0" flags="0x4"/>
    </TTGlyph>
    <TTGlyph name="acute" xMin="82" yMin="1032" xMax="393" yMax="1341">
      <contour>
        <pt x="393" y="1247" on="1"/>
        <pt x="176" y="1032" on="1"/>
        <pt x="82" y="1126" on="1"/>
        <pt x="299" y="1341" on="1"/>
      </contour>
    </TTGlyph>
    <TTGlyph name="adieresis" xMin="63" yMin="-20" xMax="761" yMax="1262">
      <component glyphName="a" x="0" y="0" flags="0x204"/>
      <component glyphName="dieresis" x="112" y="0" flags="0x4"/>
    </TTGlyph>
    <TTGlyph name="ae" xMin="61" yMin="-20" xMax="1177" yMax="942">
      <contour>
        <pt x="704" y="451" on="1"/>
        <pt x="704" y="156" on="1"/>
        <pt x="749" y="124" on="0"/>
        <pt x="854" y="102" on="0"/>
        <pt x="899" y="102" on="1"/>
        <pt x="982" y="102" on="0"/>
        <pt x="1114" y="141" on="0"/>
        <pt x="1177" y="186" on="1"/>
        <pt x="1177" y="49" on="1"/>
        <pt x="1117" y="12" on="0"/>
        <pt x="980" y="-20" on="0"/>
        <pt x="899" y="-20" on="1"/>
        <pt x="821" y="-20" on="0"/>
        <pt x="702" y="2" on="0"/>
        <pt x="651" y="27" on="1"/>
        <pt x="585" y="2" on="0"/>
        <pt x="458" y="-20" on="0"/>
        <pt x="401" y="-20" on="1"/>
        <pt x="301" y="-20" on="0"/>
        <pt x="177" y="27" on="0"/>
        <pt x="143" y="59" on="1"/>
        <pt x="109" y="91" on="0"/>
        <pt x="61" y="189" on="0"/>
        <pt x="61" y="252" on="1"/>
        <pt x="61" y="350" on="0"/>
        <pt x="148" y="474" on="0"/>
        <pt x="291" y="544" on="0"/>
        <pt x="475" y="571" on="0"/>
        <pt x="573" y="573" on="1"/>
        <pt x="570" y="625" on="0"/>
        <pt x="535" y="701" on="0"/>
        <pt x="480" y="754" on="0"/>
        <pt x="408" y="786" on="0"/>
        <pt x="329" y="805" on="0"/>
        <pt x="246" y="812" on="0"/>
        <pt x="207" y="813" on="1"/>
        <pt x="217" y="942" on="1"/>
        <pt x="274" y="942" on="0"/>
        <pt x="389" y="930" on="0"/>
        <pt x="497" y="900" on="0"/>
        <pt x="590" y="849" on="0"/>
        <pt x="624" y="811" on="1"/>
        <pt x="651" y="857" on="0"/>
        <pt x="715" y="909" on="0"/>
        <pt x="782" y="935" on="0"/>
        <pt x="847" y="942" on="0"/>
        <pt x="874" y="942" on="1"/>
        <pt x="899" y="942" on="0"/>
        <pt x="955" y="937" on="0"/>
        <pt x="1012" y="919" on="0"/>
        <pt x="1070" y="883" on="0"/>
        <pt x="1097" y="852" on="1"/>
        <pt x="1128" y="816" on="0"/>
        <pt x="1160" y="731" on="0"/>
        <pt x="1175" y="646" on="0"/>
        <pt x="1177" y="570" on="0"/>
        <pt x="1177" y="543" on="1"/>
        <pt x="1177" y="451" on="1"/>
      </contour>
      <contour>
        <pt x="573" y="451" on="1"/>
        <pt x="540" y="451" on="0"/>
        <pt x="460" y="447" on="0"/>
        <pt x="377" y="434" on="0"/>
        <pt x="298" y="410" on="0"/>
        <pt x="237" y="369" on="0"/>
        <pt x="200" y="308" on="0"/>
        <pt x="200" y="266" on="1"/>
        <pt x="200" y="214" on="0"/>
        <pt x="240" y="150" on="0"/>
        <pt x="302" y="114" on="0"/>
        <pt x="373" y="102" on="0"/>
        <pt x="405" y="102" on="1"/>
        <pt x="456" y="102" on="0"/>
        <pt x="536" y="119" on="0"/>
        <pt x="573" y="133" on="1"/>
      </contour>
      <contour>
        <pt x="1046" y="573" on="1"/>
        <pt x="1046" y="593" on="0"/>
        <pt x="1045" y="641" on="0"/>
        <pt x="1038" y="690" on="0"/>
        <pt x="1024" y="737" on="0"/>
        <pt x="1011" y="756" on="1"/>
        <pt x="1004" y="765" on="0"/>
        <pt x="982" y="787" on="0"/>
        <pt x="949" y="806" on="0"/>
        <pt x="905" y="819" on="0"/>
        <pt x="876" y="819" on="1"/>
        <pt x="847" y="819" on="0"/>
        <pt x="802" y="806" on="0"/>
        <pt x="768" y="787" on="0"/>
        <pt x="745" y="765" on="0"/>
        <pt x="739" y="756" on="1"/>
        <pt x="718" y="726" on="0"/>
        <pt x="704" y="647" on="0"/>
        <pt x="704" y="612" on="1"/>
        <pt x="704" y="573" on="1"/>
      </contour>
    </TTGlyph>
    <TTGlyph name="agrave" xMin="63" yMin="-20" xMax="761" yMax="1341">
      <component glyphName="a" x="0" y="0" flags="0x204"/>
      <component glyphName="grave" x="165" y="0" flags="0x4"/>
    </TTGlyph>
    <TTGlyph name="ampersand" xMin="65" yMin="-20" xMax="909" yMax="1262">
      <contour>
        <pt x="602" y="662" on="1"/>
        <pt x="479" y="662" on="1"/>
        <pt x="414" y="662" on="0"/>
        <pt x="315" y="622" on="0"/>
        <pt x="248" y="549" on="0"/>
        <pt x="213" y="446" on="0"/>
        <pt x="213" y="383" on="1"/>
        <pt x="213" y="321" on="0"/>
        <pt x="250" y="220" on="0"/>
        <pt x="325" y="149" on="0"/>
        <pt x="436" y="111" on="0"/>
        <pt x="510" y="111" on="1"/>
        <pt x="564" y="111" on="0"/>
        <pt x="657" y="134" on="0"/>
        <pt x="692" y="160" on="1"/>
        <pt x="692" y="367" on="1"/>
        <pt x="539" y="367" on="1"/>
        <pt x="539" y="498" on="1"/>
        <pt x="836" y="498" on="1"/>
        <pt x="836" y="225" on="1"/>
        <pt x="909" y="131" on="1"/>
        <pt x="874" y="94" on="0"/>
        <pt x="781" y="38" on="0"/>
        <pt x="677" y="0" on="0"/>
        <pt x="566" y="-20" on="0"/>
        <pt x="514" y="-20" on="1"/>
        <pt x="398" y="-20" on="0"/>
        <pt x="229" y="37" on="0"/>
        <pt x="119" y="143" on="0"/>
        <pt x="65" y="293" on="0"/>
        <pt x="65" y="387" on="1"/>
        <pt x="65" y="450" on="0"/>
        <pt x="90" y="553" on="0"/>
        <pt x="134" y="636" on="0"/>
        <pt x="194" y="699" on="0"/>
        <pt x="229" y="723" on="1"/>
        <pt x="229" y="1130" on="1"/>
        <pt x="188" y="1262" on="1"/>
        <pt x="770" y="1262" on="1"/>
        <pt x="770" y="1130" on="1"/>
        <pt x="373" y="1130" on="1"/>
        <pt x="373" y="780" on="1"/>
        <pt x="399" y="786" on="0"/>
        <pt x="451" y="793" on="0"/>
        <pt x="477" y="793" on="1"/>
        <pt x="602" y="793" on="1"/>
      </contour>
    </TTGlyph>
    <TTGlyph name="aring" xMin="63" yMin="-20" xMax="761" yMax="1362">
      <component glyphName="a" x="0" y="0" flags="0x204"/>
      <component glyphName="ring" x="89" y="0" flags="0x4"/>
    </TTGlyph>
    <TTGlyph name="asciicircum" xMin="-61" yMin="788" xMax="981" yMax="1341">
      <contour>
        <pt x="526" y="1341" on="1"/>
        <pt x="981" y="883" on="1"/>
        <pt x="887" y="788" on="1"/>
        <pt x="461" y="1219" on="1"/>
        <pt x="33" y="788" on="1"/>
        <pt x="-61" y="883" on="1"/>
        <pt x="395" y="1341" on="1"/>
      </contour>
    </TTGlyph>
    <TTGlyph name="asciitilde" xMin="65" yMin="532" xMax="931" yMax="797">
      <contour>
        <pt x="65" y="635" on="1"/>
        <pt x="92" y="666" on="0"/>
        <pt x="146" y="724" on="0"/>
        <pt x="208" y="769" on="0"/>
        <pt x="277" y="797" on="0"/>
        <pt x="319" y="797" on="1"/>
        <pt x="369" y="797" on="0"/>
        <pt x="472" y="757" on="0"/>
        <pt x="568" y="710" on="0"/>
        <pt x="654" y="670" on="0"/>
        <pt x="687" y="670" on="1"/>
        <pt x="718" y="670" on="0"/>
        <pt x="764" y="685" on="0"/>
        <pt x="801" y="711" on="0"/>
        <pt x="834" y="748" on="0"/>
        <pt x="853" y="770" on="1"/>
        <pt x="931" y="678" on="1"/>
        <pt x="904" y="647" on="0"/>
        <pt x="849" y="594" on="0"/>
        <pt x="787" y="555" on="0"/>
        <pt x="716" y="532" on="0"/>
        <pt x="673" y="532" on="1"/>
        <pt x="626" y="532" on="0"/>
        <pt x="533" y="572" on="0"/>
        <pt x="440" y="619" on="0"/>
        <pt x="349" y="659" on="0"/>
        <pt x="304" y="659" on="1"/>
        <pt x="274" y="659" on="0"/>
        <pt x="231" y="644" on="0"/>
        <pt x="195" y="618" on="0"/>
        <pt x="162" y="581" on="0"/>
        <pt x="143" y="559" on="1"/>
      </contour>
    </TTGlyph>
    <TTGlyph name="asterisk" xMin="62" yMin="559" xMax="791" yMax="1262">
      <contour>
        <pt x="62" y="940" on="1"/>
        <pt x="105" y="1081" on="1"/>
        <pt x="363" y="983" on="1"/>
        <pt x="354" y="1262" on="1"/>
        <pt x="500" y="1262" on="1"/>
        <pt x="490" y="985" on="1"/>
        <pt x="748" y="1081" on="1"/>
        <pt x="791" y="940" on="1"/>
        <pt x="522" y="866" on="1"/>
        <pt x="701" y="647" on="1"/>
        <pt x="584" y="559" on="1"/>
        <pt x="426" y="788" on="1"/>
        <pt x="272" y="559" on="1"/>
        <pt x="156" y="647" on="1"/>
        <pt x="328" y="864" on="1"/>
      </contour>
    </TTGlyph>
    <TTGlyph name="at" xMin="121" yMin="-225" xMax="1029" yMax="1262">
      <contour>
        <pt x="560" y="-104" on="1"/>
        <pt x="615" y="-104" on="0"/>
        <pt x="724" y="-84" on="0"/>
        <pt x="775" y="-61" on="1"/>
        <pt x="775" y="-186" on="1"/>
        <pt x="724" y="-206" on="0"/>
        <pt x="612" y="-225" on="0"/>
        <pt x="554" y="-225" on="1"/>
        <pt x="435" y="-225" on="0"/>
        <pt x="271" y="-150" on="0"/>
        <pt x="167" y="-22" on="0"/>
        <pt x="121" y="150" on="0"/>
        <pt x="121" y="248" on="1"/>
        <pt x="121" y="788" on="1"/>
        <pt x="121" y="885" on="0"/>
        <pt x="167" y="1058" on="0"/>
        <pt x="271" y="1187" on="0"/>
        <pt x="435" y="1262" on="0"/>
        <pt x="554" y="1262" on="1"/>
        <pt x="672" y="1262" on="0"/>
        <pt x="834" y="1195" on="0"/>
        <pt x="933" y="1073" on="0"/>
        <pt x="977" y="905" on="0"/>
        <pt x="977" y="805" on="1"/>
        <pt x="977" y="270" on="1"/>
        <pt x="1029" y="178" on="1"/>
        <pt x="972" y="146" on="0"/>
        <pt x="817" y="96" on="0"/>
        <pt x="724" y="96" on="1"/>
        <pt x="631" y="96" on="0"/>
        <pt x="501" y="167" on="0"/>
        <pt x="420" y="284" on="0"/>
        <pt x="384" y="437" on="0"/>
        <pt x="384" y="518" on="1"/>
        <pt x="384" y="599" on="0"/>
        <pt x="425" y="752" on="0"/>
        <pt x="508" y="871" on="0"/>
        <pt x="633" y="942" on="0"/>
        <pt x="717" y="942" on="1"/>
        <pt x="758" y="942" on="0"/>
        <pt x="813" y="930" on="0"/>
        <pt x="842" y="922" on="1"/>
        <pt x="831" y="967" on="0"/>
        <pt x="794" y="1047" on="0"/>
        <pt x="727" y="1106" on="0"/>
        <pt x="624" y="1141" on="0"/>
        <pt x="547" y="1141" on="1"/>
        <pt x="460" y="1141" on="0"/>
        <pt x="347" y="1081" on="0"/>
        <pt x="279" y="983" on="0"/>
        <pt x="252" y="858" on="0"/>
        <pt x="252" y="793" on="1"/>
        <pt x="252" y="252" on="1"/>
        <pt x="252" y="187" on="0"/>
        <pt x="277" y="59" on="0"/>
        <pt x="346" y="-42" on="0"/>
        <pt x="465" y="-104" on="0"/>
      </contour>
      <contour>
        <pt x="844" y="793" on="1"/>
        <pt x="829" y="802" on="0"/>
        <pt x="770" y="819" on="0"/>
        <pt x="728" y="819" on="1"/>
        <pt x="669" y="819" on="0"/>
        <pt x="590" y="763" on="0"/>
        <pt x="543" y="676" on="0"/>
        <pt x="523" y="569" on="0"/>
        <pt x="523" y="518" on="1"/>
        <pt x="523" y="467" on="0"/>
        <pt x="540" y="361" on="0"/>
        <pt x="586" y="274" on="0"/>
        <pt x="666" y="219" on="0"/>
        <pt x="728" y="219" on="1"/>
        <pt x="757" y="219" on="0"/>
        <pt x="821" y="234" on="0"/>
        <pt x="844" y="248" on="1"/>
      </contour>
    </TTGlyph>
    <TTGlyph name="atilde" xMin="63" yMin="-20" xMax="761" yMax="1337">
      <component glyphName="a" x="0" y="0" flags="0x204"/>
      <component glyphName="tilde" x="32" y="0" flags="0x4"/>
    </TTGlyph>
    <TTGlyph name="b" xMin="75" yMin="-20" xMax="808" yMax="1341">
      <contour>
        <pt x="133" y="178" on="1"/>
        <pt x="133" y="1212" on="1"/>
        <pt x="92" y="1341" on="1"/>
        <pt x="264" y="1341" on="1"/>
        <pt x="264" y="918" on="1"/>
        <pt x="307" y="930" on="0"/>
        <pt x="383" y="942" on="0"/>
        <pt x="429" y="942" on="1"/>
        <pt x="524" y="942" on="0"/>
        <pt x="666" y="861" on="0"/>
        <pt x="761" y="727" on="0"/>
        <pt x="808" y="553" on="0"/>
        <pt x="808" y="461" on="1"/>
        <pt x="808" y="369" on="0"/>
        <pt x="767" y="195" on="0"/>
        <pt x="675" y="61" on="0"/>
        <pt x="527" y="-20" on="0"/>
        <pt x="421" y="-20" on="1"/>
        <pt x="369" y="-20" on="0"/>
        <pt x="271" y="-4" on="0"/>
        <pt x="183" y="22" on="0"/>
        <pt x="106" y="56" on="0"/>
        <pt x="75" y="74" on="1"/>
      </contour>
      <contour>
        <pt x="264" y="135" on="1"/>
        <pt x="295" y="120" on="0"/>
        <pt x="375" y="102" on="0"/>
        <pt x="413" y="102" on="1"/>
        <pt x="491" y="102" on="0"/>
        <pt x="592" y="168" on="0"/>
        <pt x="651" y="272" on="0"/>
        <pt x="673" y="399" on="0"/>
        <pt x="673" y="461" on="1"/>
        <pt x="673" y="522" on="0"/>
        <pt x="648" y="650" on="0"/>
        <pt x="587" y="753" on="0"/>
        <pt x="486" y="819" on="0"/>
        <pt x="411" y="819" on="1"/>
        <pt x="360" y="819" on="0"/>
        <pt x="285" y="796" on="0"/>
        <pt x="264" y="786" on="1"/>
      </contour>
    </TTGlyph>
    <TTGlyph name="backslash" xMin="46" yMin="-432" xMax="769" yMax="1282">
      <contour>
        <pt x="769" y="-389" on="1"/>
        <pt x="646" y="-432" on="1"/>
        <pt x="46" y="1239" on="1"/>
        <pt x="169" y="1282" on="1"/>
      </contour>
    </TTGlyph>
    <TTGlyph name="bar" xMin="134" yMin="-432" xMax="265" yMax="1341">
      <contour>
        <pt x="134" y="1341" on="1"/>
        <pt x="265" y="1341" on="1"/>
        <pt x="265" y="-432" on="1"/>
        <pt x="134" y="-432" on="1"/>
      </contour>
    </TTGlyph>
    <TTGlyph name="braceleft" xMin="38" yMin="-301" xMax="468" yMax="1341">
      <contour>
        <pt x="38" y="584" on="1"/>
        <pt x="89" y="595" on="0"/>
        <pt x="146" y="638" on="0"/>
        <pt x="172" y="702" on="0"/>
        <pt x="177" y="788" on="0"/>
        <pt x="177" y="844" on="1"/>
        <pt x="177" y="977" on="1"/>
        <pt x="177" y="1055" on="0"/>
        <pt x="212" y="1172" on="0"/>
        <pt x="275" y="1259" on="0"/>
        <pt x="360" y="1320" on="0"/>
        <pt x="410" y="1341" on="1"/>
        <pt x="468" y="1219" on="1"/>
        <pt x="432" y="1202" on="0"/>
        <pt x="373" y="1161" on="0"/>
        <pt x="331" y="1106" on="0"/>
        <pt x="308" y="1032" on="0"/>
        <pt x="308" y="981" on="1"/>
        <pt x="308" y="844" on="1"/>
        <pt x="308" y="791" on="0"/>
        <pt x="302" y="697" on="0"/>
        <pt x="275" y="616" on="0"/>
        <pt x="222" y="548" on="0"/>
        <pt x="175" y="520" on="1"/>
        <pt x="222" y="492" on="0"/>
        <pt x="275" y="424" on="0"/>
        <pt x="302" y="343" on="0"/>
        <pt x="308" y="250" on="0"/>
        <pt x="308" y="197" on="1"/>
        <pt x="308" y="59" on="1"/>
        <pt x="308" y="8" on="0"/>
        <pt x="331" y="-66" on="0"/>
        <pt x="373" y="-121" on="0"/>
        <pt x="432" y="-161" on="0"/>
        <pt x="468" y="-178" on="1"/>
        <pt x="410" y="-301" on="1"/>
        <pt x="360" y="-280" on="0"/>
        <pt x="275" y="-219" on="0"/>
        <pt x="212" y="-132" on="0"/>
        <pt x="177" y="-14" on="0"/>
        <pt x="177" y="63" on="1"/>
        <pt x="177" y="197" on="1"/>
        <pt x="177" y="252" on="0"/>
        <pt x="172" y="339" on="0"/>
        <pt x="146" y="402" on="0"/>
        <pt x="89" y="445" on="0"/>
        <pt x="38" y="457" on="1"/>
      </contour>
    </TTGlyph>
    <TTGlyph name="braceright" xMin="46" yMin="-301" xMax="476" yMax="1341">
      <contour>
        <pt x="476" y="457" on="1"/>
        <pt x="425" y="445" on="0"/>
        <pt x="368" y="402" on="0"/>
        <pt x="341" y="338" on="0"/>
        <pt x="336" y="252" on="0"/>
        <pt x="336" y="197" on="1"/>
        <pt x="336" y="63" on="1"/>
        <pt x="336" y="-14" on="0"/>
        <pt x="301" y="-132" on="0"/>
        <pt x="238" y="-219" on="0"/>
        <pt x="153" y="-280" on="0"/>
        <pt x="103" y="-301" on="1"/>
        <pt x="46" y="-178" on="1"/>
        <pt x="82" y="-161" on="0"/>
        <pt x="141" y="-121" on="0"/>
        <pt x="182" y="-66" on="0"/>
        <pt x="205" y="8" on="0"/>
        <pt x="205" y="59" on="1"/>
        <pt x="205" y="197" on="1"/>
        <pt x="205" y="250" on="0"/>
        <pt x="211" y="343" on="0"/>
        <pt x="238" y="424" on="0"/>
        <pt x="291" y="492" on="0"/>
        <pt x="338" y="520" on="1"/>
        <pt x="291" y="548" on="0"/>
        <pt x="238" y="616" on="0"/>
        <pt x="211" y="697" on="0"/>
        <pt x="205" y="791" on="0"/>
        <pt x="205" y="844" on="1"/>
        <pt x="205" y="981" on="1"/>
        <pt x="205" y="1032" on="0"/>
        <pt x="182" y="1106" on="0"/>
        <pt x="141" y="1161" on="0"/>
        <pt x="82" y="1202" on="0"/>
        <pt x="46" y="1219" on="1"/>
        <pt x="103" y="1341" on="1"/>
        <pt x="153" y="1320" on="0"/>
        <pt x="238" y="1259" on="0"/>
        <pt x="301" y="1172" on="0"/>
        <pt x="336" y="1055" on="0"/>
        <pt x="336" y="977" on="1"/>
        <pt x="336" y="844" on="1"/>
        <pt x="336" y="789" on="0"/>
        <pt x="341" y="702" on="0"/>
        <pt x="368" y="637" on="0"/>
        <pt x="424" y="595" on="0"/>
        <pt x="476" y="584" on="1"/>
      </contour>
    </TTGlyph>
    <TTGlyph name="bracketleft" xMin="132" yMin="-301" xMax="638" yMax="1341">
      <contour>
        <pt x="132" y="1341" on="1"/>
        <pt x="638" y="1341" on="1"/>
        <pt x="638" y="1214" on="1"/>
        <pt x="263" y="1214" on="1"/>
        <pt x="263" y="-174" on="1"/>
        <pt x="638" y="-174" on="1"/>
        <pt x="638" y="-301" on="1"/>
        <pt x="132" y="-301" on="1"/>
      </contour>
    </TTGlyph>
    <TTGlyph name="bracketright" xMin="49" yMin="-301" xMax="555" yMax="1341">
      <contour>
        <pt x="555" y="-301" on="1"/>
        <pt x="49" y="-301" on="1"/>
        <pt x="49" y="-174" on="1"/>
        <pt x="423" y="-174" on="1"/>
        <pt x="423" y="1214" on="1"/>
        <pt x="49" y="1214" on="1"/>
        <pt x="49" y="1341" on="1"/>
        <pt x="555" y="1341" on="1"/>
      </contour>
    </TTGlyph>
    <TTGlyph name="brokenbar" xMin="136" yMin="-432" xMax="267" yMax="1341">
      <contour>
        <pt x="136" y="246" on="1"/>
        <pt x="267" y="246" on="1"/>
        <pt x="267" y="-432" on="1"/>
        <pt x="136" y="-432" on="1"/>
      </contour>
      <contour>
        <pt x="267" y="662" on="1"/>
        <pt x="136" y="662" on="1"/>
        <pt x="136" y="1341" on="1"/>
        <pt x="267" y="1341" on="1"/>
      </contour>
    </TTGlyph>
    <TTGlyph name="bullet" xMin="113" yMin="532" xMax="523" yMax="942">
      <contour>
        <pt x="523" y="942" on="1"/>
        <pt x="523" y="532" on="1"/>
        <pt x="113" y="532" on="1"/>
        <pt x="113" y="942" on="1"/>
      </contour>
    </TTGlyph>
    <TTGlyph name="c" xMin="44" yMin="-20" xMax="667" yMax="942">
      <contour>
        <pt x="622" y="795" on="1"/>
        <pt x="583" y="806" on="0"/>
        <pt x="495" y="819" on="0"/>
        <pt x="458" y="819" on="1"/>
        <pt x="421" y="819" on="0"/>
        <pt x="365" y="805" on="0"/>
        <pt x="324" y="784" on="0"/>
        <pt x="297" y="760" on="0"/>
        <pt x="290" y="750" on="1"/>
        <pt x="273" y="728" on="0"/>
        <pt x="255" y="674" on="0"/>
        <pt x="246" y="619" on="0"/>
        <pt x="245" y="565" on="0"/>
        <pt x="245" y="543" on="1"/>
        <pt x="245" y="156" on="1"/>
        <pt x="296" y="128" on="0"/>
        <pt x="398" y="102" on="0"/>
        <pt x="458" y="102" on="1"/>
        <pt x="515" y="102" on="0"/>
        <pt x="616" y="123" on="0"/>
        <pt x="667" y="147" on="1"/>
        <pt x="667" y="18" on="1"/>
        <pt x="616" y="-2" on="0"/>
        <pt x="516" y="-20" on="0"/>
        <pt x="456" y="-20" on="1"/>
        <pt x="377" y="-20" on="0"/>
        <pt x="248" y="9" on="0"/>
        <pt x="146" y="52" on="0"/>
        <pt x="70" y="103" on="0"/>
        <pt x="44" y="125" on="1"/>
        <pt x="114" y="209" on="1"/>
        <pt x="114" y="543" on="1"/>
        <pt x="114" y="571" on="0"/>
        <pt x="115" y="647" on="0"/>
        <pt x="130" y="730" on="0"/>
        <pt x="167" y="815" on="0"/>
        <pt x="202" y="852" on="1"/>
        <pt x="232" y="883" on="0"/>
        <pt x="299" y="919" on="0"/>
        <pt x="368" y="937" on="0"/>
        <pt x="434" y="942" on="0"/>
        <pt x="462" y="942" on="1"/>
        <pt x="516" y="942" on="0"/>
        <pt x="611" y="926" on="0"/>
        <pt x="656" y="913" on="1"/>
      </contour>
    </TTGlyph>
    <TTGlyph name="caron" xMin="82" yMin="1034" xMax="639" yMax="1341">
      <contour>
        <pt x="295" y="1034" on="1"/>
        <pt x="82" y="1247" on="1"/>
        <pt x="176" y="1341" on="1"/>
        <pt x="360" y="1155" on="1"/>
        <pt x="545" y="1341" on="1"/>
        <pt x="639" y="1247" on="1"/>
        <pt x="426" y="1034" on="1"/>
      </contour>
    </TTGlyph>
    <TTGlyph name="ccedilla" xMin="42" yMin="-354" xMax="665" yMax="942">
      <contour>
        <pt x="298" y="-158" on="1"/>
        <pt x="298" y="-2" on="1"/>
        <pt x="252" y="8" on="0"/>
        <pt x="174" y="38" on="0"/>
        <pt x="110" y="73" on="0"/>
        <pt x="60" y="109" on="0"/>
        <pt x="42" y="125" on="1"/>
        <pt x="112" y="209" on="1"/>
        <pt x="112" y="543" on="1"/>
        <pt x="112" y="571" on="0"/>
        <pt x="113" y="647" on="0"/>
        <pt x="128" y="730" on="0"/>
        <pt x="165" y="815" on="0"/>
        <pt x="200" y="852" on="1"/>
        <pt x="230" y="883" on="0"/>
        <pt x="297" y="919" on="0"/>
        <pt x="366" y="937" on="0"/>
        <pt x="432" y="942" on="0"/>
        <pt x="460" y="942" on="1"/>
        <pt x="514" y="942" on="0"/>
        <pt x="609" y="926" on="0"/>
        <pt x="654" y="913" on="1"/>
        <pt x="620" y="795" on="1"/>
        <pt x="581" y="806" on="0"/>
        <pt x="493" y="819" on="0"/>
        <pt x="456" y="819" on="1"/>
        <pt x="419" y="819" on="0"/>
        <pt x="363" y="805" on="0"/>
        <pt x="322" y="784" on="0"/>
        <pt x="295" y="760" on="0"/>
        <pt x="288" y="750" on="1"/>
        <pt x="271" y="728" on="0"/>
        <pt x="253" y="674" on="0"/>
        <pt x="244" y="619" on="0"/>
        <pt x="243" y="565" on="0"/>
        <pt x="243" y="543" on="1"/>
        <pt x="243" y="156" on="1"/>
        <pt x="294" y="128" on="0"/>
        <pt x="396" y="102" on="0"/>
        <pt x="456" y="102" on="1"/>
        <pt x="513" y="102" on="0"/>
        <pt x="614" y="123" on="0"/>
        <pt x="665" y="147" on="1"/>
        <pt x="665" y="18" on="1"/>
        <pt x="614" y="-2" on="0"/>
        <pt x="514" y="-20" on="0"/>
        <pt x="454" y="-20" on="1"/>
        <pt x="444" y="-20" on="0"/>
        <pt x="429" y="-18" on="0"/>
        <pt x="421" y="-18" on="1"/>
        <pt x="421" y="-61" on="1"/>
        <pt x="429" y="-61" on="1"/>
        <pt x="514" y="-61" on="0"/>
        <pt x="609" y="-132" on="0"/>
        <pt x="609" y="-207" on="1"/>
        <pt x="609" y="-248" on="0"/>
        <pt x="575" y="-305" on="0"/>
        <pt x="519" y="-339" on="0"/>
        <pt x="447" y="-354" on="0"/>
        <pt x="409" y="-354" on="1"/>
        <pt x="349" y="-354" on="0"/>
        <pt x="248" y="-332" on="0"/>
        <pt x="210" y="-315" on="1"/>
        <pt x="210" y="-205" on="1"/>
        <pt x="261" y="-226" on="0"/>
        <pt x="361" y="-254" on="0"/>
        <pt x="409" y="-254" on="1"/>
        <pt x="438" y="-254" on="0"/>
        <pt x="484" y="-235" on="0"/>
        <pt x="484" y="-207" on="1"/>
        <pt x="484" y="-181" on="0"/>
        <pt x="445" y="-158" on="0"/>
        <pt x="405" y="-158" on="1"/>
      </contour>
    </TTGlyph>
    <TTGlyph name="cedilla" xMin="82" yMin="-354" xMax="481" yMax="0">
      <contour>
        <pt x="170" y="-158" on="1"/>
        <pt x="170" y="0" on="1"/>
        <pt x="293" y="0" on="1"/>
        <pt x="293" y="-61" on="1"/>
        <pt x="301" y="-61" on="1"/>
        <pt x="386" y="-61" on="0"/>
        <pt x="481" y="-132" on="0"/>
        <pt x="481" y="-207" on="1"/>
        <pt x="481" y="-248" on="0"/>
        <pt x="447" y="-305" on="0"/>
        <pt x="391" y="-339" on="0"/>
        <pt x="319" y="-354" on="0"/>
        <pt x="281" y="-354" on="1"/>
        <pt x="221" y="-354" on="0"/>
        <pt x="120" y="-332" on="0"/>
        <pt x="82" y="-315" on="1"/>
        <pt x="82" y="-205" on="1"/>
        <pt x="133" y="-226" on="0"/>
        <pt x="233" y="-254" on="0"/>
        <pt x="281" y="-254" on="1"/>
        <pt x="295" y="-254" on="0"/>
        <pt x="322" y="-250" on="0"/>
        <pt x="343" y="-239" on="0"/>
        <pt x="356" y="-221" on="0"/>
        <pt x="356" y="-207" on="1"/>
        <pt x="356" y="-181" on="0"/>
        <pt x="318" y="-158" on="0"/>
        <pt x="276" y="-158" on="1"/>
      </contour>
    </TTGlyph>
    <TTGlyph name="cent" xMin="59" yMin="-209" xMax="682" yMax="1108">
      <contour>
        <pt x="383" y="-209" on="1"/>
        <pt x="383" y="-14" on="1"/>
        <pt x="323" y="-7" on="0"/>
        <pt x="224" y="24" on="0"/>
        <pt x="143" y="63" on="0"/>
        <pt x="81" y="106" on="0"/>
        <pt x="59" y="125" on="1"/>
        <pt x="129" y="209" on="1"/>
        <pt x="129" y="543" on="1"/>
        <pt x="129" y="571" on="0"/>
        <pt x="130" y="647" on="0"/>
        <pt x="145" y="730" on="0"/>
        <pt x="182" y="815" on="0"/>
        <pt x="217" y="852" on="1"/>
        <pt x="254" y="890" on="0"/>
        <pt x="338" y="928" on="0"/>
        <pt x="383" y="934" on="1"/>
        <pt x="383" y="1108" on="1"/>
        <pt x="514" y="1108" on="1"/>
        <pt x="514" y="940" on="1"/>
        <pt x="557" y="938" on="0"/>
        <pt x="634" y="923" on="0"/>
        <pt x="671" y="913" on="1"/>
        <pt x="637" y="795" on="1"/>
        <pt x="598" y="806" on="0"/>
        <pt x="510" y="819" on="0"/>
        <pt x="473" y="819" on="1"/>
        <pt x="436" y="819" on="0"/>
        <pt x="380" y="805" on="0"/>
        <pt x="339" y="784" on="0"/>
        <pt x="312" y="760" on="0"/>
        <pt x="305" y="750" on="1"/>
        <pt x="288" y="728" on="0"/>
        <pt x="270" y="674" on="0"/>
        <pt x="261" y="619" on="0"/>
        <pt x="260" y="565" on="0"/>
        <pt x="260" y="543" on="1"/>
        <pt x="260" y="156" on="1"/>
        <pt x="311" y="128" on="0"/>
        <pt x="413" y="102" on="0"/>
        <pt x="473" y="102" on="1"/>
        <pt x="530" y="102" on="0"/>
        <pt x="631" y="123" on="0"/>
        <pt x="682" y="147" on="1"/>
        <pt x="682" y="18" on="1"/>
        <pt x="601" y="-12" on="0"/>
        <pt x="514" y="-18" on="1"/>
        <pt x="514" y="-209" on="1"/>
      </contour>
    </TTGlyph>
    <TTGlyph name="circumflex" xMin="82" yMin="1034" xMax="639" yMax="1341">
      <contour>
        <pt x="426" y="1341" on="1"/>
        <pt x="639" y="1128" on="1"/>
        <pt x="545" y="1034" on="1"/>
        <pt x="360" y="1219" on="1"/>
        <pt x="176" y="1034" on="1"/>
        <pt x="82" y="1128" on="1"/>
        <pt x="295" y="1341" on="1"/>
      </contour>
    </TTGlyph>
    <TTGlyph name="colon" xMin="118" yMin="0" xMax="290" yMax="922">
      <contour>
        <pt x="290" y="172" on="1"/>
        <pt x="290" y="0" on="1"/>
        <pt x="118" y="0" on="1"/>
        <pt x="118" y="172" on="1"/>
      </contour>
      <contour>
        <pt x="290" y="922" on="1"/>
        <pt x="290" y="750" on="1"/>
        <pt x="118" y="750" on="1"/>
        <pt x="118" y="922" on="1"/>
      </contour>
    </TTGlyph>
    <TTGlyph name="comma" xMin="67" yMin="-209" xMax="259" yMax="172">
      <contour>
        <pt x="259" y="172" on="1"/>
        <pt x="259" y="0" on="1"/>
        <pt x="259" y="-78" on="0"/>
        <pt x="182" y="-180" on="0"/>
        <pt x="114" y="-209" on="1"/>
        <pt x="67" y="-123" on="1"/>
        <pt x="80" y="-117" on="0"/>
        <pt x="112" y="-99" on="0"/>
        <pt x="140" y="-73" on="0"/>
        <pt x="158" y="-37" on="0"/>
        <pt x="158" y="-13" on="1"/>
        <pt x="158" y="-10" on="0"/>
        <pt x="157" y="-3" on="0"/>
        <pt x="157" y="0" on="1"/>
        <pt x="73" y="172" on="1"/>
      </contour>
    </TTGlyph>
    <TTGlyph name="copyright" xMin="135" yMin="-20" xMax="1110" yMax="1282">
      <contour>
        <pt x="798" y="897" on="1"/>
        <pt x="767" y="906" on="0"/>
        <pt x="694" y="918" on="0"/>
        <pt x="665" y="918" on="1"/>
        <pt x="635" y="918" on="0"/>
        <pt x="589" y="906" on="0"/>
        <pt x="556" y="889" on="0"/>
        <pt x="534" y="869" on="0"/>
        <pt x="528" y="860" on="1"/>
        <pt x="508" y="833" on="0"/>
        <pt x="493" y="767" on="0"/>
        <pt x="491" y="732" on="1"/>
        <pt x="491" y="377" on="1"/>
        <pt x="533" y="354" on="0"/>
        <pt x="616" y="334" on="0"/>
        <pt x="665" y="334" on="1"/>
        <pt x="713" y="334" on="0"/>
        <pt x="793" y="351" on="0"/>
        <pt x="835" y="371" on="1"/>
        <pt x="835" y="264" on="1"/>
        <pt x="795" y="249" on="0"/>
        <pt x="711" y="233" on="0"/>
        <pt x="663" y="233" on="1"/>
        <pt x="598" y="233" on="0"/>
        <pt x="493" y="256" on="0"/>
        <pt x="411" y="292" on="0"/>
        <pt x="349" y="334" on="0"/>
        <pt x="327" y="352" on="1"/>
        <pt x="385" y="420" on="1"/>
        <pt x="385" y="745" on="1"/>
        <pt x="386" y="769" on="0"/>
        <pt x="393" y="821" on="0"/>
        <pt x="408" y="873" on="0"/>
        <pt x="435" y="923" on="0"/>
        <pt x="456" y="944" on="1"/>
        <pt x="481" y="969" on="0"/>
        <pt x="536" y="999" on="0"/>
        <pt x="591" y="1014" on="0"/>
        <pt x="644" y="1018" on="0"/>
        <pt x="667" y="1018" on="1"/>
        <pt x="712" y="1018" on="0"/>
        <pt x="790" y="1005" on="0"/>
        <pt x="827" y="995" on="1"/>
      </contour>
      <contour>
        <pt x="1110" y="127" on="1"/>
        <pt x="1080" y="106" on="0"/>
        <pt x="986" y="54" on="0"/>
        <pt x="863" y="10" on="0"/>
        <pt x="711" y="-20" on="0"/>
        <pt x="622" y="-20" on="1"/>
        <pt x="533" y="-20" on="0"/>
        <pt x="382" y="10" on="0"/>
        <pt x="259" y="54" on="0"/>
        <pt x="165" y="106" on="0"/>
        <pt x="135" y="127" on="1"/>
        <pt x="135" y="1135" on="1"/>
        <pt x="165" y="1156" on="0"/>
        <pt x="259" y="1208" on="0"/>
        <pt x="382" y="1252" on="0"/>
        <pt x="533" y="1282" on="0"/>
        <pt x="622" y="1282" on="1"/>
        <pt x="711" y="1282" on="0"/>
        <pt x="863" y="1252" on="0"/>
        <pt x="986" y="1208" on="0"/>
        <pt x="1080" y="1156" on="0"/>
        <pt x="1110" y="1135" on="1"/>
      </contour>
      <contour>
        <pt x="1013" y="1083" on="1"/>
        <pt x="941" y="1134" on="0"/>
        <pt x="736" y="1190" on="0"/>
        <pt x="618" y="1190" on="1"/>
        <pt x="503" y="1190" on="0"/>
        <pt x="295" y="1133" on="0"/>
        <pt x="223" y="1083" on="1"/>
        <pt x="223" y="178" on="1"/>
        <pt x="259" y="153" on="0"/>
        <pt x="348" y="113" on="0"/>
        <pt x="450" y="86" on="0"/>
        <pt x="561" y="72" on="0"/>
        <pt x="618" y="72" on="1"/>
        <pt x="736" y="72" on="0"/>
        <pt x="941" y="127" on="0"/>
        <pt x="1013" y="178" on="1"/>
      </contour>
    </TTGlyph>
    <TTGlyph name="currency" xMin="83" yMin="254" xMax="1103" yMax="1270">
      <contour>
        <pt x="980" y="762" on="1"/>
        <pt x="980" y="639" on="0"/>
        <pt x="911" y="539" on="1"/>
        <pt x="1103" y="346" on="1"/>
        <pt x="1011" y="254" on="1"/>
        <pt x="820" y="444" on="1"/>
        <pt x="769" y="407" on="0"/>
        <pt x="656" y="373" on="0"/>
        <pt x="593" y="373" on="1"/>
        <pt x="530" y="373" on="0"/>
        <pt x="417" y="407" on="0"/>
        <pt x="366" y="444" on="1"/>
        <pt x="175" y="254" on="1"/>
        <pt x="83" y="346" on="1"/>
        <pt x="276" y="539" on="1"/>
        <pt x="241" y="590" on="0"/>
        <pt x="204" y="699" on="0"/>
        <pt x="204" y="762" on="1"/>
        <pt x="204" y="825" on="0"/>
        <pt x="241" y="934" on="0"/>
        <pt x="276" y="985" on="1"/>
        <pt x="83" y="1178" on="1"/>
        <pt x="175" y="1270" on="1"/>
        <pt x="366" y="1079" on="1"/>
        <pt x="466" y="1151" on="0"/>
        <pt x="593" y="1151" on="1"/>
        <pt x="720" y="1151" on="0"/>
        <pt x="820" y="1079" on="1"/>
        <pt x="1011" y="1270" on="1"/>
        <pt x="1103" y="1178" on="1"/>
        <pt x="911" y="985" on="1"/>
        <pt x="980" y="885" on="0"/>
      </contour>
      <contour>
        <pt x="333" y="762" on="1"/>
        <pt x="333" y="709" on="0"/>
        <pt x="374" y="615" on="0"/>
        <pt x="445" y="544" on="0"/>
        <pt x="539" y="502" on="0"/>
        <pt x="593" y="502" on="1"/>
        <pt x="646" y="502" on="0"/>
        <pt x="740" y="544" on="0"/>
        <pt x="810" y="615" on="0"/>
        <pt x="851" y="709" on="0"/>
        <pt x="851" y="762" on="1"/>
        <pt x="851" y="816" on="0"/>
        <pt x="811" y="910" on="0"/>
        <pt x="741" y="980" on="0"/>
        <pt x="647" y="1020" on="0"/>
        <pt x="593" y="1020" on="1"/>
        <pt x="539" y="1020" on="0"/>
        <pt x="445" y="979" on="0"/>
        <pt x="374" y="909" on="0"/>
        <pt x="333" y="815" on="0"/>
      </contour>
    </TTGlyph>
    <TTGlyph name="d" xMin="91" yMin="-20" xMax="824" yMax="1341">
      <contour>
        <pt x="824" y="74" on="1"/>
        <pt x="761" y="37" on="0"/>
        <pt x="584" y="-20" on="0"/>
        <pt x="478" y="-20" on="1"/>
        <pt x="372" y="-20" on="0"/>
        <pt x="225" y="61" on="0"/>
        <pt x="133" y="195" on="0"/>
        <pt x="91" y="369" on="0"/>
        <pt x="91" y="461" on="1"/>
        <pt x="91" y="553" on="0"/>
        <pt x="138" y="727" on="0"/>
        <pt x="232" y="861" on="0"/>
        <pt x="375" y="942" on="0"/>
        <pt x="470" y="942" on="1"/>
        <pt x="518" y="942" on="0"/>
        <pt x="593" y="930" on="0"/>
        <pt x="636" y="918" on="1"/>
        <pt x="636" y="1212" on="1"/>
        <pt x="595" y="1341" on="1"/>
        <pt x="767" y="1341" on="1"/>
        <pt x="767" y="178" on="1"/>
      </contour>
      <contour>
        <pt x="636" y="786" on="1"/>
        <pt x="614" y="796" on="0"/>
        <pt x="540" y="819" on="0"/>
        <pt x="489" y="819" on="1"/>
        <pt x="414" y="819" on="0"/>
        <pt x="313" y="753" on="0"/>
        <pt x="252" y="650" on="0"/>
        <pt x="226" y="522" on="0"/>
        <pt x="226" y="461" on="1"/>
        <pt x="226" y="399" on="0"/>
        <pt x="249" y="272" on="0"/>
        <pt x="307" y="168" on="0"/>
        <pt x="408" y="102" on="0"/>
        <pt x="486" y="102" on="1"/>
        <pt x="525" y="102" on="0"/>
        <pt x="605" y="120" on="0"/>
        <pt x="636" y="135" on="1"/>
      </contour>
    </TTGlyph>
    <TTGlyph name="degree" xMin="75" yMin="963" xMax="454" yMax="1341">
      <contour>
        <pt x="454" y="1151" on="1"/>
        <pt x="454" y="1113" on="0"/>
        <pt x="434" y="1044" on="0"/>
        <pt x="389" y="993" on="0"/>
        <pt x="316" y="963" on="0"/>
        <pt x="263" y="963" on="1"/>
        <pt x="176" y="963" on="0"/>
        <pt x="75" y="1057" on="0"/>
        <pt x="75" y="1151" on="1"/>
        <pt x="75" y="1191" on="0"/>
        <pt x="94" y="1260" on="0"/>
        <pt x="137" y="1311" on="0"/>
        <pt x="209" y="1341" on="0"/>
        <pt x="263" y="1341" on="1"/>
        <pt x="357" y="1341" on="0"/>
        <pt x="454" y="1248" on="0"/>
      </contour>
      <contour>
        <pt x="186" y="1153" on="1"/>
        <pt x="186" y="1119" on="0"/>
        <pt x="219" y="1077" on="0"/>
        <pt x="261" y="1077" on="1"/>
        <pt x="303" y="1077" on="0"/>
        <pt x="337" y="1119" on="0"/>
        <pt x="337" y="1153" on="1"/>
        <pt x="337" y="1185" on="0"/>
        <pt x="303" y="1229" on="0"/>
        <pt x="261" y="1229" on="1"/>
        <pt x="219" y="1229" on="0"/>
        <pt x="186" y="1185" on="0"/>
      </contour>
    </TTGlyph>
    <TTGlyph name="dieresis" xMin="82" yMin="1108" xMax="500" yMax="1262">
      <contour>
        <pt x="229" y="1262" on="1"/>
        <pt x="229" y="1108" on="1"/>
        <pt x="82" y="1108" on="1"/>
        <pt x="82" y="1262" on="1"/>
      </contour>
      <contour>
        <pt x="500" y="1262" on="1"/>
        <pt x="500" y="1108" on="1"/>
        <pt x="352" y="1108" on="1"/>
        <pt x="352" y="1262" on="1"/>
      </contour>
    </TTGlyph>
    <TTGlyph name="divide" xMin="87" yMin="350" xMax="781" yMax="1104">
      <contour>
        <pt x="87" y="793" on="1"/>
        <pt x="781" y="793" on="1"/>
        <pt x="781" y="662" on="1"/>
        <pt x="87" y="662" on="1"/>
      </contour>
      <contour>
        <pt x="521" y="522" on="1"/>
        <pt x="521" y="350" on="1"/>
        <pt x="349" y="350" on="1"/>
        <pt x="349" y="522" on="1"/>
      </contour>
      <contour>
        <pt x="521" y="1104" on="1"/>
        <pt x="521" y="932" on="1"/>
        <pt x="349" y="932" on="1"/>
        <pt x="349" y="1104" on="1"/>
      </contour>
    </TTGlyph>
    <TTGlyph name="dollar" xMin="75" yMin="-233" xMax="773" yMax="1462">
      <contour>
        <pt x="343" y="-233" on="1"/>
        <pt x="343" y="-20" on="1"/>
        <pt x="317" y="-19" on="0"/>
        <pt x="251" y="-11" on="0"/>
        <pt x="180" y="5" on="0"/>
        <pt x="108" y="30" on="0"/>
        <pt x="75" y="49" on="1"/>
        <pt x="134" y="178" on="1"/>
        <pt x="194" y="143" on="0"/>
        <pt x="321" y="111" on="0"/>
        <pt x="378" y="111" on="1"/>
        <pt x="438" y="111" on="0"/>
        <pt x="529" y="140" on="0"/>
        <pt x="571" y="166" on="1"/>
        <pt x="571" y="307" on="1"/>
        <pt x="571" y="350" on="0"/>
        <pt x="524" y="427" on="0"/>
        <pt x="454" y="494" on="0"/>
        <pt x="373" y="554" on="0"/>
        <pt x="339" y="580" on="1"/>
        <pt x="290" y="617" on="0"/>
        <pt x="200" y="695" on="0"/>
        <pt x="131" y="787" on="0"/>
        <pt x="89" y="895" on="0"/>
        <pt x="89" y="963" on="1"/>
        <pt x="89" y="1028" on="0"/>
        <pt x="125" y="1133" on="0"/>
        <pt x="191" y="1211" on="0"/>
        <pt x="285" y="1262" on="0"/>
        <pt x="343" y="1274" on="1"/>
        <pt x="343" y="1462" on="1"/>
        <pt x="483" y="1462" on="1"/>
        <pt x="483" y="1280" on="1"/>
        <pt x="546" y="1277" on="0"/>
        <pt x="647" y="1249" on="0"/>
        <pt x="698" y="1223" on="1"/>
        <pt x="636" y="1102" on="1"/>
        <pt x="579" y="1128" on="0"/>
        <pt x="483" y="1151" on="0"/>
        <pt x="440" y="1151" on="1"/>
        <pt x="394" y="1151" on="0"/>
        <pt x="318" y="1125" on="0"/>
        <pt x="263" y="1077" on="0"/>
        <pt x="233" y="1009" on="0"/>
        <pt x="233" y="967" on="1"/>
        <pt x="233" y="920" on="0"/>
        <pt x="267" y="844" on="0"/>
        <pt x="321" y="778" on="0"/>
        <pt x="391" y="721" on="0"/>
        <pt x="427" y="694" on="1"/>
        <pt x="499" y="640" on="0"/>
        <pt x="606" y="550" on="0"/>
        <pt x="678" y="464" on="0"/>
        <pt x="714" y="375" on="0"/>
        <pt x="714" y="324" on="1"/>
        <pt x="714" y="236" on="1"/>
        <pt x="773" y="123" on="1"/>
        <pt x="707" y="69" on="0"/>
        <pt x="564" y="2" on="0"/>
        <pt x="483" y="-12" on="1"/>
        <pt x="483" y="-233" on="1"/>
      </contour>
    </TTGlyph>
    <TTGlyph name="dotlessi" xMin="87" yMin="0" xMax="259" yMax="922">
      <contour>
        <pt x="259" y="922" on="1"/>
        <pt x="259" y="0" on="1"/>
        <pt x="128" y="0" on="1"/>
        <pt x="128" y="793" on="1"/>
        <pt x="87" y="922" on="1"/>
      </contour>
    </TTGlyph>
    <TTGlyph name="e" xMin="44" yMin="-20" xMax="746" yMax="942">
      <contour>
        <pt x="603" y="547" on="1"/>
        <pt x="603" y="569" on="0"/>
        <pt x="602" y="622" on="0"/>
        <pt x="595" y="676" on="0"/>
        <pt x="580" y="729" on="0"/>
        <pt x="566" y="750" on="1"/>
        <pt x="559" y="760" on="0"/>
        <pt x="536" y="784" on="0"/>
        <pt x="502" y="805" on="0"/>
        <pt x="454" y="819" on="0"/>
        <pt x="423" y="819" on="1"/>
        <pt x="393" y="819" on="0"/>
        <pt x="346" y="805" on="0"/>
        <pt x="311" y="784" on="0"/>
        <pt x="288" y="760" on="0"/>
        <pt x="281" y="750" on="1"/>
        <pt x="267" y="728" on="0"/>
        <pt x="252" y="676" on="0"/>
        <pt x="246" y="621" on="0"/>
        <pt x="245" y="569" on="0"/>
        <pt x="245" y="547" on="1"/>
      </contour>
      <contour>
        <pt x="245" y="424" on="1"/>
        <pt x="245" y="156" on="1"/>
        <pt x="293" y="124" on="0"/>
        <pt x="403" y="102" on="0"/>
        <pt x="451" y="102" on="1"/>
        <pt x="539" y="102" on="0"/>
        <pt x="680" y="141" on="0"/>
        <pt x="746" y="186" on="1"/>
        <pt x="746" y="49" on="1"/>
        <pt x="683" y="12" on="0"/>
        <pt x="539" y="-20" on="0"/>
        <pt x="454" y="-20" on="1"/>
        <pt x="323" y="-20" on="0"/>
        <pt x="125" y="53" on="0"/>
        <pt x="44" y="125" on="1"/>
        <pt x="114" y="209" on="1"/>
        <pt x="114" y="543" on="1"/>
        <pt x="114" y="578" on="1"/>
        <pt x="114" y="607" on="0"/>
        <pt x="118" y="676" on="0"/>
        <pt x="133" y="749" on="0"/>
        <pt x="165" y="820" on="0"/>
        <pt x="193" y="852" on="1"/>
        <pt x="221" y="883" on="0"/>
        <pt x="282" y="919" on="0"/>
        <pt x="344" y="937" on="0"/>
        <pt x="403" y="942" on="0"/>
        <pt x="429" y="942" on="1"/>
        <pt x="454" y="942" on="0"/>
        <pt x="514" y="937" on="0"/>
        <pt x="576" y="919" on="0"/>
        <pt x="637" y="883" on="0"/>
        <pt x="664" y="852" on="1"/>
        <pt x="696" y="815" on="0"/>
        <pt x="730" y="730" on="0"/>
        <pt x="745" y="647" on="0"/>
        <pt x="746" y="571" on="0"/>
        <pt x="746" y="543" on="1"/>
        <pt x="746" y="424" on="1"/>
      </contour>
    </TTGlyph>
    <TTGlyph name="eacute" xMin="44" yMin="-20" xMax="746" yMax="1341">
      <component glyphName="e" x="0" y="0" flags="0x204"/>
      <component glyphName="acute" x="207" y="0" flags="0x4"/>
    </TTGlyph>
    <TTGlyph name="ecircumflex" xMin="44" yMin="-20" xMax="746" yMax="1341">
      <component glyphName="e" x="0" y="0" flags="0x204"/>
      <component glyphName="circumflex" x="62" y="0" flags="0x4"/>
    </TTGlyph>
    <TTGlyph name="edieresis" xMin="44" yMin="-20" xMax="746" yMax="1262">
      <component glyphName="e" x="0" y="0" flags="0x204"/>
      <component glyphName="dieresis" x="143" y="0" flags="0x4"/>
    </TTGlyph>
    <TTGlyph name="egrave" xMin="44" yMin="-20" xMax="746" yMax="1341">
      <component glyphName="e" x="0" y="0" flags="0x204"/>
      <component glyphName="grave" x="184" y="0" flags="0x4"/>
    </TTGlyph>
    <TTGlyph name="eight" xMin="102" yMin="-20" xMax="866" yMax="1282">
      <contour>
        <pt x="442" y="786" on="1"/>
        <pt x="454" y="793" on="0"/>
        <pt x="482" y="814" on="0"/>
        <pt x="511" y="838" on="0"/>
        <pt x="538" y="863" on="0"/>
        <pt x="548" y="874" on="1"/>
        <pt x="574" y="903" on="0"/>
        <pt x="596" y="975" on="0"/>
        <pt x="596" y="1010" on="1"/>
        <pt x="596" y="1042" on="0"/>
        <pt x="573" y="1094" on="0"/>
        <pt x="531" y="1131" on="0"/>
        <pt x="475" y="1151" on="0"/>
        <pt x="442" y="1151" on="1"/>
        <pt x="413" y="1151" on="0"/>
        <pt x="358" y="1132" on="0"/>
        <pt x="316" y="1095" on="0"/>
        <pt x="290" y="1043" on="0"/>
        <pt x="290" y="1010" on="1"/>
        <pt x="290" y="975" on="0"/>
        <pt x="312" y="903" on="0"/>
        <pt x="335" y="874" on="1"/>
        <pt x="345" y="863" on="0"/>
        <pt x="373" y="838" on="0"/>
        <pt x="403" y="814" on="0"/>
        <pt x="431" y="793" on="0"/>
      </contour>
      <contour>
        <pt x="448" y="-20" on="1"/>
        <pt x="403" y="-20" on="0"/>
        <pt x="309" y="-6" on="0"/>
        <pt x="218" y="22" on="0"/>
        <pt x="135" y="65" on="0"/>
        <pt x="102" y="94" on="1"/>
        <pt x="102" y="375" on="1"/>
        <pt x="102" y="483" on="0"/>
        <pt x="205" y="659" on="0"/>
        <pt x="305" y="731" on="1"/>
        <pt x="229" y="787" on="0"/>
        <pt x="147" y="919" on="0"/>
        <pt x="147" y="1006" on="1"/>
        <pt x="147" y="1066" on="0"/>
        <pt x="191" y="1168" on="0"/>
        <pt x="270" y="1241" on="0"/>
        <pt x="378" y="1282" on="0"/>
        <pt x="442" y="1282" on="1"/>
        <pt x="501" y="1282" on="0"/>
        <pt x="609" y="1245" on="0"/>
        <pt x="691" y="1174" on="0"/>
        <pt x="739" y="1071" on="0"/>
        <pt x="739" y="1006" on="1"/>
        <pt x="739" y="919" on="0"/>
        <pt x="659" y="787" on="0"/>
        <pt x="583" y="731" on="1"/>
        <pt x="681" y="659" on="0"/>
        <pt x="798" y="482" on="0"/>
        <pt x="798" y="375" on="1"/>
        <pt x="798" y="240" on="1"/>
        <pt x="866" y="145" on="1"/>
        <pt x="775" y="60" on="0"/>
        <pt x="570" y="-20" on="0"/>
      </contour>
      <contour>
        <pt x="448" y="666" on="1"/>
        <pt x="348" y="606" on="0"/>
        <pt x="245" y="440" on="0"/>
        <pt x="245" y="322" on="1"/>
        <pt x="245" y="174" on="1"/>
        <pt x="289" y="139" on="0"/>
        <pt x="397" y="111" on="0"/>
        <pt x="448" y="111" on="1"/>
        <pt x="504" y="111" on="0"/>
        <pt x="613" y="139" on="0"/>
        <pt x="655" y="174" on="1"/>
        <pt x="655" y="322" on="1"/>
        <pt x="655" y="440" on="0"/>
        <pt x="553" y="606" on="0"/>
      </contour>
    </TTGlyph>
    <TTGlyph name="emdash" xMin="111" yMin="444" xMax="1076" yMax="578">
      <contour>
        <pt x="111" y="578" on="1"/>
        <pt x="1076" y="578" on="1"/>
        <pt x="1076" y="444" on="1"/>
        <pt x="111" y="444" on="1"/>
      </contour>
    </TTGlyph>
    <TTGlyph name="endash" xMin="111" yMin="444" xMax="771" yMax="578">
      <contour>
        <pt x="111" y="578" on="1"/>
        <pt x="771" y="578" on="1"/>
        <pt x="771" y="444" on="1"/>
        <pt x="111" y="444" on="1"/>
      </contour>
    </TTGlyph>
    <TTGlyph name="equal" xMin="132" yMin="500" xMax="785" yMax="954">
      <contour>
        <pt x="132" y="631" on="1"/>
        <pt x="785" y="631" on="1"/>
        <pt x="785" y="500" on="1"/>
        <pt x="132" y="500" on="1"/>
      </contour>
      <contour>
        <pt x="132" y="954" on="1"/>
        <pt x="785" y="954" on="1"/>
        <pt x="785" y="823" on="1"/>
        <pt x="132" y="823" on="1"/>
      </contour>
    </TTGlyph>
    <TTGlyph name="eth" xMin="111" yMin="-20" xMax="785" yMax="1343">
      <contour>
        <pt x="785" y="1249" on="1"/>
        <pt x="672" y="1137" on="1"/>
        <pt x="720" y="1074" on="0"/>
        <pt x="770" y="923" on="0"/>
        <pt x="770" y="829" on="1"/>
        <pt x="770" y="379" on="1"/>
        <pt x="770" y="350" on="0"/>
        <pt x="769" y="274" on="0"/>
        <pt x="754" y="191" on="0"/>
        <pt x="720" y="107" on="0"/>
        <pt x="686" y="70" on="1"/>
        <pt x="658" y="39" on="0"/>
        <pt x="594" y="3" on="0"/>
        <pt x="529" y="-15" on="0"/>
        <pt x="467" y="-20" on="0"/>
        <pt x="441" y="-20" on="1"/>
        <pt x="415" y="-20" on="0"/>
        <pt x="352" y="-15" on="0"/>
        <pt x="287" y="3" on="0"/>
        <pt x="223" y="39" on="0"/>
        <pt x="195" y="70" on="1"/>
        <pt x="161" y="107" on="0"/>
        <pt x="127" y="191" on="0"/>
        <pt x="112" y="273" on="0"/>
        <pt x="111" y="350" on="0"/>
        <pt x="111" y="379" on="1"/>
        <pt x="111" y="745" on="1"/>
        <pt x="135" y="762" on="0"/>
        <pt x="200" y="796" on="0"/>
        <pt x="281" y="822" on="0"/>
        <pt x="381" y="838" on="0"/>
        <pt x="441" y="838" on="1"/>
        <pt x="543" y="838" on="0"/>
        <pt x="635" y="809" on="1"/>
        <pt x="635" y="881" on="0"/>
        <pt x="603" y="993" on="0"/>
        <pt x="574" y="1036" on="1"/>
        <pt x="469" y="932" on="1"/>
        <pt x="375" y="1026" on="1"/>
        <pt x="482" y="1133" on="1"/>
        <pt x="443" y="1164" on="0"/>
        <pt x="352" y="1214" on="0"/>
        <pt x="301" y="1239" on="1"/>
        <pt x="348" y="1343" on="1"/>
        <pt x="417" y="1320" on="0"/>
        <pt x="530" y="1262" on="0"/>
        <pt x="578" y="1227" on="1"/>
        <pt x="693" y="1341" on="1"/>
      </contour>
      <contour>
        <pt x="242" y="375" on="1"/>
        <pt x="242" y="352" on="0"/>
        <pt x="243" y="299" on="0"/>
        <pt x="251" y="245" on="0"/>
        <pt x="268" y="194" on="0"/>
        <pt x="283" y="172" on="1"/>
        <pt x="290" y="161" on="0"/>
        <pt x="315" y="137" on="0"/>
        <pt x="353" y="116" on="0"/>
        <pt x="406" y="102" on="0"/>
        <pt x="441" y="102" on="1"/>
        <pt x="476" y="102" on="0"/>
        <pt x="527" y="116" on="0"/>
        <pt x="565" y="137" on="0"/>
        <pt x="590" y="162" on="0"/>
        <pt x="598" y="172" on="1"/>
        <pt x="613" y="193" on="0"/>
        <pt x="630" y="245" on="0"/>
        <pt x="638" y="299" on="0"/>
        <pt x="639" y="352" on="0"/>
        <pt x="639" y="375" on="1"/>
        <pt x="639" y="666" on="1"/>
        <pt x="593" y="695" on="0"/>
        <pt x="486" y="715" on="0"/>
        <pt x="441" y="715" on="1"/>
        <pt x="396" y="715" on="0"/>
        <pt x="288" y="695" on="0"/>
        <pt x="242" y="666" on="1"/>
      </contour>
    </TTGlyph>
    <TTGlyph name="exclam" xMin="103" yMin="0" xMax="302" yMax="1262">
      <contour>
        <pt x="288" y="1262" on="1"/>
        <pt x="288" y="334" on="1"/>
        <pt x="144" y="334" on="1"/>
        <pt x="144" y="1130" on="1"/>
        <pt x="103" y="1262" on="1"/>
      </contour>
      <contour>
        <pt x="302" y="172" on="1"/>
        <pt x="302" y="0" on="1"/>
        <pt x="130" y="0" on="1"/>
        <pt x="130" y="172" on="1"/>
      </contour>
    </TTGlyph>
    <TTGlyph name="exclamdown" xMin="113" yMin="-340" xMax="312" yMax="922">
      <contour>
        <pt x="128" y="-340" on="1"/>
        <pt x="128" y="588" on="1"/>
        <pt x="271" y="588" on="1"/>
        <pt x="271" y="-209" on="1"/>
        <pt x="312" y="-340" on="1"/>
      </contour>
      <contour>
        <pt x="113" y="750" on="1"/>
        <pt x="113" y="922" on="1"/>
        <pt x="285" y="922" on="1"/>
        <pt x="285" y="750" on="1"/>
      </contour>
    </TTGlyph>
    <TTGlyph name="f" xMin="64" yMin="0" xMax="578" yMax="1341">
      <contour>
        <pt x="123" y="1073" on="1"/>
        <pt x="64" y="1165" on="1"/>
        <pt x="112" y="1207" on="0"/>
        <pt x="230" y="1269" on="0"/>
        <pt x="361" y="1311" on="0"/>
        <pt x="499" y="1336" on="0"/>
        <pt x="567" y="1341" on="1"/>
        <pt x="578" y="1219" on="1"/>
        <pt x="536" y="1216" on="0"/>
        <pt x="447" y="1203" on="0"/>
        <pt x="362" y="1182" on="0"/>
        <pt x="284" y="1155" on="0"/>
        <pt x="254" y="1137" on="1"/>
        <pt x="254" y="922" on="1"/>
        <pt x="442" y="922" on="1"/>
        <pt x="442" y="799" on="1"/>
        <pt x="254" y="799" on="1"/>
        <pt x="254" y="0" on="1"/>
        <pt x="123" y="0" on="1"/>
      </contour>
    </TTGlyph>
    <TTGlyph name="five" xMin="99" yMin="-23" xMax="680" yMax="1305">
      <contour>
        <pt x="519" y="1262" on="1"/>
        <pt x="652" y="1305" on="1"/>
        <pt x="652" y="1130" on="1"/>
        <pt x="256" y="1130" on="1"/>
        <pt x="256" y="793" on="1"/>
        <pt x="351" y="793" on="1"/>
        <pt x="425" y="793" on="0"/>
        <pt x="547" y="762" on="0"/>
        <pt x="633" y="694" on="0"/>
        <pt x="680" y="589" on="0"/>
        <pt x="680" y="514" on="1"/>
        <pt x="680" y="412" on="0"/>
        <pt x="596" y="246" on="0"/>
        <pt x="452" y="114" on="0"/>
        <pt x="260" y="13" on="0"/>
        <pt x="152" y="-23" on="1"/>
        <pt x="99" y="111" on="1"/>
        <pt x="195" y="141" on="0"/>
        <pt x="356" y="219" on="0"/>
        <pt x="472" y="316" on="0"/>
        <pt x="537" y="433" on="0"/>
        <pt x="537" y="502" on="1"/>
        <pt x="537" y="549" on="0"/>
        <pt x="511" y="611" on="0"/>
        <pt x="459" y="647" on="0"/>
        <pt x="378" y="662" on="0"/>
        <pt x="324" y="662" on="1"/>
        <pt x="125" y="662" on="1"/>
        <pt x="125" y="1262" on="1"/>
      </contour>
    </TTGlyph>
    <TTGlyph name="foundryicon" xMin="104" yMin="283" xMax="2062" yMax="647">
      <contour>
        <pt x="2062" y="514" on="1"/>
        <pt x="2030" y="514" on="1"/>
        <pt x="2032" y="510" on="0"/>
        <pt x="2032" y="504" on="1"/>
        <pt x="2032" y="475" on="0"/>
        <pt x="1987" y="432" on="0"/>
        <pt x="1939" y="432" on="1"/>
        <pt x="1921" y="432" on="0"/>
        <pt x="1915" y="434" on="1"/>
        <pt x="1915" y="403" on="1"/>
        <pt x="1952" y="403" on="1"/>
        <pt x="2032" y="403" on="0"/>
        <pt x="2032" y="330" on="1"/>
        <pt x="2032" y="313" on="0"/>
        <pt x="2023" y="291" on="0"/>
        <pt x="2019" y="283" on="1"/>
        <pt x="1964" y="283" on="1"/>
        <pt x="1964" y="342" on="1"/>
        <pt x="1870" y="342" on="1"/>
        <pt x="1860" y="350" on="0"/>
        <pt x="1849" y="375" on="0"/>
        <pt x="1849" y="387" on="1"/>
        <pt x="1849" y="424" on="0"/>
        <pt x="1878" y="449" on="1"/>
        <pt x="1849" y="465" on="0"/>
        <pt x="1849" y="506" on="1"/>
        <pt x="1849" y="539" on="0"/>
        <pt x="1896" y="582" on="0"/>
        <pt x="1937" y="582" on="1"/>
        <pt x="1974" y="582" on="0"/>
        <pt x="2001" y="561" on="1"/>
        <pt x="2017" y="582" on="0"/>
        <pt x="2040" y="582" on="1"/>
        <pt x="2048" y="582" on="0"/>
        <pt x="2056" y="580" on="0"/>
        <pt x="2062" y="578" on="1"/>
      </contour>
      <contour>
        <pt x="502" y="358" on="1"/>
        <pt x="489" y="313" on="0"/>
        <pt x="442" y="283" on="0"/>
        <pt x="414" y="283" on="1"/>
        <pt x="375" y="283" on="0"/>
        <pt x="360" y="297" on="1"/>
        <pt x="360" y="350" on="1"/>
        <pt x="395" y="350" on="1"/>
        <pt x="428" y="350" on="0"/>
        <pt x="438" y="373" on="1"/>
        <pt x="410" y="373" on="1"/>
        <pt x="360" y="514" on="1"/>
        <pt x="340" y="514" on="1"/>
        <pt x="340" y="578" on="1"/>
        <pt x="418" y="578" on="1"/>
        <pt x="446" y="477" on="1"/>
        <pt x="457" y="428" on="1"/>
        <pt x="479" y="514" on="1"/>
        <pt x="461" y="514" on="1"/>
        <pt x="461" y="578" on="1"/>
        <pt x="549" y="578" on="1"/>
        <pt x="549" y="514" on="1"/>
      </contour>
      <contour>
        <pt x="324" y="383" on="1"/>
        <pt x="287" y="367" on="0"/>
        <pt x="240" y="367" on="1"/>
        <pt x="176" y="367" on="0"/>
        <pt x="104" y="438" on="0"/>
        <pt x="104" y="502" on="1"/>
        <pt x="104" y="567" on="0"/>
        <pt x="174" y="647" on="0"/>
        <pt x="244" y="647" on="1"/>
        <pt x="262" y="647" on="0"/>
        <pt x="303" y="639" on="0"/>
        <pt x="324" y="633" on="1"/>
        <pt x="324" y="551" on="1"/>
        <pt x="260" y="551" on="1"/>
        <pt x="260" y="582" on="1"/>
        <pt x="254" y="584" on="0"/>
        <pt x="242" y="584" on="1"/>
        <pt x="213" y="584" on="0"/>
        <pt x="182" y="543" on="0"/>
        <pt x="182" y="510" on="1"/>
        <pt x="182" y="434" on="0"/>
        <pt x="258" y="434" on="1"/>
        <pt x="324" y="434" on="1"/>
      </contour>
      <contour>
        <pt x="1532" y="367" on="1"/>
        <pt x="1432" y="367" on="0"/>
        <pt x="1432" y="473" on="1"/>
        <pt x="1432" y="524" on="0"/>
        <pt x="1487" y="582" on="0"/>
        <pt x="1534" y="582" on="1"/>
        <pt x="1581" y="582" on="0"/>
        <pt x="1636" y="526" on="0"/>
        <pt x="1636" y="475" on="1"/>
        <pt x="1636" y="424" on="0"/>
        <pt x="1581" y="367" on="0"/>
      </contour>
      <contour>
        <pt x="991" y="567" on="1"/>
        <pt x="1010" y="573" on="0"/>
        <pt x="1044" y="582" on="0"/>
        <pt x="1065" y="582" on="1"/>
        <pt x="1159" y="582" on="0"/>
        <pt x="1159" y="504" on="1"/>
        <pt x="1159" y="434" on="1"/>
        <pt x="1182" y="434" on="1"/>
        <pt x="1182" y="379" on="1"/>
        <pt x="1165" y="369" on="0"/>
        <pt x="1141" y="369" on="1"/>
        <pt x="1108" y="369" on="0"/>
        <pt x="1096" y="383" on="1"/>
        <pt x="1077" y="367" on="0"/>
        <pt x="1044" y="367" on="1"/>
        <pt x="1016" y="367" on="0"/>
        <pt x="975" y="399" on="0"/>
        <pt x="975" y="430" on="1"/>
        <pt x="975" y="459" on="0"/>
        <pt x="1012" y="492" on="0"/>
        <pt x="1055" y="492" on="1"/>
        <pt x="1087" y="492" on="1"/>
        <pt x="1087" y="494" on="1"/>
        <pt x="1087" y="502" on="0"/>
        <pt x="1069" y="514" on="0"/>
        <pt x="1042" y="514" on="1"/>
        <pt x="991" y="514" on="1"/>
      </contour>
      <contour>
        <pt x="944" y="434" on="1"/>
        <pt x="944" y="381" on="1"/>
        <pt x="928" y="373" on="0"/>
        <pt x="887" y="367" on="0"/>
        <pt x="868" y="367" on="1"/>
        <pt x="815" y="367" on="0"/>
        <pt x="760" y="422" on="0"/>
        <pt x="760" y="471" on="1"/>
        <pt x="760" y="520" on="0"/>
        <pt x="809" y="582" on="0"/>
        <pt x="860" y="582" on="1"/>
        <pt x="901" y="582" on="0"/>
        <pt x="950" y="532" on="0"/>
        <pt x="950" y="496" on="1"/>
        <pt x="950" y="487" on="0"/>
        <pt x="948" y="469" on="0"/>
        <pt x="946" y="459" on="1"/>
        <pt x="834" y="459" on="1"/>
        <pt x="842" y="434" on="0"/>
        <pt x="885" y="434" on="1"/>
      </contour>
      <contour>
        <pt x="1661" y="514" on="1"/>
        <pt x="1661" y="578" on="1"/>
        <pt x="1731" y="578" on="1"/>
        <pt x="1751" y="545" on="1"/>
        <pt x="1755" y="555" on="0"/>
        <pt x="1765" y="565" on="0"/>
        <pt x="1772" y="571" on="1"/>
        <pt x="1786" y="582" on="0"/>
        <pt x="1802" y="582" on="1"/>
        <pt x="1815" y="582" on="0"/>
        <pt x="1827" y="578" on="1"/>
        <pt x="1827" y="514" on="1"/>
        <pt x="1757" y="514" on="1"/>
        <pt x="1757" y="434" on="1"/>
        <pt x="1792" y="434" on="1"/>
        <pt x="1792" y="373" on="1"/>
        <pt x="1665" y="373" on="1"/>
        <pt x="1665" y="434" on="1"/>
        <pt x="1683" y="434" on="1"/>
        <pt x="1683" y="514" on="1"/>
      </contour>
      <contour>
        <pt x="578" y="514" on="1"/>
        <pt x="578" y="578" on="1"/>
        <pt x="647" y="578" on="1"/>
        <pt x="668" y="545" on="1"/>
        <pt x="672" y="555" on="0"/>
        <pt x="682" y="565" on="0"/>
        <pt x="688" y="571" on="1"/>
        <pt x="702" y="582" on="0"/>
        <pt x="719" y="582" on="1"/>
        <pt x="731" y="582" on="0"/>
        <pt x="743" y="578" on="1"/>
        <pt x="743" y="514" on="1"/>
        <pt x="674" y="514" on="1"/>
        <pt x="674" y="434" on="1"/>
        <pt x="709" y="434" on="1"/>
        <pt x="709" y="373" on="1"/>
        <pt x="582" y="373" on="1"/>
        <pt x="582" y="434" on="1"/>
        <pt x="602" y="434" on="1"/>
        <pt x="602" y="514" on="1"/>
      </contour>
      <contour>
        <pt x="1206" y="584" on="1"/>
        <pt x="1182" y="584" on="1"/>
        <pt x="1182" y="647" on="1"/>
        <pt x="1278" y="647" on="1"/>
        <pt x="1278" y="434" on="1"/>
        <pt x="1307" y="434" on="1"/>
        <pt x="1307" y="377" on="1"/>
        <pt x="1288" y="369" on="0"/>
        <pt x="1262" y="369" on="1"/>
        <pt x="1206" y="369" on="0"/>
        <pt x="1206" y="426" on="1"/>
      </contour>
      <contour>
        <pt x="1333" y="408" on="1"/>
        <pt x="1333" y="424" on="0"/>
        <pt x="1354" y="449" on="0"/>
        <pt x="1374" y="449" on="1"/>
        <pt x="1397" y="449" on="0"/>
        <pt x="1419" y="424" on="0"/>
        <pt x="1419" y="408" on="1"/>
        <pt x="1419" y="391" on="0"/>
        <pt x="1397" y="369" on="0"/>
        <pt x="1374" y="369" on="1"/>
        <pt x="1354" y="369" on="0"/>
        <pt x="1333" y="391" on="0"/>
      </contour>
      <contour>
        <pt x="1534" y="422" on="1"/>
        <pt x="1563" y="422" on="0"/>
        <pt x="1563" y="475" on="1"/>
        <pt x="1563" y="524" on="0"/>
        <pt x="1534" y="524" on="1"/>
        <pt x="1505" y="524" on="0"/>
        <pt x="1505" y="475" on="1"/>
        <pt x="1505" y="422" on="0"/>
      </contour>
      <contour>
        <pt x="1917" y="506" on="1"/>
        <pt x="1917" y="475" on="0"/>
        <pt x="1942" y="475" on="1"/>
        <pt x="1962" y="475" on="0"/>
        <pt x="1962" y="506" on="1"/>
        <pt x="1962" y="537" on="0"/>
        <pt x="1942" y="537" on="1"/>
        <pt x="1917" y="537" on="0"/>
      </contour>
      <contour>
        <pt x="1065" y="418" on="1"/>
        <pt x="1079" y="418" on="0"/>
        <pt x="1087" y="424" on="1"/>
        <pt x="1087" y="455" on="1"/>
        <pt x="1071" y="455" on="1"/>
        <pt x="1044" y="455" on="0"/>
        <pt x="1044" y="436" on="1"/>
        <pt x="1044" y="418" on="0"/>
      </contour>
      <contour>
        <pt x="858" y="528" on="1"/>
        <pt x="838" y="528" on="0"/>
        <pt x="831" y="496" on="1"/>
        <pt x="883" y="496" on="1"/>
        <pt x="883" y="528" on="0"/>
      </contour>
    </TTGlyph>
    <TTGlyph name="four" xMin="69" yMin="0" xMax="833" yMax="1262">
      <contour>
        <pt x="549" y="793" on="1"/>
        <pt x="549" y="1262" on="1"/>
        <pt x="692" y="1262" on="1"/>
        <pt x="692" y="793" on="1"/>
        <pt x="794" y="793" on="1"/>
        <pt x="833" y="662" on="1"/>
        <pt x="692" y="662" on="1"/>
        <pt x="692" y="0" on="1"/>
        <pt x="549" y="0" on="1"/>
        <pt x="549" y="662" on="1"/>
        <pt x="409" y="662" on="1"/>
        <pt x="328" y="662" on="0"/>
        <pt x="202" y="708" on="0"/>
        <pt x="115" y="795" on="0"/>
        <pt x="69" y="921" on="0"/>
        <pt x="69" y="1001" on="1"/>
        <pt x="69" y="1262" on="1"/>
        <pt x="205" y="1262" on="1"/>
        <pt x="205" y="1001" on="1"/>
        <pt x="205" y="898" on="0"/>
        <pt x="302" y="793" on="0"/>
        <pt x="405" y="793" on="1"/>
      </contour>
    </TTGlyph>
    <TTGlyph name="foursuperior" xMin="62" yMin="688" xMax="561" yMax="1262">
      <contour>
        <pt x="324" y="1073" on="1"/>
        <pt x="324" y="1262" on="1"/>
        <pt x="441" y="1262" on="1"/>
        <pt x="441" y="1073" on="1"/>
        <pt x="531" y="1073" on="1"/>
        <pt x="561" y="961" on="1"/>
        <pt x="441" y="961" on="1"/>
        <pt x="441" y="688" on="1"/>
        <pt x="324" y="688" on="1"/>
        <pt x="324" y="961" on="1"/>
        <pt x="246" y="961" on="1"/>
        <pt x="156" y="961" on="0"/>
        <pt x="62" y="1059" on="0"/>
        <pt x="62" y="1147" on="1"/>
        <pt x="62" y="1262" on="1"/>
        <pt x="170" y="1262" on="1"/>
        <pt x="170" y="1165" on="1"/>
        <pt x="170" y="1120" on="0"/>
        <pt x="215" y="1073" on="0"/>
        <pt x="258" y="1073" on="1"/>
      </contour>
    </TTGlyph>
    <TTGlyph name="fraction" xMin="19" yMin="-20" xMax="595" yMax="1282">
      <contour>
        <pt x="472" y="1282" on="1"/>
        <pt x="595" y="1239" on="1"/>
        <pt x="142" y="-20" on="1"/>
        <pt x="19" y="23" on="1"/>
      </contour>
    </TTGlyph>
    <TTGlyph name="g" xMin="42" yMin="-432" xMax="880" yMax="942">
      <contour>
        <pt x="618" y="780" on="1"/>
        <pt x="583" y="796" on="0"/>
        <pt x="489" y="819" on="0"/>
        <pt x="429" y="819" on="1"/>
        <pt x="381" y="819" on="0"/>
        <pt x="299" y="794" on="0"/>
        <pt x="239" y="745" on="0"/>
        <pt x="206" y="673" on="0"/>
        <pt x="206" y="627" on="1"/>
        <pt x="206" y="555" on="1"/>
        <pt x="206" y="511" on="0"/>
        <pt x="235" y="442" on="0"/>
        <pt x="289" y="394" on="0"/>
        <pt x="364" y="369" on="0"/>
        <pt x="409" y="369" on="1"/>
        <pt x="503" y="369" on="0"/>
        <pt x="614" y="473" on="0"/>
        <pt x="618" y="578" on="1"/>
      </contour>
      <contour>
        <pt x="749" y="745" on="1"/>
        <pt x="749" y="575" on="1"/>
        <pt x="749" y="500" on="0"/>
        <pt x="703" y="378" on="0"/>
        <pt x="616" y="293" on="0"/>
        <pt x="491" y="246" on="0"/>
        <pt x="413" y="246" on="1"/>
        <pt x="399" y="246" on="0"/>
        <pt x="369" y="248" on="0"/>
        <pt x="360" y="250" on="1"/>
        <pt x="360" y="123" on="1"/>
        <pt x="468" y="123" on="1"/>
        <pt x="531" y="123" on="0"/>
        <pt x="654" y="99" on="0"/>
        <pt x="750" y="39" on="0"/>
        <pt x="810" y="-63" on="0"/>
        <pt x="810" y="-141" on="1"/>
        <pt x="810" y="-190" on="1"/>
        <pt x="880" y="-274" on="1"/>
        <pt x="792" y="-353" on="0"/>
        <pt x="574" y="-432" on="0"/>
        <pt x="448" y="-432" on="1"/>
        <pt x="211" y="-432" on="0"/>
        <pt x="42" y="-297" on="1"/>
        <pt x="112" y="-193" on="1"/>
        <pt x="160" y="-228" on="0"/>
        <pt x="242" y="-273" on="0"/>
        <pt x="320" y="-299" on="0"/>
        <pt x="401" y="-309" on="0"/>
        <pt x="448" y="-309" on="1"/>
        <pt x="529" y="-309" on="0"/>
        <pt x="642" y="-273" on="0"/>
        <pt x="679" y="-248" on="1"/>
        <pt x="679" y="-205" on="1"/>
        <pt x="679" y="-154" on="0"/>
        <pt x="660" y="-78" on="0"/>
        <pt x="613" y="-26" on="0"/>
        <pt x="531" y="0" on="0"/>
        <pt x="468" y="0" on="1"/>
        <pt x="228" y="0" on="1"/>
        <pt x="228" y="281" on="1"/>
        <pt x="153" y="316" on="0"/>
        <pt x="75" y="458" on="0"/>
        <pt x="75" y="555" on="1"/>
        <pt x="75" y="627" on="1"/>
        <pt x="75" y="706" on="0"/>
        <pt x="133" y="825" on="0"/>
        <pt x="232" y="903" on="0"/>
        <pt x="365" y="942" on="0"/>
        <pt x="441" y="942" on="1"/>
        <pt x="507" y="942" on="0"/>
        <pt x="617" y="923" on="0"/>
        <pt x="705" y="896" on="0"/>
        <pt x="773" y="866" on="0"/>
        <pt x="796" y="854" on="1"/>
      </contour>
    </TTGlyph>
    <TTGlyph name="germandbls" xMin="45" yMin="-20" xMax="1145" yMax="1341">
      <contour>
        <pt x="45" y="922" on="1"/>
        <pt x="219" y="922" on="1"/>
        <pt x="219" y="1005" on="0"/>
        <pt x="269" y="1157" on="0"/>
        <pt x="374" y="1272" on="0"/>
        <pt x="536" y="1341" on="0"/>
        <pt x="647" y="1341" on="1"/>
        <pt x="774" y="1341" on="0"/>
        <pt x="940" y="1266" on="0"/>
        <pt x="1038" y="1138" on="0"/>
        <pt x="1077" y="965" on="0"/>
        <pt x="1077" y="868" on="1"/>
        <pt x="1077" y="795" on="1"/>
        <pt x="797" y="795" on="1"/>
        <pt x="726" y="795" on="0"/>
        <pt x="639" y="744" on="0"/>
        <pt x="639" y="680" on="1"/>
        <pt x="639" y="654" on="0"/>
        <pt x="657" y="614" on="0"/>
        <pt x="688" y="583" on="0"/>
        <pt x="731" y="557" on="0"/>
        <pt x="756" y="545" on="1"/>
        <pt x="893" y="479" on="1"/>
        <pt x="980" y="436" on="0"/>
        <pt x="1077" y="323" on="0"/>
        <pt x="1077" y="242" on="1"/>
        <pt x="1077" y="195" on="1"/>
        <pt x="1145" y="111" on="1"/>
        <pt x="1103" y="70" on="0"/>
        <pt x="1011" y="19" on="0"/>
        <pt x="918" y="-10" on="0"/>
        <pt x="826" y="-20" on="0"/>
        <pt x="784" y="-20" on="1"/>
        <pt x="698" y="-20" on="0"/>
        <pt x="562" y="9" on="0"/>
        <pt x="514" y="31" on="1"/>
        <pt x="514" y="162" on="1"/>
        <pt x="541" y="150" on="0"/>
        <pt x="596" y="128" on="0"/>
        <pt x="659" y="111" on="0"/>
        <pt x="731" y="102" on="0"/>
        <pt x="776" y="102" on="1"/>
        <pt x="830" y="102" on="0"/>
        <pt x="920" y="126" on="0"/>
        <pt x="946" y="147" on="1"/>
        <pt x="946" y="188" on="1"/>
        <pt x="946" y="219" on="0"/>
        <pt x="935" y="268" on="0"/>
        <pt x="908" y="311" on="0"/>
        <pt x="860" y="349" on="0"/>
        <pt x="823" y="369" on="1"/>
        <pt x="668" y="446" on="1"/>
        <pt x="636" y="462" on="0"/>
        <pt x="580" y="502" on="0"/>
        <pt x="538" y="558" on="0"/>
        <pt x="514" y="631" on="0"/>
        <pt x="514" y="680" on="1"/>
        <pt x="514" y="734" on="0"/>
        <pt x="553" y="824" on="0"/>
        <pt x="626" y="887" on="0"/>
        <pt x="731" y="922" on="0"/>
        <pt x="797" y="922" on="1"/>
        <pt x="946" y="922" on="1"/>
        <pt x="946" y="986" on="0"/>
        <pt x="908" y="1093" on="0"/>
        <pt x="833" y="1171" on="0"/>
        <pt x="721" y="1214" on="0"/>
        <pt x="647" y="1214" on="1"/>
        <pt x="573" y="1214" on="0"/>
        <pt x="461" y="1170" on="0"/>
        <pt x="387" y="1092" on="0"/>
        <pt x="350" y="984" on="0"/>
        <pt x="350" y="920" on="1"/>
        <pt x="350" y="-20" on="1"/>
        <pt x="219" y="-20" on="1"/>
        <pt x="219" y="795" on="1"/>
        <pt x="45" y="795" on="1"/>
      </contour>
    </TTGlyph>
    <TTGlyph name="grave" xMin="82" yMin="1032" xMax="393" yMax="1341">
      <contour>
        <pt x="176" y="1341" on="1"/>
        <pt x="393" y="1126" on="1"/>
        <pt x="299" y="1032" on="1"/>
        <pt x="82" y="1247" on="1"/>
      </contour>
    </TTGlyph>
    <TTGlyph name="greater" xMin="94" yMin="328" xMax="708" yMax="1126">
      <contour>
        <pt x="708" y="662" on="1"/>
        <pt x="172" y="328" on="1"/>
        <pt x="94" y="446" on="1"/>
        <pt x="542" y="727" on="1"/>
        <pt x="94" y="1008" on="1"/>
        <pt x="172" y="1126" on="1"/>
        <pt x="708" y="793" on="1"/>
      </contour>
    </TTGlyph>
    <TTGlyph name="guillemotleft" xMin="95" yMin="246" xMax="621" yMax="922">
      <contour>
        <pt x="95" y="649" on="1"/>
        <pt x="367" y="922" on="1"/>
        <pt x="461" y="827" on="1"/>
        <pt x="218" y="584" on="1"/>
        <pt x="461" y="340" on="1"/>
        <pt x="367" y="246" on="1"/>
        <pt x="95" y="518" on="1"/>
      </contour>
      <contour>
        <pt x="349" y="584" on="1"/>
        <pt x="527" y="762" on="1"/>
        <pt x="621" y="668" on="1"/>
        <pt x="537" y="584" on="1"/>
        <pt x="621" y="500" on="1"/>
        <pt x="527" y="406" on="1"/>
      </contour>
    </TTGlyph>
    <TTGlyph name="guillemotright" xMin="64" yMin="246" xMax="590" yMax="922">
      <contour>
        <pt x="158" y="406" on="1"/>
        <pt x="64" y="500" on="1"/>
        <pt x="148" y="584" on="1"/>
        <pt x="64" y="668" on="1"/>
        <pt x="158" y="762" on="1"/>
        <pt x="336" y="584" on="1"/>
      </contour>
      <contour>
        <pt x="590" y="518" on="1"/>
        <pt x="318" y="246" on="1"/>
        <pt x="223" y="340" on="1"/>
        <pt x="467" y="584" on="1"/>
        <pt x="223" y="827" on="1"/>
        <pt x="318" y="922" on="1"/>
        <pt x="590" y="649" on="1"/>
      </contour>
    </TTGlyph>
    <TTGlyph name="guilsinglleft" xMin="95" yMin="246" xMax="461" yMax="922">
      <contour>
        <pt x="95" y="649" on="1"/>
        <pt x="367" y="922" on="1"/>
        <pt x="461" y="827" on="1"/>
        <pt x="218" y="584" on="1"/>
        <pt x="461" y="340" on="1"/>
        <pt x="367" y="246" on="1"/>
        <pt x="95" y="518" on="1"/>
      </contour>
    </TTGlyph>
    <TTGlyph name="guilsinglright" xMin="81" yMin="246" xMax="448" yMax="922">
      <contour>
        <pt x="448" y="518" on="1"/>
        <pt x="176" y="246" on="1"/>
        <pt x="81" y="340" on="1"/>
        <pt x="325" y="584" on="1"/>
        <pt x="81" y="827" on="1"/>
        <pt x="176" y="922" on="1"/>
        <pt x="448" y="649" on="1"/>
      </contour>
    </TTGlyph>
    <TTGlyph name="h" xMin="83" yMin="0" xMax="783" yMax="1341">
      <contour>
        <pt x="255" y="915" on="1"/>
        <pt x="293" y="928" on="0"/>
        <pt x="380" y="942" on="0"/>
        <pt x="429" y="942" on="1"/>
        <pt x="467" y="942" on="0"/>
        <pt x="557" y="931" on="0"/>
        <pt x="644" y="897" on="0"/>
        <pt x="721" y="833" on="0"/>
        <pt x="746" y="780" on="1"/>
        <pt x="757" y="757" on="0"/>
        <pt x="771" y="699" on="0"/>
        <pt x="780" y="615" on="0"/>
        <pt x="783" y="498" on="0"/>
        <pt x="783" y="416" on="1"/>
        <pt x="783" y="0" on="1"/>
        <pt x="652" y="0" on="1"/>
        <pt x="652" y="420" on="1"/>
        <pt x="652" y="487" on="0"/>
        <pt x="650" y="588" on="0"/>
        <pt x="642" y="663" on="0"/>
        <pt x="626" y="715" on="0"/>
        <pt x="613" y="735" on="1"/>
        <pt x="604" y="749" on="0"/>
        <pt x="574" y="779" on="0"/>
        <pt x="527" y="803" on="0"/>
        <pt x="463" y="819" on="0"/>
        <pt x="419" y="819" on="1"/>
        <pt x="368" y="819" on="0"/>
        <pt x="289" y="802" on="0"/>
        <pt x="255" y="788" on="1"/>
        <pt x="255" y="0" on="1"/>
        <pt x="124" y="0" on="1"/>
        <pt x="124" y="1212" on="1"/>
        <pt x="83" y="1341" on="1"/>
        <pt x="255" y="1341" on="1"/>
      </contour>
    </TTGlyph>
    <TTGlyph name="hyphen" xMin="113" yMin="434" xMax="691" yMax="578">
      <contour>
        <pt x="113" y="578" on="1"/>
        <pt x="691" y="578" on="1"/>
        <pt x="691" y="434" on="1"/>
        <pt x="113" y="434" on="1"/>
      </contour>
    </TTGlyph>
    <TTGlyph name="i" xMin="87" yMin="0" xMax="267" yMax="1262">
      <contour>
        <pt x="267" y="1262" on="1"/>
        <pt x="267" y="1108" on="1"/>
        <pt x="120" y="1108" on="1"/>
        <pt x="120" y="1262" on="1"/>
      </contour>
      <contour>
        <pt x="259" y="922" on="1"/>
        <pt x="259" y="0" on="1"/>
        <pt x="128" y="0" on="1"/>
        <pt x="128" y="793" on="1"/>
        <pt x="87" y="922" on="1"/>
      </contour>
    </TTGlyph>
    <TTGlyph name="iacute" xMin="80" yMin="0" xMax="391" yMax="1341">
      <component glyphName="dotlessi" x="0" y="0" flags="0x204"/>
      <component glyphName="acute" x="-2" y="0" flags="0x4"/>
    </TTGlyph>
    <TTGlyph name="icircumflex" xMin="-82" yMin="0" xMax="475" yMax="1341">
      <component glyphName="dotlessi" x="0" y="0" flags="0x4"/>
      <component glyphName="circumflex" x="-164" y="0" flags="0x4"/>
    </TTGlyph>
    <TTGlyph name="idieresis" xMin="-15" yMin="0" xMax="403" yMax="1262">
      <component glyphName="dotlessi" x="0" y="0" flags="0x4"/>
      <component glyphName="dieresis" x="-97" y="0" flags="0x4"/>
    </TTGlyph>
    <TTGlyph name="igrave" xMin="-10" yMin="0" xMax="301" yMax="1341">
      <component glyphName="dotlessi" x="0" y="0" flags="0x204"/>
      <component glyphName="grave" x="-92" y="0" flags="0x4"/>
    </TTGlyph>
    <TTGlyph name="j" xMin="-98" yMin="-432" xMax="268" yMax="1262">
      <contour>
        <pt x="-98" y="-328" on="1"/>
        <pt x="-22" y="-288" on="0"/>
        <pt x="68" y="-206" on="0"/>
        <pt x="115" y="-101" on="0"/>
        <pt x="129" y="36" on="0"/>
        <pt x="129" y="131" on="1"/>
        <pt x="129" y="793" on="1"/>
        <pt x="88" y="922" on="1"/>
        <pt x="260" y="922" on="1"/>
        <pt x="260" y="131" on="1"/>
        <pt x="260" y="28" on="0"/>
        <pt x="240" y="-137" on="0"/>
        <pt x="177" y="-273" on="0"/>
        <pt x="59" y="-384" on="0"/>
        <pt x="-39" y="-432" on="1"/>
      </contour>
      <contour>
        <pt x="268" y="1262" on="1"/>
        <pt x="268" y="1108" on="1"/>
        <pt x="121" y="1108" on="1"/>
        <pt x="121" y="1262" on="1"/>
      </contour>
    </TTGlyph>
    <TTGlyph name="k" xMin="83" yMin="-20" xMax="761" yMax="1341">
      <contour>
        <pt x="255" y="1341" on="1"/>
        <pt x="255" y="0" on="1"/>
        <pt x="124" y="0" on="1"/>
        <pt x="124" y="1212" on="1"/>
        <pt x="83" y="1341" on="1"/>
      </contour>
      <contour>
        <pt x="284" y="444" on="1"/>
        <pt x="294" y="528" on="0"/>
        <pt x="359" y="687" on="0"/>
        <pt x="465" y="820" on="0"/>
        <pt x="608" y="918" on="0"/>
        <pt x="695" y="942" on="1"/>
        <pt x="740" y="819" on="1"/>
        <pt x="634" y="788" on="0"/>
        <pt x="474" y="647" on="0"/>
        <pt x="437" y="535" on="1"/>
        <pt x="761" y="53" on="1"/>
        <pt x="652" y="-20" on="1"/>
        <pt x="339" y="444" on="1"/>
      </contour>
    </TTGlyph>
    <TTGlyph name="l" xMin="75" yMin="-20" xMax="450" yMax="1341">
      <contour>
        <pt x="247" y="1341" on="1"/>
        <pt x="247" y="530" on="1"/>
        <pt x="247" y="446" on="0"/>
        <pt x="258" y="319" on="0"/>
        <pt x="299" y="217" on="0"/>
        <pt x="380" y="131" on="0"/>
        <pt x="450" y="88" on="1"/>
        <pt x="382" y="-20" on="1"/>
        <pt x="298" y="25" on="0"/>
        <pt x="193" y="129" on="0"/>
        <pt x="136" y="260" on="0"/>
        <pt x="116" y="424" on="0"/>
        <pt x="116" y="530" on="1"/>
        <pt x="116" y="1212" on="1"/>
        <pt x="75" y="1341" on="1"/>
      </contour>
    </TTGlyph>
    <TTGlyph name="less" xMin="63" yMin="328" xMax="677" yMax="1126">
      <contour>
        <pt x="63" y="793" on="1"/>
        <pt x="599" y="1126" on="1"/>
        <pt x="677" y="1008" on="1"/>
        <pt x="229" y="727" on="1"/>
        <pt x="677" y="446" on="1"/>
        <pt x="599" y="328" on="1"/>
        <pt x="63" y="662" on="1"/>
      </contour>
    </TTGlyph>
    <TTGlyph name="logicalnot" xMin="75" yMin="614" xMax="728" yMax="954">
      <contour>
        <pt x="75" y="954" on="1"/>
        <pt x="728" y="954" on="1"/>
        <pt x="728" y="614" on="1"/>
        <pt x="601" y="614" on="1"/>
        <pt x="601" y="823" on="1"/>
        <pt x="75" y="823" on="1"/>
      </contour>
    </TTGlyph>
    <TTGlyph name="m" xMin="75" yMin="0" xMax="1097" yMax="942">
      <contour>
        <pt x="75" y="807" on="1"/>
        <pt x="189" y="876" on="0"/>
        <pt x="461" y="942" on="0"/>
        <pt x="612" y="942" on="1"/>
        <pt x="639" y="942" on="0"/>
        <pt x="732" y="937" on="0"/>
        <pt x="839" y="915" on="0"/>
        <pt x="947" y="870" on="0"/>
        <pt x="989" y="831" on="1"/>
        <pt x="1027" y="794" on="0"/>
        <pt x="1071" y="709" on="0"/>
        <pt x="1092" y="620" on="0"/>
        <pt x="1097" y="530" on="0"/>
        <pt x="1097" y="487" on="1"/>
        <pt x="1097" y="0" on="1"/>
        <pt x="968" y="0" on="1"/>
        <pt x="968" y="416" on="1"/>
        <pt x="968" y="454" on="0"/>
        <pt x="967" y="543" on="0"/>
        <pt x="954" y="631" on="0"/>
        <pt x="925" y="710" on="0"/>
        <pt x="897" y="739" on="1"/>
        <pt x="878" y="758" on="0"/>
        <pt x="825" y="788" on="0"/>
        <pt x="766" y="808" on="0"/>
        <pt x="707" y="819" on="0"/>
        <pt x="682" y="819" on="1"/>
        <pt x="682" y="0" on="1"/>
        <pt x="550" y="0" on="1"/>
        <pt x="550" y="819" on="1"/>
        <pt x="478" y="819" on="0"/>
        <pt x="330" y="792" on="0"/>
        <pt x="264" y="764" on="1"/>
        <pt x="264" y="0" on="1"/>
        <pt x="133" y="0" on="1"/>
        <pt x="133" y="707" on="1"/>
      </contour>
    </TTGlyph>
    <TTGlyph name="macron" xMin="82" yMin="1135" xMax="598" yMax="1262">
      <contour>
        <pt x="82" y="1262" on="1"/>
        <pt x="598" y="1262" on="1"/>
        <pt x="598" y="1135" on="1"/>
        <pt x="82" y="1135" on="1"/>
      </contour>
    </TTGlyph>
    <TTGlyph name="minus" xMin="127" yMin="662" xMax="821" yMax="793">
      <contour>
        <pt x="127" y="793" on="1"/>
        <pt x="821" y="793" on="1"/>
        <pt x="821" y="662" on="1"/>
        <pt x="127" y="662" on="1"/>
      </contour>
    </TTGlyph>
    <TTGlyph name="mu" xMin="141" yMin="-432" xMax="850" yMax="922">
      <contour>
        <pt x="141" y="506" on="1"/>
        <pt x="141" y="922" on="1"/>
        <pt x="272" y="922" on="1"/>
        <pt x="272" y="502" on="1"/>
        <pt x="272" y="434" on="0"/>
        <pt x="275" y="332" on="0"/>
        <pt x="283" y="257" on="0"/>
        <pt x="298" y="205" on="0"/>
        <pt x="311" y="186" on="1"/>
        <pt x="320" y="172" on="0"/>
        <pt x="351" y="142" on="0"/>
        <pt x="397" y="118" on="0"/>
        <pt x="462" y="102" on="0"/>
        <pt x="506" y="102" on="1"/>
        <pt x="555" y="102" on="0"/>
        <pt x="636" y="119" on="0"/>
        <pt x="670" y="133" on="1"/>
        <pt x="670" y="922" on="1"/>
        <pt x="801" y="922" on="1"/>
        <pt x="801" y="174" on="1"/>
        <pt x="850" y="74" on="1"/>
        <pt x="823" y="58" on="0"/>
        <pt x="752" y="24" on="0"/>
        <pt x="663" y="-3" on="0"/>
        <pt x="557" y="-20" on="0"/>
        <pt x="496" y="-20" on="1"/>
        <pt x="445" y="-20" on="0"/>
        <pt x="326" y="1" on="0"/>
        <pt x="272" y="33" on="1"/>
        <pt x="272" y="-432" on="1"/>
        <pt x="141" y="-432" on="1"/>
        <pt x="141" y="461" on="1"/>
      </contour>
    </TTGlyph>
    <TTGlyph name="multiply" xMin="88" yMin="420" xMax="700" yMax="1032">
      <contour>
        <pt x="180" y="1032" on="1"/>
        <pt x="391" y="821" on="1"/>
        <pt x="604" y="1032" on="1"/>
        <pt x="700" y="936" on="1"/>
        <pt x="489" y="725" on="1"/>
        <pt x="700" y="512" on="1"/>
        <pt x="608" y="420" on="1"/>
        <pt x="395" y="631" on="1"/>
        <pt x="184" y="420" on="1"/>
        <pt x="88" y="516" on="1"/>
        <pt x="299" y="729" on="1"/>
        <pt x="88" y="940" on="1"/>
      </contour>
    </TTGlyph>
    <TTGlyph name="n" xMin="81" yMin="0" xMax="790" yMax="942">
      <contour>
        <pt x="81" y="848" on="1"/>
        <pt x="108" y="864" on="0"/>
        <pt x="179" y="898" on="0"/>
        <pt x="268" y="925" on="0"/>
        <pt x="373" y="942" on="0"/>
        <pt x="435" y="942" on="1"/>
        <pt x="474" y="942" on="0"/>
        <pt x="564" y="931" on="0"/>
        <pt x="651" y="897" on="0"/>
        <pt x="727" y="833" on="0"/>
        <pt x="753" y="780" on="1"/>
        <pt x="763" y="757" on="0"/>
        <pt x="777" y="699" on="0"/>
        <pt x="786" y="615" on="0"/>
        <pt x="790" y="498" on="0"/>
        <pt x="790" y="416" on="1"/>
        <pt x="790" y="0" on="1"/>
        <pt x="659" y="0" on="1"/>
        <pt x="659" y="420" on="1"/>
        <pt x="659" y="487" on="0"/>
        <pt x="656" y="588" on="0"/>
        <pt x="648" y="663" on="0"/>
        <pt x="632" y="716" on="0"/>
        <pt x="620" y="735" on="1"/>
        <pt x="611" y="749" on="0"/>
        <pt x="581" y="779" on="0"/>
        <pt x="534" y="803" on="0"/>
        <pt x="469" y="819" on="0"/>
        <pt x="425" y="819" on="1"/>
        <pt x="376" y="819" on="0"/>
        <pt x="295" y="802" on="0"/>
        <pt x="261" y="788" on="1"/>
        <pt x="261" y="0" on="1"/>
        <pt x="130" y="0" on="1"/>
        <pt x="130" y="748" on="1"/>
      </contour>
    </TTGlyph>
    <TTGlyph name="nine" xMin="91" yMin="-20" xMax="816" yMax="1262">
      <contour>
        <pt x="175" y="113" on="1"/>
        <pt x="257" y="136" on="0"/>
        <pt x="399" y="220" on="0"/>
        <pt x="505" y="352" on="0"/>
        <pt x="568" y="537" on="0"/>
        <pt x="572" y="662" on="1"/>
        <pt x="91" y="662" on="1"/>
        <pt x="91" y="922" on="1"/>
        <pt x="91" y="1003" on="0"/>
        <pt x="140" y="1129" on="0"/>
        <pt x="230" y="1216" on="0"/>
        <pt x="359" y="1262" on="0"/>
        <pt x="439" y="1262" on="1"/>
        <pt x="716" y="1262" on="1"/>
        <pt x="716" y="793" on="1"/>
        <pt x="816" y="662" on="1"/>
        <pt x="716" y="662" on="1"/>
        <pt x="715" y="560" on="0"/>
        <pt x="675" y="390" on="0"/>
        <pt x="607" y="251" on="0"/>
        <pt x="515" y="142" on="0"/>
        <pt x="408" y="58" on="0"/>
        <pt x="289" y="-1" on="0"/>
        <pt x="228" y="-20" on="1"/>
      </contour>
      <contour>
        <pt x="572" y="1130" on="1"/>
        <pt x="439" y="1130" on="1"/>
        <pt x="234" y="1130" on="0"/>
        <pt x="234" y="926" on="1"/>
        <pt x="234" y="793" on="1"/>
        <pt x="572" y="793" on="1"/>
      </contour>
    </TTGlyph>
    <TTGlyph name="ntilde" xMin="81" yMin="0" xMax="790" yMax="1337">
      <component glyphName="n" x="0" y="0" flags="0x204"/>
      <component glyphName="tilde" x="74" y="0" flags="0x4"/>
    </TTGlyph>
    <TTGlyph name="numbersign" xMin="61" yMin="0" xMax="878" yMax="1262">
      <contour>
        <pt x="157" y="0" on="1"/>
        <pt x="248" y="432" on="1"/>
        <pt x="61" y="432" on="1"/>
        <pt x="84" y="541" on="1"/>
        <pt x="268" y="541" on="1"/>
        <pt x="313" y="760" on="1"/>
        <pt x="129" y="760" on="1"/>
        <pt x="151" y="868" on="1"/>
        <pt x="336" y="868" on="1"/>
        <pt x="416" y="1262" on="1"/>
        <pt x="512" y="1262" on="1"/>
        <pt x="432" y="868" on="1"/>
        <pt x="596" y="868" on="1"/>
        <pt x="676" y="1262" on="1"/>
        <pt x="774" y="1262" on="1"/>
        <pt x="694" y="868" on="1"/>
        <pt x="878" y="868" on="1"/>
        <pt x="856" y="760" on="1"/>
        <pt x="672" y="760" on="1"/>
        <pt x="626" y="541" on="1"/>
        <pt x="811" y="541" on="1"/>
        <pt x="788" y="432" on="1"/>
        <pt x="606" y="432" on="1"/>
        <pt x="516" y="0" on="1"/>
        <pt x="418" y="0" on="1"/>
        <pt x="508" y="432" on="1"/>
        <pt x="344" y="432" on="1"/>
        <pt x="254" y="0" on="1"/>
      </contour>
      <contour>
        <pt x="530" y="541" on="1"/>
        <pt x="573" y="760" on="1"/>
        <pt x="411" y="760" on="1"/>
        <pt x="366" y="541" on="1"/>
      </contour>
    </TTGlyph>
    <TTGlyph name="o" xMin="111" yMin="-20" xMax="840" yMax="942">
      <contour>
        <pt x="242" y="156" on="1"/>
        <pt x="288" y="124" on="0"/>
        <pt x="396" y="102" on="0"/>
        <pt x="441" y="102" on="1"/>
        <pt x="486" y="102" on="0"/>
        <pt x="593" y="124" on="0"/>
        <pt x="639" y="156" on="1"/>
        <pt x="639" y="547" on="1"/>
        <pt x="639" y="569" on="0"/>
        <pt x="637" y="622" on="0"/>
        <pt x="630" y="676" on="0"/>
        <pt x="613" y="728" on="0"/>
        <pt x="598" y="750" on="1"/>
        <pt x="590" y="760" on="0"/>
        <pt x="565" y="784" on="0"/>
        <pt x="528" y="805" on="0"/>
        <pt x="476" y="819" on="0"/>
        <pt x="441" y="819" on="1"/>
        <pt x="406" y="819" on="0"/>
        <pt x="354" y="805" on="0"/>
        <pt x="315" y="784" on="0"/>
        <pt x="290" y="760" on="0"/>
        <pt x="283" y="750" on="1"/>
        <pt x="268" y="728" on="0"/>
        <pt x="251" y="676" on="0"/>
        <pt x="244" y="622" on="0"/>
        <pt x="242" y="569" on="0"/>
        <pt x="242" y="547" on="1"/>
      </contour>
      <contour>
        <pt x="111" y="543" on="1"/>
        <pt x="111" y="571" on="0"/>
        <pt x="112" y="648" on="0"/>
        <pt x="127" y="731" on="0"/>
        <pt x="161" y="815" on="0"/>
        <pt x="195" y="852" on="1"/>
        <pt x="223" y="883" on="0"/>
        <pt x="287" y="919" on="0"/>
        <pt x="352" y="937" on="0"/>
        <pt x="415" y="942" on="0"/>
        <pt x="441" y="942" on="1"/>
        <pt x="467" y="942" on="0"/>
        <pt x="529" y="937" on="0"/>
        <pt x="593" y="919" on="0"/>
        <pt x="657" y="883" on="0"/>
        <pt x="686" y="852" on="1"/>
        <pt x="720" y="815" on="0"/>
        <pt x="754" y="731" on="0"/>
        <pt x="769" y="647" on="0"/>
        <pt x="770" y="571" on="0"/>
        <pt x="770" y="543" on="1"/>
        <pt x="770" y="209" on="1"/>
        <pt x="840" y="125" on="1"/>
        <pt x="758" y="53" on="0"/>
        <pt x="562" y="-20" on="0"/>
        <pt x="441" y="-20" on="1"/>
        <pt x="381" y="-20" on="0"/>
        <pt x="281" y="-4" on="0"/>
        <pt x="200" y="22" on="0"/>
        <pt x="135" y="55" on="0"/>
        <pt x="111" y="72" on="1"/>
      </contour>
    </TTGlyph>
    <TTGlyph name="oacute" xMin="111" yMin="-20" xMax="840" yMax="1341">
      <component glyphName="o" x="0" y="0" flags="0x204"/>
      <component glyphName="acute" x="217" y="0" flags="0x4"/>
    </TTGlyph>
    <TTGlyph name="ocircumflex" xMin="111" yMin="-20" xMax="840" yMax="1341">
      <component glyphName="o" x="0" y="0" flags="0x204"/>
      <component glyphName="circumflex" x="95" y="0" flags="0x4"/>
    </TTGlyph>
    <TTGlyph name="odieresis" xMin="111" yMin="-20" xMax="840" yMax="1262">
      <component glyphName="o" x="0" y="0" flags="0x204"/>
      <component glyphName="dieresis" x="166" y="0" flags="0x4"/>
    </TTGlyph>
    <TTGlyph name="oe" xMin="111" yMin="-20" xMax="1270" yMax="942">
      <contour>
        <pt x="770" y="424" on="1"/>
        <pt x="770" y="156" on="1"/>
        <pt x="818" y="124" on="0"/>
        <pt x="929" y="102" on="0"/>
        <pt x="975" y="102" on="1"/>
        <pt x="1064" y="102" on="0"/>
        <pt x="1204" y="142" on="0"/>
        <pt x="1270" y="186" on="1"/>
        <pt x="1270" y="49" on="1"/>
        <pt x="1207" y="12" on="0"/>
        <pt x="1064" y="-20" on="0"/>
        <pt x="979" y="-20" on="1"/>
        <pt x="898" y="-20" on="0"/>
        <pt x="765" y="9" on="0"/>
        <pt x="705" y="35" on="1"/>
        <pt x="645" y="9" on="0"/>
        <pt x="516" y="-20" on="0"/>
        <pt x="441" y="-20" on="1"/>
        <pt x="381" y="-20" on="0"/>
        <pt x="281" y="-4" on="0"/>
        <pt x="200" y="22" on="0"/>
        <pt x="135" y="55" on="0"/>
        <pt x="111" y="72" on="1"/>
        <pt x="111" y="543" on="1"/>
        <pt x="111" y="572" on="0"/>
        <pt x="112" y="648" on="0"/>
        <pt x="127" y="731" on="0"/>
        <pt x="161" y="815" on="0"/>
        <pt x="195" y="852" on="1"/>
        <pt x="223" y="883" on="0"/>
        <pt x="288" y="919" on="0"/>
        <pt x="353" y="937" on="0"/>
        <pt x="415" y="942" on="0"/>
        <pt x="441" y="942" on="1"/>
        <pt x="475" y="942" on="0"/>
        <pt x="542" y="932" on="0"/>
        <pt x="608" y="906" on="0"/>
        <pt x="672" y="864" on="0"/>
        <pt x="703" y="831" on="1"/>
        <pt x="763" y="896" on="0"/>
        <pt x="889" y="942" on="0"/>
        <pt x="955" y="942" on="1"/>
        <pt x="980" y="942" on="0"/>
        <pt x="1039" y="937" on="0"/>
        <pt x="1100" y="919" on="0"/>
        <pt x="1161" y="883" on="0"/>
        <pt x="1188" y="852" on="1"/>
        <pt x="1220" y="815" on="0"/>
        <pt x="1254" y="730" on="0"/>
        <pt x="1269" y="647" on="0"/>
        <pt x="1270" y="571" on="0"/>
        <pt x="1270" y="543" on="1"/>
        <pt x="1270" y="424" on="1"/>
      </contour>
      <contour>
        <pt x="242" y="156" on="1"/>
        <pt x="288" y="124" on="0"/>
        <pt x="396" y="102" on="0"/>
        <pt x="441" y="102" on="1"/>
        <pt x="486" y="102" on="0"/>
        <pt x="593" y="124" on="0"/>
        <pt x="639" y="156" on="1"/>
        <pt x="639" y="580" on="1"/>
        <pt x="638" y="601" on="0"/>
        <pt x="634" y="646" on="0"/>
        <pt x="626" y="691" on="0"/>
        <pt x="611" y="733" on="0"/>
        <pt x="598" y="750" on="1"/>
        <pt x="590" y="760" on="0"/>
        <pt x="565" y="784" on="0"/>
        <pt x="527" y="805" on="0"/>
        <pt x="475" y="819" on="0"/>
        <pt x="441" y="819" on="1"/>
        <pt x="406" y="819" on="0"/>
        <pt x="354" y="805" on="0"/>
        <pt x="315" y="784" on="0"/>
        <pt x="290" y="760" on="0"/>
        <pt x="283" y="750" on="1"/>
        <pt x="268" y="728" on="0"/>
        <pt x="251" y="676" on="0"/>
        <pt x="244" y="622" on="0"/>
        <pt x="242" y="569" on="0"/>
        <pt x="242" y="547" on="1"/>
      </contour>
      <contour>
        <pt x="1129" y="547" on="1"/>
        <pt x="1129" y="568" on="0"/>
        <pt x="1128" y="621" on="0"/>
        <pt x="1121" y="676" on="0"/>
        <pt x="1106" y="729" on="0"/>
        <pt x="1092" y="750" on="1"/>
        <pt x="1085" y="760" on="0"/>
        <pt x="1062" y="784" on="0"/>
        <pt x="1028" y="805" on="0"/>
        <pt x="980" y="819" on="0"/>
        <pt x="949" y="819" on="1"/>
        <pt x="918" y="819" on="0"/>
        <pt x="871" y="805" on="0"/>
        <pt x="836" y="784" on="0"/>
        <pt x="813" y="760" on="0"/>
        <pt x="805" y="750" on="1"/>
        <pt x="792" y="728" on="0"/>
        <pt x="778" y="676" on="0"/>
        <pt x="771" y="622" on="0"/>
        <pt x="770" y="569" on="0"/>
        <pt x="770" y="547" on="1"/>
      </contour>
    </TTGlyph>
    <TTGlyph name="ograve" xMin="111" yMin="-20" xMax="840" yMax="1341">
      <component glyphName="o" x="0" y="0" flags="0x204"/>
      <component glyphName="grave" x="218" y="0" flags="0x4"/>
    </TTGlyph>
    <TTGlyph name="one" xMin="104" yMin="0" xMax="291" yMax="1262">
      <contour>
        <pt x="291" y="1262" on="1"/>
        <pt x="291" y="0" on="1"/>
        <pt x="147" y="0" on="1"/>
        <pt x="147" y="1128" on="1"/>
        <pt x="104" y="1262" on="1"/>
      </contour>
    </TTGlyph>
    <TTGlyph name="onehalf" xMin="67" yMin="-20" xMax="986" yMax="1282">
      <component glyphName="fraction" x="169" y="0" flags="0x4"/>
      <component glyphName="onesuperior" x="-13" y="0" flags="0x4"/>
      <component glyphName="twosuperior" x="575" y="-687" flags="0x4"/>
    </TTGlyph>
    <TTGlyph name="onequarter" xMin="77" yMin="-20" xMax="1208" yMax="1282">
      <component glyphName="fraction" x="179" y="0" flags="0x4"/>
      <component glyphName="onesuperior" x="-3" y="0" flags="0x4"/>
      <component glyphName="foursuperior" x="647" y="-688" flags="0x4"/>
    </TTGlyph>
    <TTGlyph name="onesuperior" xMin="80" yMin="688" xMax="240" yMax="1262">
      <contour>
        <pt x="240" y="1262" on="1"/>
        <pt x="240" y="688" on="1"/>
        <pt x="123" y="688" on="1"/>
        <pt x="123" y="1128" on="1"/>
        <pt x="80" y="1262" on="1"/>
      </contour>
    </TTGlyph>
    <TTGlyph name="ordfeminine" xMin="71" yMin="668" xMax="514" yMax="1282">
      <contour>
        <pt x="172" y="1282" on="1"/>
        <pt x="226" y="1282" on="0"/>
        <pt x="337" y="1263" on="0"/>
        <pt x="425" y="1213" on="0"/>
        <pt x="481" y="1123" on="0"/>
        <pt x="481" y="1053" on="1"/>
        <pt x="481" y="784" on="1"/>
        <pt x="514" y="731" on="1"/>
        <pt x="454" y="696" on="0"/>
        <pt x="339" y="668" on="0"/>
        <pt x="288" y="668" on="1"/>
        <pt x="222" y="668" on="0"/>
        <pt x="146" y="700" on="0"/>
        <pt x="124" y="723" on="1"/>
        <pt x="101" y="745" on="0"/>
        <pt x="71" y="813" on="0"/>
        <pt x="71" y="856" on="1"/>
        <pt x="71" y="923" on="0"/>
        <pt x="122" y="1008" on="0"/>
        <pt x="205" y="1056" on="0"/>
        <pt x="310" y="1074" on="0"/>
        <pt x="364" y="1075" on="1"/>
        <pt x="360" y="1104" on="0"/>
        <pt x="319" y="1143" on="0"/>
        <pt x="261" y="1166" on="0"/>
        <pt x="192" y="1177" on="0"/>
        <pt x="161" y="1178" on="1"/>
      </contour>
      <contour>
        <pt x="364" y="969" on="1"/>
        <pt x="340" y="969" on="0"/>
        <pt x="278" y="964" on="0"/>
        <pt x="221" y="943" on="0"/>
        <pt x="182" y="903" on="0"/>
        <pt x="182" y="868" on="1"/>
        <pt x="182" y="841" on="0"/>
        <pt x="201" y="807" on="0"/>
        <pt x="230" y="787" on="0"/>
        <pt x="265" y="780" on="0"/>
        <pt x="282" y="780" on="1"/>
        <pt x="307" y="780" on="0"/>
        <pt x="345" y="790" on="0"/>
        <pt x="364" y="797" on="1"/>
      </contour>
    </TTGlyph>
    <TTGlyph name="ordmasculine" xMin="98" yMin="668" xMax="477" yMax="1282">
      <contour>
        <pt x="477" y="897" on="1"/>
        <pt x="477" y="880" on="0"/>
        <pt x="476" y="836" on="0"/>
        <pt x="467" y="788" on="0"/>
        <pt x="447" y="740" on="0"/>
        <pt x="428" y="719" on="1"/>
        <pt x="412" y="701" on="0"/>
        <pt x="375" y="681" on="0"/>
        <pt x="337" y="671" on="0"/>
        <pt x="301" y="668" on="0"/>
        <pt x="286" y="668" on="1"/>
        <pt x="272" y="668" on="0"/>
        <pt x="236" y="670" on="0"/>
        <pt x="199" y="681" on="0"/>
        <pt x="161" y="701" on="0"/>
        <pt x="145" y="719" on="1"/>
        <pt x="126" y="740" on="0"/>
        <pt x="106" y="789" on="0"/>
        <pt x="98" y="837" on="0"/>
        <pt x="98" y="881" on="0"/>
        <pt x="98" y="897" on="1"/>
        <pt x="98" y="1053" on="1"/>
        <pt x="98" y="1069" on="0"/>
        <pt x="98" y="1113" on="0"/>
        <pt x="106" y="1161" on="0"/>
        <pt x="126" y="1210" on="0"/>
        <pt x="145" y="1231" on="1"/>
        <pt x="161" y="1249" on="0"/>
        <pt x="199" y="1269" on="0"/>
        <pt x="236" y="1279" on="0"/>
        <pt x="272" y="1282" on="0"/>
        <pt x="286" y="1282" on="1"/>
        <pt x="301" y="1282" on="0"/>
        <pt x="337" y="1279" on="0"/>
        <pt x="375" y="1269" on="0"/>
        <pt x="412" y="1249" on="0"/>
        <pt x="428" y="1231" on="1"/>
        <pt x="447" y="1210" on="0"/>
        <pt x="467" y="1161" on="0"/>
        <pt x="476" y="1113" on="0"/>
        <pt x="477" y="1069" on="0"/>
        <pt x="477" y="1053" on="1"/>
      </contour>
      <contour>
        <pt x="208" y="887" on="1"/>
        <pt x="208" y="872" on="0"/>
        <pt x="210" y="835" on="0"/>
        <pt x="225" y="802" on="0"/>
        <pt x="257" y="780" on="0"/>
        <pt x="286" y="780" on="1"/>
        <pt x="316" y="780" on="0"/>
        <pt x="346" y="803" on="0"/>
        <pt x="359" y="836" on="0"/>
        <pt x="360" y="873" on="0"/>
        <pt x="360" y="887" on="1"/>
        <pt x="360" y="1063" on="1"/>
        <pt x="360" y="1077" on="0"/>
        <pt x="359" y="1114" on="0"/>
        <pt x="346" y="1147" on="0"/>
        <pt x="316" y="1169" on="0"/>
        <pt x="286" y="1169" on="1"/>
        <pt x="256" y="1169" on="0"/>
        <pt x="225" y="1146" on="0"/>
        <pt x="210" y="1113" on="0"/>
        <pt x="208" y="1077" on="0"/>
        <pt x="208" y="1063" on="1"/>
      </contour>
    </TTGlyph>
    <TTGlyph name="oslash" xMin="-4" yMin="-166" xMax="908" yMax="973">
      <contour>
        <pt x="115" y="72" on="1"/>
        <pt x="115" y="543" on="1"/>
        <pt x="115" y="571" on="0"/>
        <pt x="116" y="648" on="0"/>
        <pt x="131" y="731" on="0"/>
        <pt x="165" y="815" on="0"/>
        <pt x="199" y="852" on="1"/>
        <pt x="227" y="883" on="0"/>
        <pt x="291" y="919" on="0"/>
        <pt x="356" y="937" on="0"/>
        <pt x="419" y="942" on="0"/>
        <pt x="445" y="942" on="1"/>
        <pt x="471" y="942" on="0"/>
        <pt x="533" y="937" on="0"/>
        <pt x="597" y="919" on="0"/>
        <pt x="661" y="883" on="0"/>
        <pt x="690" y="852" on="1"/>
        <pt x="703" y="838" on="1"/>
        <pt x="807" y="973" on="1"/>
        <pt x="908" y="891" on="1"/>
        <pt x="762" y="702" on="1"/>
        <pt x="770" y="670" on="0"/>
        <pt x="774" y="608" on="0"/>
        <pt x="774" y="582" on="1"/>
        <pt x="774" y="543" on="1"/>
        <pt x="774" y="209" on="1"/>
        <pt x="844" y="125" on="1"/>
        <pt x="762" y="53" on="0"/>
        <pt x="566" y="-20" on="0"/>
        <pt x="445" y="-20" on="1"/>
        <pt x="379" y="-20" on="0"/>
        <pt x="276" y="-2" on="0"/>
        <pt x="234" y="12" on="1"/>
        <pt x="96" y="-166" on="1"/>
        <pt x="-4" y="-84" on="1"/>
      </contour>
      <contour>
        <pt x="246" y="242" on="1"/>
        <pt x="617" y="725" on="1"/>
        <pt x="602" y="750" on="1"/>
        <pt x="594" y="760" on="0"/>
        <pt x="569" y="784" on="0"/>
        <pt x="532" y="805" on="0"/>
        <pt x="480" y="819" on="0"/>
        <pt x="445" y="819" on="1"/>
        <pt x="410" y="819" on="0"/>
        <pt x="358" y="805" on="0"/>
        <pt x="319" y="784" on="0"/>
        <pt x="294" y="760" on="0"/>
        <pt x="287" y="750" on="1"/>
        <pt x="272" y="728" on="0"/>
        <pt x="255" y="676" on="0"/>
        <pt x="248" y="622" on="0"/>
        <pt x="246" y="569" on="0"/>
        <pt x="246" y="547" on="1"/>
      </contour>
      <contour>
        <pt x="643" y="547" on="1"/>
        <pt x="316" y="121" on="1"/>
        <pt x="350" y="110" on="0"/>
        <pt x="416" y="102" on="0"/>
        <pt x="445" y="102" on="1"/>
        <pt x="490" y="102" on="0"/>
        <pt x="597" y="124" on="0"/>
        <pt x="643" y="156" on="1"/>
      </contour>
    </TTGlyph>
    <TTGlyph name="otilde" xMin="111" yMin="-20" xMax="840" yMax="1337">
      <component glyphName="o" x="0" y="0" flags="0x204"/>
      <component glyphName="tilde" x="75" y="0" flags="0x4"/>
    </TTGlyph>
    <TTGlyph name="p" xMin="76" yMin="-432" xMax="810" yMax="942">
      <contour>
        <pt x="76" y="848" on="1"/>
        <pt x="107" y="866" on="0"/>
        <pt x="184" y="900" on="0"/>
        <pt x="273" y="926" on="0"/>
        <pt x="371" y="942" on="0"/>
        <pt x="423" y="942" on="1"/>
        <pt x="529" y="942" on="0"/>
        <pt x="676" y="861" on="0"/>
        <pt x="768" y="727" on="0"/>
        <pt x="810" y="553" on="0"/>
        <pt x="810" y="461" on="1"/>
        <pt x="810" y="369" on="0"/>
        <pt x="763" y="195" on="0"/>
        <pt x="668" y="61" on="0"/>
        <pt x="526" y="-20" on="0"/>
        <pt x="431" y="-20" on="1"/>
        <pt x="383" y="-20" on="0"/>
        <pt x="308" y="-8" on="0"/>
        <pt x="265" y="4" on="1"/>
        <pt x="265" y="-432" on="1"/>
        <pt x="134" y="-432" on="1"/>
        <pt x="134" y="743" on="1"/>
      </contour>
      <contour>
        <pt x="265" y="135" on="1"/>
        <pt x="287" y="126" on="0"/>
        <pt x="361" y="102" on="0"/>
        <pt x="412" y="102" on="1"/>
        <pt x="487" y="102" on="0"/>
        <pt x="588" y="168" on="0"/>
        <pt x="649" y="272" on="0"/>
        <pt x="674" y="399" on="0"/>
        <pt x="674" y="461" on="1"/>
        <pt x="674" y="522" on="0"/>
        <pt x="652" y="650" on="0"/>
        <pt x="593" y="753" on="0"/>
        <pt x="492" y="819" on="0"/>
        <pt x="414" y="819" on="1"/>
        <pt x="376" y="819" on="0"/>
        <pt x="296" y="802" on="0"/>
        <pt x="265" y="786" on="1"/>
      </contour>
    </TTGlyph>
    <TTGlyph name="paragraph" xMin="76" yMin="-215" xMax="855" yMax="1341">
      <contour>
        <pt x="308" y="588" on="1"/>
        <pt x="289" y="588" on="0"/>
        <pt x="246" y="591" on="0"/>
        <pt x="200" y="604" on="0"/>
        <pt x="155" y="629" on="0"/>
        <pt x="134" y="651" on="1"/>
        <pt x="113" y="672" on="0"/>
        <pt x="90" y="722" on="0"/>
        <pt x="79" y="772" on="0"/>
        <pt x="76" y="821" on="0"/>
        <pt x="76" y="841" on="1"/>
        <pt x="76" y="1088" on="1"/>
        <pt x="76" y="1108" on="0"/>
        <pt x="79" y="1156" on="0"/>
        <pt x="91" y="1207" on="0"/>
        <pt x="114" y="1257" on="0"/>
        <pt x="134" y="1278" on="1"/>
        <pt x="155" y="1300" on="0"/>
        <pt x="200" y="1325" on="0"/>
        <pt x="246" y="1338" on="0"/>
        <pt x="289" y="1341" on="0"/>
        <pt x="308" y="1341" on="1"/>
        <pt x="855" y="1341" on="1"/>
        <pt x="855" y="1210" on="1"/>
        <pt x="773" y="1210" on="1"/>
        <pt x="773" y="-215" on="1"/>
        <pt x="629" y="-215" on="1"/>
        <pt x="629" y="1210" on="1"/>
        <pt x="490" y="1210" on="1"/>
        <pt x="490" y="-215" on="1"/>
        <pt x="349" y="-215" on="1"/>
        <pt x="349" y="588" on="1"/>
      </contour>
    </TTGlyph>
    <TTGlyph name="parenleft" xMin="87" yMin="-301" xMax="455" yMax="1343">
      <contour>
        <pt x="343" y="-301" on="1"/>
        <pt x="262" y="-182" on="0"/>
        <pt x="162" y="41" on="0"/>
        <pt x="106" y="247" on="0"/>
        <pt x="87" y="435" on="0"/>
        <pt x="87" y="520" on="1"/>
        <pt x="87" y="605" on="0"/>
        <pt x="106" y="795" on="0"/>
        <pt x="161" y="1001" on="0"/>
        <pt x="262" y="1224" on="0"/>
        <pt x="343" y="1343" on="1"/>
        <pt x="455" y="1270" on="1"/>
        <pt x="383" y="1170" on="0"/>
        <pt x="292" y="961" on="0"/>
        <pt x="241" y="763" on="0"/>
        <pt x="222" y="587" on="0"/>
        <pt x="222" y="520" on="1"/>
        <pt x="222" y="452" on="0"/>
        <pt x="241" y="278" on="0"/>
        <pt x="292" y="82" on="0"/>
        <pt x="383" y="-125" on="0"/>
        <pt x="455" y="-225" on="1"/>
      </contour>
    </TTGlyph>
    <TTGlyph name="parenright" xMin="41" yMin="-301" xMax="409" yMax="1343">
      <contour>
        <pt x="41" y="-225" on="1"/>
        <pt x="113" y="-125" on="0"/>
        <pt x="204" y="82" on="0"/>
        <pt x="255" y="278" on="0"/>
        <pt x="274" y="452" on="0"/>
        <pt x="274" y="520" on="1"/>
        <pt x="274" y="587" on="0"/>
        <pt x="255" y="763" on="0"/>
        <pt x="204" y="961" on="0"/>
        <pt x="113" y="1170" on="0"/>
        <pt x="41" y="1270" on="1"/>
        <pt x="153" y="1343" on="1"/>
        <pt x="234" y="1224" on="0"/>
        <pt x="335" y="1001" on="0"/>
        <pt x="390" y="795" on="0"/>
        <pt x="409" y="605" on="0"/>
        <pt x="409" y="520" on="1"/>
        <pt x="409" y="435" on="0"/>
        <pt x="390" y="247" on="0"/>
        <pt x="334" y="41" on="0"/>
        <pt x="234" y="-182" on="0"/>
        <pt x="153" y="-301" on="1"/>
      </contour>
    </TTGlyph>
    <TTGlyph name="percent" xMin="80" yMin="-20" xMax="1075" yMax="1282">
      <contour>
        <pt x="741" y="1282" on="1"/>
        <pt x="864" y="1239" on="1"/>
        <pt x="412" y="-20" on="1"/>
        <pt x="289" y="23" on="1"/>
      </contour>
      <contour>
        <pt x="459" y="897" on="1"/>
        <pt x="459" y="880" on="0"/>
        <pt x="458" y="836" on="0"/>
        <pt x="449" y="788" on="0"/>
        <pt x="429" y="740" on="0"/>
        <pt x="410" y="719" on="1"/>
        <pt x="394" y="701" on="0"/>
        <pt x="357" y="681" on="0"/>
        <pt x="319" y="671" on="0"/>
        <pt x="283" y="668" on="0"/>
        <pt x="268" y="668" on="1"/>
        <pt x="254" y="668" on="0"/>
        <pt x="218" y="670" on="0"/>
        <pt x="181" y="681" on="0"/>
        <pt x="143" y="701" on="0"/>
        <pt x="127" y="719" on="1"/>
        <pt x="108" y="740" on="0"/>
        <pt x="88" y="789" on="0"/>
        <pt x="80" y="837" on="0"/>
        <pt x="80" y="881" on="0"/>
        <pt x="80" y="897" on="1"/>
        <pt x="80" y="1053" on="1"/>
        <pt x="80" y="1069" on="0"/>
        <pt x="80" y="1113" on="0"/>
        <pt x="88" y="1161" on="0"/>
        <pt x="108" y="1210" on="0"/>
        <pt x="127" y="1231" on="1"/>
        <pt x="143" y="1249" on="0"/>
        <pt x="181" y="1269" on="0"/>
        <pt x="218" y="1279" on="0"/>
        <pt x="254" y="1282" on="0"/>
        <pt x="268" y="1282" on="1"/>
        <pt x="283" y="1282" on="0"/>
        <pt x="319" y="1279" on="0"/>
        <pt x="357" y="1269" on="0"/>
        <pt x="394" y="1249" on="0"/>
        <pt x="410" y="1231" on="1"/>
        <pt x="429" y="1210" on="0"/>
        <pt x="449" y="1161" on="0"/>
        <pt x="458" y="1113" on="0"/>
        <pt x="459" y="1069" on="0"/>
        <pt x="459" y="1053" on="1"/>
      </contour>
      <contour>
        <pt x="190" y="887" on="1"/>
        <pt x="190" y="872" on="0"/>
        <pt x="192" y="835" on="0"/>
        <pt x="207" y="802" on="0"/>
        <pt x="239" y="780" on="0"/>
        <pt x="268" y="780" on="1"/>
        <pt x="298" y="780" on="0"/>
        <pt x="328" y="803" on="0"/>
        <pt x="341" y="836" on="0"/>
        <pt x="342" y="873" on="0"/>
        <pt x="342" y="887" on="1"/>
        <pt x="342" y="1063" on="1"/>
        <pt x="342" y="1077" on="0"/>
        <pt x="341" y="1114" on="0"/>
        <pt x="328" y="1147" on="0"/>
        <pt x="298" y="1169" on="0"/>
        <pt x="268" y="1169" on="1"/>
        <pt x="238" y="1169" on="0"/>
        <pt x="207" y="1146" on="0"/>
        <pt x="192" y="1113" on="0"/>
        <pt x="190" y="1077" on="0"/>
        <pt x="190" y="1063" on="1"/>
      </contour>
      <contour>
        <pt x="1075" y="209" on="1"/>
        <pt x="1075" y="192" on="0"/>
        <pt x="1074" y="148" on="0"/>
        <pt x="1065" y="100" on="0"/>
        <pt x="1045" y="52" on="0"/>
        <pt x="1026" y="31" on="1"/>
        <pt x="1010" y="13" on="0"/>
        <pt x="973" y="-7" on="0"/>
        <pt x="936" y="-17" on="0"/>
        <pt x="900" y="-20" on="0"/>
        <pt x="885" y="-20" on="1"/>
        <pt x="871" y="-20" on="0"/>
        <pt x="835" y="-18" on="0"/>
        <pt x="797" y="-7" on="0"/>
        <pt x="759" y="13" on="0"/>
        <pt x="743" y="31" on="1"/>
        <pt x="724" y="52" on="0"/>
        <pt x="704" y="101" on="0"/>
        <pt x="696" y="149" on="0"/>
        <pt x="696" y="193" on="0"/>
        <pt x="696" y="209" on="1"/>
        <pt x="696" y="365" on="1"/>
        <pt x="696" y="381" on="0"/>
        <pt x="696" y="424" on="0"/>
        <pt x="704" y="472" on="0"/>
        <pt x="724" y="521" on="0"/>
        <pt x="743" y="543" on="1"/>
        <pt x="760" y="561" on="0"/>
        <pt x="797" y="581" on="0"/>
        <pt x="835" y="591" on="0"/>
        <pt x="870" y="594" on="0"/>
        <pt x="885" y="594" on="1"/>
        <pt x="900" y="594" on="0"/>
        <pt x="936" y="591" on="0"/>
        <pt x="973" y="581" on="0"/>
        <pt x="1010" y="561" on="0"/>
        <pt x="1026" y="543" on="1"/>
        <pt x="1045" y="521" on="0"/>
        <pt x="1065" y="472" on="0"/>
        <pt x="1074" y="424" on="0"/>
        <pt x="1075" y="381" on="0"/>
        <pt x="1075" y="365" on="1"/>
      </contour>
      <contour>
        <pt x="807" y="199" on="1"/>
        <pt x="807" y="184" on="0"/>
        <pt x="809" y="146" on="0"/>
        <pt x="824" y="114" on="0"/>
        <pt x="855" y="92" on="0"/>
        <pt x="885" y="92" on="1"/>
        <pt x="914" y="92" on="0"/>
        <pt x="944" y="115" on="0"/>
        <pt x="957" y="148" on="0"/>
        <pt x="958" y="185" on="0"/>
        <pt x="958" y="199" on="1"/>
        <pt x="958" y="375" on="1"/>
        <pt x="958" y="389" on="0"/>
        <pt x="957" y="426" on="0"/>
        <pt x="944" y="459" on="0"/>
        <pt x="914" y="481" on="0"/>
        <pt x="885" y="481" on="1"/>
        <pt x="855" y="481" on="0"/>
        <pt x="823" y="459" on="0"/>
        <pt x="809" y="426" on="0"/>
        <pt x="807" y="389" on="0"/>
        <pt x="807" y="375" on="1"/>
      </contour>
    </TTGlyph>
    <TTGlyph name="period" xMin="95" yMin="0" xMax="267" yMax="172">
      <contour>
        <pt x="267" y="172" on="1"/>
        <pt x="267" y="0" on="1"/>
        <pt x="95" y="0" on="1"/>
        <pt x="95" y="172" on="1"/>
      </contour>
    </TTGlyph>
    <TTGlyph name="periodcentered" xMin="115" yMin="537" xMax="287" yMax="709">
      <contour>
        <pt x="287" y="709" on="1"/>
        <pt x="287" y="537" on="1"/>
        <pt x="115" y="537" on="1"/>
        <pt x="115" y="709" on="1"/>
      </contour>
    </TTGlyph>
    <TTGlyph name="plus" xMin="64" yMin="362" xMax="758" yMax="1092">
      <contour>
        <pt x="64" y="793" on="1"/>
        <pt x="342" y="793" on="1"/>
        <pt x="342" y="1092" on="1"/>
        <pt x="480" y="1092" on="1"/>
        <pt x="480" y="793" on="1"/>
        <pt x="758" y="793" on="1"/>
        <pt x="758" y="662" on="1"/>
        <pt x="480" y="662" on="1"/>
        <pt x="480" y="362" on="1"/>
        <pt x="342" y="362" on="1"/>
        <pt x="342" y="662" on="1"/>
        <pt x="64" y="662" on="1"/>
      </contour>
    </TTGlyph>
    <TTGlyph name="plusminus" xMin="117" yMin="193" xMax="811" yMax="1092">
      <contour>
        <pt x="117" y="793" on="1"/>
        <pt x="395" y="793" on="1"/>
        <pt x="395" y="1092" on="1"/>
        <pt x="533" y="1092" on="1"/>
        <pt x="533" y="793" on="1"/>
        <pt x="811" y="793" on="1"/>
        <pt x="811" y="662" on="1"/>
        <pt x="533" y="662" on="1"/>
        <pt x="533" y="444" on="1"/>
        <pt x="395" y="444" on="1"/>
        <pt x="395" y="662" on="1"/>
        <pt x="117" y="662" on="1"/>
      </contour>
      <contour>
        <pt x="117" y="324" on="1"/>
        <pt x="811" y="324" on="1"/>
        <pt x="811" y="193" on="1"/>
        <pt x="117" y="193" on="1"/>
      </contour>
    </TTGlyph>
    <TTGlyph name="q" xMin="91" yMin="-432" xMax="825" yMax="942">
      <contour>
        <pt x="767" y="743" on="1"/>
        <pt x="767" y="-432" on="1"/>
        <pt x="636" y="-432" on="1"/>
        <pt x="636" y="4" on="1"/>
        <pt x="593" y="-8" on="0"/>
        <pt x="518" y="-20" on="0"/>
        <pt x="470" y="-20" on="1"/>
        <pt x="375" y="-20" on="0"/>
        <pt x="232" y="61" on="0"/>
        <pt x="138" y="195" on="0"/>
        <pt x="91" y="369" on="0"/>
        <pt x="91" y="461" on="1"/>
        <pt x="91" y="553" on="0"/>
        <pt x="133" y="727" on="0"/>
        <pt x="225" y="861" on="0"/>
        <pt x="372" y="942" on="0"/>
        <pt x="478" y="942" on="1"/>
        <pt x="530" y="942" on="0"/>
        <pt x="628" y="926" on="0"/>
        <pt x="717" y="899" on="0"/>
        <pt x="793" y="866" on="0"/>
        <pt x="825" y="848" on="1"/>
      </contour>
      <contour>
        <pt x="636" y="786" on="1"/>
        <pt x="605" y="802" on="0"/>
        <pt x="525" y="819" on="0"/>
        <pt x="487" y="819" on="1"/>
        <pt x="409" y="819" on="0"/>
        <pt x="308" y="753" on="0"/>
        <pt x="249" y="650" on="0"/>
        <pt x="227" y="522" on="0"/>
        <pt x="227" y="461" on="1"/>
        <pt x="227" y="399" on="0"/>
        <pt x="252" y="272" on="0"/>
        <pt x="313" y="168" on="0"/>
        <pt x="414" y="102" on="0"/>
        <pt x="489" y="102" on="1"/>
        <pt x="540" y="102" on="0"/>
        <pt x="614" y="126" on="0"/>
        <pt x="636" y="135" on="1"/>
      </contour>
    </TTGlyph>
    <TTGlyph name="question" xMin="52" yMin="0" xMax="660" yMax="1282">
      <contour>
        <pt x="312" y="1282" on="1"/>
        <pt x="393" y="1282" on="0"/>
        <pt x="522" y="1235" on="0"/>
        <pt x="612" y="1152" on="0"/>
        <pt x="660" y="1036" on="0"/>
        <pt x="660" y="967" on="1"/>
        <pt x="660" y="915" on="0"/>
        <pt x="637" y="830" on="0"/>
        <pt x="598" y="760" on="0"/>
        <pt x="547" y="700" on="0"/>
        <pt x="519" y="672" on="1"/>
        <pt x="392" y="547" on="1"/>
        <pt x="392" y="334" on="1"/>
        <pt x="249" y="334" on="1"/>
        <pt x="249" y="604" on="1"/>
        <pt x="413" y="762" on="1"/>
        <pt x="433" y="781" on="0"/>
        <pt x="470" y="825" on="0"/>
        <pt x="499" y="875" on="0"/>
        <pt x="517" y="933" on="0"/>
        <pt x="517" y="967" on="1"/>
        <pt x="517" y="1006" on="0"/>
        <pt x="487" y="1073" on="0"/>
        <pt x="432" y="1123" on="0"/>
        <pt x="356" y="1151" on="0"/>
        <pt x="310" y="1151" on="1"/>
        <pt x="256" y="1151" on="0"/>
        <pt x="161" y="1128" on="0"/>
        <pt x="105" y="1102" on="1"/>
        <pt x="52" y="1223" on="1"/>
        <pt x="112" y="1254" on="0"/>
        <pt x="234" y="1282" on="0"/>
      </contour>
      <contour>
        <pt x="408" y="172" on="1"/>
        <pt x="408" y="0" on="1"/>
        <pt x="236" y="0" on="1"/>
        <pt x="236" y="172" on="1"/>
      </contour>
    </TTGlyph>
    <TTGlyph name="questiondown" xMin="72" yMin="-360" xMax="680" yMax="922">
      <contour>
        <pt x="420" y="-360" on="1"/>
        <pt x="339" y="-360" on="0"/>
        <pt x="210" y="-313" on="0"/>
        <pt x="120" y="-230" on="0"/>
        <pt x="72" y="-114" on="0"/>
        <pt x="72" y="-45" on="1"/>
        <pt x="72" y="6" on="0"/>
        <pt x="95" y="91" on="0"/>
        <pt x="134" y="162" on="0"/>
        <pt x="185" y="222" on="0"/>
        <pt x="213" y="250" on="1"/>
        <pt x="340" y="375" on="1"/>
        <pt x="340" y="588" on="1"/>
        <pt x="484" y="588" on="1"/>
        <pt x="484" y="317" on="1"/>
        <pt x="320" y="160" on="1"/>
        <pt x="300" y="140" on="0"/>
        <pt x="262" y="97" on="0"/>
        <pt x="233" y="47" on="0"/>
        <pt x="215" y="-11" on="0"/>
        <pt x="215" y="-45" on="1"/>
        <pt x="215" y="-84" on="0"/>
        <pt x="245" y="-152" on="0"/>
        <pt x="300" y="-201" on="0"/>
        <pt x="376" y="-229" on="0"/>
        <pt x="422" y="-229" on="1"/>
        <pt x="476" y="-229" on="0"/>
        <pt x="571" y="-206" on="0"/>
        <pt x="627" y="-180" on="1"/>
        <pt x="680" y="-301" on="1"/>
        <pt x="620" y="-332" on="0"/>
        <pt x="499" y="-360" on="0"/>
      </contour>
      <contour>
        <pt x="324" y="750" on="1"/>
        <pt x="324" y="922" on="1"/>
        <pt x="496" y="922" on="1"/>
        <pt x="496" y="750" on="1"/>
      </contour>
    </TTGlyph>
    <TTGlyph name="quotedbl" xMin="100" yMin="922" xMax="493" yMax="1262">
      <contour>
        <pt x="231" y="1262" on="1"/>
        <pt x="231" y="922" on="1"/>
        <pt x="100" y="922" on="1"/>
        <pt x="100" y="1262" on="1"/>
      </contour>
      <contour>
        <pt x="493" y="1262" on="1"/>
        <pt x="493" y="922" on="1"/>
        <pt x="362" y="922" on="1"/>
        <pt x="362" y="1262" on="1"/>
      </contour>
    </TTGlyph>
    <TTGlyph name="quotedblbase" xMin="67" yMin="-207" xMax="543" yMax="173">
      <component glyphName="quoteright" x="4" y="-1168" flags="0x4"/>
      <component glyphName="quoteright" x="288" y="-1168" flags="0x4"/>
    </TTGlyph>
    <TTGlyph name="quotedblleft" xMin="91" yMin="961" xMax="570" yMax="1341">
      <component glyphName="quoteleft" x="0" y="0" flags="0x4"/>
      <component glyphName="quoteleft" x="287" y="0" flags="0x4"/>
    </TTGlyph>
    <TTGlyph name="quotedblright" xMin="63" yMin="961" xMax="542" yMax="1341">
      <component glyphName="quoteright" x="0" y="0" flags="0x4"/>
      <component glyphName="quoteright" x="287" y="0" flags="0x4"/>
    </TTGlyph>
    <TTGlyph name="quoteleft" xMin="91" yMin="961" xMax="283" yMax="1341">
      <contour>
        <pt x="91" y="961" on="1"/>
        <pt x="91" y="1133" on="1"/>
        <pt x="91" y="1211" on="0"/>
        <pt x="168" y="1312" on="0"/>
        <pt x="236" y="1341" on="1"/>
        <pt x="283" y="1255" on="1"/>
        <pt x="270" y="1249" on="0"/>
        <pt x="238" y="1232" on="0"/>
        <pt x="211" y="1206" on="0"/>
        <pt x="192" y="1170" on="0"/>
        <pt x="192" y="1146" on="1"/>
        <pt x="192" y="1143" on="0"/>
        <pt x="192" y="1136" on="0"/>
        <pt x="193" y="1133" on="1"/>
        <pt x="277" y="961" on="1"/>
      </contour>
    </TTGlyph>
    <TTGlyph name="quoteright" xMin="63" yMin="961" xMax="255" yMax="1341">
      <contour>
        <pt x="255" y="1341" on="1"/>
        <pt x="255" y="1169" on="1"/>
        <pt x="255" y="1091" on="0"/>
        <pt x="178" y="990" on="0"/>
        <pt x="110" y="961" on="1"/>
        <pt x="63" y="1047" on="1"/>
        <pt x="76" y="1053" on="0"/>
        <pt x="108" y="1070" on="0"/>
        <pt x="135" y="1096" on="0"/>
        <pt x="154" y="1132" on="0"/>
        <pt x="154" y="1156" on="1"/>
        <pt x="154" y="1159" on="0"/>
        <pt x="153" y="1165" on="0"/>
        <pt x="153" y="1169" on="1"/>
        <pt x="69" y="1341" on="1"/>
      </contour>
    </TTGlyph>
    <TTGlyph name="quotesinglbase" xMin="67" yMin="-209" xMax="259" yMax="172">
      <contour>
        <pt x="259" y="172" on="1"/>
        <pt x="259" y="0" on="1"/>
        <pt x="259" y="-78" on="0"/>
        <pt x="182" y="-180" on="0"/>
        <pt x="114" y="-209" on="1"/>
        <pt x="67" y="-123" on="1"/>
        <pt x="80" y="-117" on="0"/>
        <pt x="112" y="-99" on="0"/>
        <pt x="140" y="-73" on="0"/>
        <pt x="158" y="-37" on="0"/>
        <pt x="158" y="-13" on="1"/>
        <pt x="158" y="-10" on="0"/>
        <pt x="157" y="-3" on="0"/>
        <pt x="157" y="0" on="1"/>
        <pt x="73" y="172" on="1"/>
      </contour>
    </TTGlyph>
    <TTGlyph name="quotesingle" xMin="100" yMin="922" xMax="231" yMax="1262">
      <contour>
        <pt x="231" y="1262" on="1"/>
        <pt x="231" y="922" on="1"/>
        <pt x="100" y="922" on="1"/>
        <pt x="100" y="1262" on="1"/>
      </contour>
    </TTGlyph>
    <TTGlyph name="r" xMin="70" yMin="0" xMax="515" yMax="942">
      <contour>
        <pt x="130" y="682" on="1"/>
        <pt x="70" y="774" on="1"/>
        <pt x="161" y="849" on="0"/>
        <pt x="377" y="925" on="0"/>
        <pt x="492" y="942" on="1"/>
        <pt x="515" y="819" on="1"/>
        <pt x="415" y="804" on="0"/>
        <pt x="298" y="765" on="0"/>
        <pt x="261" y="745" on="1"/>
        <pt x="261" y="0" on="1"/>
        <pt x="130" y="0" on="1"/>
      </contour>
    </TTGlyph>
    <TTGlyph name="registered" xMin="135" yMin="-20" xMax="1110" yMax="1282">
      <contour>
        <pt x="1110" y="127" on="1"/>
        <pt x="1080" y="106" on="0"/>
        <pt x="986" y="54" on="0"/>
        <pt x="863" y="10" on="0"/>
        <pt x="711" y="-20" on="0"/>
        <pt x="622" y="-20" on="1"/>
        <pt x="533" y="-20" on="0"/>
        <pt x="382" y="10" on="0"/>
        <pt x="259" y="54" on="0"/>
        <pt x="165" y="106" on="0"/>
        <pt x="135" y="127" on="1"/>
        <pt x="135" y="1135" on="1"/>
        <pt x="165" y="1156" on="0"/>
        <pt x="259" y="1208" on="0"/>
        <pt x="382" y="1252" on="0"/>
        <pt x="533" y="1282" on="0"/>
        <pt x="622" y="1282" on="1"/>
        <pt x="711" y="1282" on="0"/>
        <pt x="863" y="1252" on="0"/>
        <pt x="986" y="1208" on="0"/>
        <pt x="1080" y="1156" on="0"/>
        <pt x="1110" y="1135" on="1"/>
      </contour>
      <contour>
        <pt x="1013" y="1083" on="1"/>
        <pt x="941" y="1134" on="0"/>
        <pt x="736" y="1190" on="0"/>
        <pt x="618" y="1190" on="1"/>
        <pt x="503" y="1190" on="0"/>
        <pt x="295" y="1133" on="0"/>
        <pt x="223" y="1083" on="1"/>
        <pt x="223" y="178" on="1"/>
        <pt x="259" y="153" on="0"/>
        <pt x="348" y="113" on="0"/>
        <pt x="450" y="86" on="0"/>
        <pt x="561" y="72" on="0"/>
        <pt x="618" y="72" on="1"/>
        <pt x="736" y="72" on="0"/>
        <pt x="941" y="127" on="0"/>
        <pt x="1013" y="178" on="1"/>
      </contour>
      <contour>
        <pt x="370" y="969" on="1"/>
        <pt x="424" y="990" on="0"/>
        <pt x="537" y="1018" on="0"/>
        <pt x="594" y="1018" on="1"/>
        <pt x="670" y="1018" on="0"/>
        <pt x="763" y="972" on="0"/>
        <pt x="814" y="902" on="0"/>
        <pt x="831" y="820" on="0"/>
        <pt x="831" y="784" on="1"/>
        <pt x="831" y="623" on="1"/>
        <pt x="710" y="623" on="1"/>
        <pt x="868" y="276" on="1"/>
        <pt x="772" y="233" on="1"/>
        <pt x="594" y="623" on="1"/>
        <pt x="512" y="623" on="1"/>
        <pt x="512" y="246" on="1"/>
        <pt x="405" y="246" on="1"/>
        <pt x="405" y="893" on="1"/>
      </contour>
      <contour>
        <pt x="512" y="723" on="1"/>
        <pt x="725" y="723" on="1"/>
        <pt x="725" y="762" on="1"/>
        <pt x="725" y="837" on="0"/>
        <pt x="657" y="918" on="0"/>
        <pt x="585" y="918" on="1"/>
        <pt x="541" y="918" on="0"/>
        <pt x="512" y="905" on="1"/>
      </contour>
    </TTGlyph>
    <TTGlyph name="ring" xMin="123" yMin="995" xMax="504" yMax="1362">
      <contour>
        <pt x="504" y="1180" on="1"/>
        <pt x="504" y="1089" on="0"/>
        <pt x="407" y="995" on="0"/>
        <pt x="313" y="995" on="1"/>
        <pt x="219" y="995" on="0"/>
        <pt x="123" y="1089" on="0"/>
        <pt x="123" y="1180" on="1"/>
        <pt x="123" y="1270" on="0"/>
        <pt x="219" y="1362" on="0"/>
        <pt x="313" y="1362" on="1"/>
        <pt x="407" y="1362" on="0"/>
        <pt x="504" y="1270" on="0"/>
      </contour>
      <contour>
        <pt x="238" y="1180" on="1"/>
        <pt x="238" y="1148" on="0"/>
        <pt x="273" y="1110" on="0"/>
        <pt x="313" y="1110" on="1"/>
        <pt x="355" y="1110" on="0"/>
        <pt x="389" y="1148" on="0"/>
        <pt x="389" y="1180" on="1"/>
        <pt x="389" y="1211" on="0"/>
        <pt x="355" y="1249" on="0"/>
        <pt x="313" y="1249" on="1"/>
        <pt x="273" y="1249" on="0"/>
        <pt x="238" y="1211" on="0"/>
      </contour>
    </TTGlyph>
    <TTGlyph name="s" xMin="92" yMin="-20" xMax="748" yMax="942">
      <contour>
        <pt x="623" y="754" on="1"/>
        <pt x="565" y="784" on="0"/>
        <pt x="456" y="815" on="0"/>
        <pt x="387" y="815" on="1"/>
        <pt x="353" y="815" on="0"/>
        <pt x="294" y="803" on="0"/>
        <pt x="250" y="774" on="0"/>
        <pt x="224" y="726" on="0"/>
        <pt x="224" y="690" on="1"/>
        <pt x="224" y="662" on="0"/>
        <pt x="243" y="620" on="0"/>
        <pt x="278" y="586" on="0"/>
        <pt x="324" y="558" on="0"/>
        <pt x="351" y="545" on="1"/>
        <pt x="486" y="479" on="1"/>
        <pt x="575" y="435" on="0"/>
        <pt x="678" y="324" on="0"/>
        <pt x="678" y="242" on="1"/>
        <pt x="678" y="195" on="1"/>
        <pt x="748" y="111" on="1"/>
        <pt x="703" y="70" on="0"/>
        <pt x="608" y="19" on="0"/>
        <pt x="512" y="-10" on="0"/>
        <pt x="418" y="-20" on="0"/>
        <pt x="373" y="-20" on="1"/>
        <pt x="282" y="-20" on="0"/>
        <pt x="143" y="9" on="0"/>
        <pt x="92" y="31" on="1"/>
        <pt x="92" y="162" on="1"/>
        <pt x="120" y="150" on="0"/>
        <pt x="179" y="128" on="0"/>
        <pt x="245" y="111" on="0"/>
        <pt x="322" y="102" on="0"/>
        <pt x="369" y="102" on="1"/>
        <pt x="426" y="102" on="0"/>
        <pt x="519" y="126" on="0"/>
        <pt x="547" y="147" on="1"/>
        <pt x="547" y="188" on="1"/>
        <pt x="547" y="219" on="0"/>
        <pt x="535" y="269" on="0"/>
        <pt x="506" y="311" on="0"/>
        <pt x="456" y="349" on="0"/>
        <pt x="418" y="369" on="1"/>
        <pt x="260" y="446" on="1"/>
        <pt x="226" y="462" on="0"/>
        <pt x="165" y="504" on="0"/>
        <pt x="119" y="562" on="0"/>
        <pt x="92" y="639" on="0"/>
        <pt x="92" y="690" on="1"/>
        <pt x="92" y="747" on="0"/>
        <pt x="132" y="840" on="0"/>
        <pt x="209" y="906" on="0"/>
        <pt x="318" y="942" on="0"/>
        <pt x="387" y="942" on="1"/>
        <pt x="475" y="942" on="0"/>
        <pt x="619" y="900" on="0"/>
        <pt x="676" y="868" on="1"/>
      </contour>
    </TTGlyph>
    <TTGlyph name="section" xMin="70" yMin="-74" xMax="762" yMax="1339">
      <contour>
        <pt x="488" y="336" on="1"/>
        <pt x="460" y="336" on="0"/>
        <pt x="393" y="341" on="0"/>
        <pt x="324" y="359" on="0"/>
        <pt x="257" y="395" on="0"/>
        <pt x="227" y="426" on="1"/>
        <pt x="192" y="463" on="0"/>
        <pt x="155" y="547" on="0"/>
        <pt x="140" y="630" on="0"/>
        <pt x="139" y="706" on="0"/>
        <pt x="139" y="735" on="1"/>
        <pt x="139" y="1110" on="1"/>
        <pt x="70" y="1194" on="1"/>
        <pt x="96" y="1216" on="0"/>
        <pt x="171" y="1266" on="0"/>
        <pt x="273" y="1310" on="0"/>
        <pt x="402" y="1339" on="0"/>
        <pt x="481" y="1339" on="1"/>
        <pt x="541" y="1339" on="0"/>
        <pt x="643" y="1320" on="0"/>
        <pt x="692" y="1300" on="1"/>
        <pt x="692" y="1171" on="1"/>
        <pt x="641" y="1196" on="0"/>
        <pt x="540" y="1217" on="0"/>
        <pt x="483" y="1217" on="1"/>
        <pt x="423" y="1217" on="0"/>
        <pt x="321" y="1191" on="0"/>
        <pt x="270" y="1163" on="1"/>
        <pt x="270" y="926" on="1"/>
        <pt x="287" y="928" on="0"/>
        <pt x="324" y="930" on="0"/>
        <pt x="344" y="930" on="1"/>
        <pt x="372" y="930" on="0"/>
        <pt x="437" y="925" on="0"/>
        <pt x="506" y="907" on="0"/>
        <pt x="574" y="871" on="0"/>
        <pt x="604" y="840" on="1"/>
        <pt x="640" y="803" on="0"/>
        <pt x="676" y="718" on="0"/>
        <pt x="691" y="634" on="0"/>
        <pt x="692" y="558" on="0"/>
        <pt x="692" y="530" on="1"/>
        <pt x="692" y="156" on="1"/>
        <pt x="762" y="72" on="1"/>
        <pt x="736" y="49" on="0"/>
        <pt x="660" y="-2" on="0"/>
        <pt x="558" y="-46" on="0"/>
        <pt x="429" y="-74" on="0"/>
        <pt x="350" y="-74" on="1"/>
        <pt x="292" y="-74" on="0"/>
        <pt x="190" y="-55" on="0"/>
        <pt x="139" y="-35" on="1"/>
        <pt x="139" y="94" on="1"/>
        <pt x="190" y="69" on="0"/>
        <pt x="291" y="49" on="0"/>
        <pt x="348" y="49" on="1"/>
        <pt x="408" y="49" on="0"/>
        <pt x="510" y="75" on="0"/>
        <pt x="561" y="102" on="1"/>
        <pt x="561" y="340" on="1"/>
        <pt x="543" y="337" on="0"/>
        <pt x="506" y="336" on="0"/>
      </contour>
      <contour>
        <pt x="316" y="528" on="1"/>
        <pt x="323" y="518" on="0"/>
        <pt x="350" y="494" on="0"/>
        <pt x="390" y="473" on="0"/>
        <pt x="446" y="459" on="0"/>
        <pt x="483" y="459" on="1"/>
        <pt x="519" y="459" on="0"/>
        <pt x="561" y="465" on="1"/>
        <pt x="561" y="530" on="1"/>
        <pt x="561" y="552" on="0"/>
        <pt x="560" y="607" on="0"/>
        <pt x="552" y="663" on="0"/>
        <pt x="533" y="716" on="0"/>
        <pt x="516" y="737" on="1"/>
        <pt x="508" y="747" on="0"/>
        <pt x="481" y="772" on="0"/>
        <pt x="441" y="793" on="0"/>
        <pt x="385" y="807" on="0"/>
        <pt x="348" y="807" on="1"/>
        <pt x="310" y="807" on="0"/>
        <pt x="270" y="801" on="1"/>
        <pt x="270" y="735" on="1"/>
        <pt x="270" y="712" on="0"/>
        <pt x="271" y="659" on="0"/>
        <pt x="280" y="603" on="0"/>
        <pt x="299" y="550" on="0"/>
      </contour>
    </TTGlyph>
    <TTGlyph name="semicolon" xMin="111" yMin="-209" xMax="316" yMax="922">
      <contour>
        <pt x="316" y="922" on="1"/>
        <pt x="316" y="750" on="1"/>
        <pt x="143" y="750" on="1"/>
        <pt x="143" y="922" on="1"/>
      </contour>
      <contour>
        <pt x="303" y="172" on="1"/>
        <pt x="303" y="0" on="1"/>
        <pt x="303" y="-78" on="0"/>
        <pt x="226" y="-180" on="0"/>
        <pt x="158" y="-209" on="1"/>
        <pt x="111" y="-123" on="1"/>
        <pt x="124" y="-117" on="0"/>
        <pt x="156" y="-99" on="0"/>
        <pt x="184" y="-73" on="0"/>
        <pt x="202" y="-37" on="0"/>
        <pt x="202" y="-13" on="1"/>
        <pt x="202" y="-10" on="0"/>
        <pt x="201" y="-4" on="0"/>
        <pt x="201" y="0" on="1"/>
        <pt x="117" y="172" on="1"/>
      </contour>
    </TTGlyph>
    <TTGlyph name="seven" xMin="59" yMin="-20" xMax="665" yMax="1262">
      <contour>
        <pt x="665" y="1262" on="1"/>
        <pt x="241" y="-20" on="1"/>
        <pt x="110" y="23" on="1"/>
        <pt x="477" y="1130" on="1"/>
        <pt x="59" y="1130" on="1"/>
        <pt x="59" y="1262" on="1"/>
      </contour>
    </TTGlyph>
    <TTGlyph name="six" xMin="61" yMin="0" xMax="769" yMax="1282">
      <contour>
        <pt x="675" y="1151" on="1"/>
        <pt x="593" y="1120" on="0"/>
        <pt x="449" y="1067" on="0"/>
        <pt x="342" y="993" on="0"/>
        <pt x="280" y="882" on="0"/>
        <pt x="280" y="793" on="1"/>
        <pt x="335" y="788" on="0"/>
        <pt x="451" y="767" on="0"/>
        <pt x="559" y="729" on="0"/>
        <pt x="655" y="669" on="0"/>
        <pt x="727" y="581" on="0"/>
        <pt x="769" y="461" on="0"/>
        <pt x="769" y="381" on="1"/>
        <pt x="769" y="292" on="0"/>
        <pt x="713" y="151" on="0"/>
        <pt x="613" y="53" on="0"/>
        <pt x="474" y="0" on="0"/>
        <pt x="392" y="0" on="1"/>
        <pt x="61" y="0" on="1"/>
        <pt x="136" y="131" on="1"/>
        <pt x="136" y="795" on="1"/>
        <pt x="136" y="901" on="0"/>
        <pt x="212" y="1055" on="0"/>
        <pt x="344" y="1168" on="0"/>
        <pt x="522" y="1249" on="0"/>
        <pt x="624" y="1282" on="1"/>
      </contour>
      <contour>
        <pt x="280" y="131" on="1"/>
        <pt x="362" y="131" on="1"/>
        <pt x="416" y="131" on="0"/>
        <pt x="512" y="158" on="0"/>
        <pt x="584" y="218" on="0"/>
        <pt x="626" y="313" on="0"/>
        <pt x="626" y="381" on="1"/>
        <pt x="626" y="454" on="0"/>
        <pt x="571" y="556" on="0"/>
        <pt x="476" y="622" on="0"/>
        <pt x="350" y="656" on="0"/>
        <pt x="280" y="662" on="1"/>
      </contour>
    </TTGlyph>
    <TTGlyph name="slash" xMin="44" yMin="-432" xMax="767" yMax="1282">
      <contour>
        <pt x="644" y="1282" on="1"/>
        <pt x="767" y="1239" on="1"/>
        <pt x="167" y="-432" on="1"/>
        <pt x="44" y="-389" on="1"/>
      </contour>
    </TTGlyph>
    <TTGlyph name="sterling" xMin="61" yMin="0" xMax="804" yMax="1282">
      <contour>
        <pt x="61" y="793" on="1"/>
        <pt x="167" y="793" on="1"/>
        <pt x="167" y="893" on="0"/>
        <pt x="202" y="1071" on="0"/>
        <pt x="291" y="1205" on="0"/>
        <pt x="442" y="1282" on="0"/>
        <pt x="558" y="1282" on="1"/>
        <pt x="632" y="1282" on="0"/>
        <pt x="747" y="1254" on="0"/>
        <pt x="804" y="1223" on="1"/>
        <pt x="753" y="1102" on="1"/>
        <pt x="699" y="1128" on="0"/>
        <pt x="604" y="1151" on="0"/>
        <pt x="562" y="1151" on="1"/>
        <pt x="481" y="1151" on="0"/>
        <pt x="382" y="1094" on="0"/>
        <pt x="328" y="996" on="0"/>
        <pt x="310" y="866" on="0"/>
        <pt x="310" y="793" on="1"/>
        <pt x="579" y="793" on="1"/>
        <pt x="579" y="662" on="1"/>
        <pt x="310" y="662" on="1"/>
        <pt x="310" y="131" on="1"/>
        <pt x="757" y="131" on="1"/>
        <pt x="800" y="0" on="1"/>
        <pt x="167" y="0" on="1"/>
        <pt x="167" y="662" on="1"/>
        <pt x="102" y="662" on="1"/>
      </contour>
    </TTGlyph>
    <TTGlyph name="t" xMin="66" yMin="-20" xMax="486" yMax="1167">
      <contour>
        <pt x="238" y="1167" on="1"/>
        <pt x="238" y="922" on="1"/>
        <pt x="432" y="922" on="1"/>
        <pt x="432" y="795" on="1"/>
        <pt x="238" y="795" on="1"/>
        <pt x="238" y="530" on="1"/>
        <pt x="238" y="484" on="1"/>
        <pt x="238" y="433" on="0"/>
        <pt x="252" y="318" on="0"/>
        <pt x="283" y="264" on="1"/>
        <pt x="297" y="240" on="0"/>
        <pt x="344" y="190" on="0"/>
        <pt x="399" y="141" on="0"/>
        <pt x="459" y="98" on="0"/>
        <pt x="486" y="82" on="1"/>
        <pt x="408" y="-20" on="1"/>
        <pt x="378" y="-4" on="0"/>
        <pt x="316" y="37" on="0"/>
        <pt x="259" y="85" on="0"/>
        <pt x="208" y="137" on="0"/>
        <pt x="189" y="164" on="1"/>
        <pt x="161" y="203" on="0"/>
        <pt x="129" y="281" on="0"/>
        <pt x="112" y="360" on="0"/>
        <pt x="107" y="438" on="0"/>
        <pt x="107" y="477" on="1"/>
        <pt x="107" y="1038" on="1"/>
        <pt x="66" y="1167" on="1"/>
      </contour>
    </TTGlyph>
    <TTGlyph name="thorn" xMin="82" yMin="-432" xMax="799" yMax="1341">
      <contour>
        <pt x="123" y="1212" on="1"/>
        <pt x="82" y="1341" on="1"/>
        <pt x="254" y="1341" on="1"/>
        <pt x="254" y="924" on="1"/>
        <pt x="327" y="942" on="0"/>
        <pt x="412" y="942" on="1"/>
        <pt x="518" y="942" on="0"/>
        <pt x="665" y="861" on="0"/>
        <pt x="757" y="727" on="0"/>
        <pt x="799" y="553" on="0"/>
        <pt x="799" y="461" on="1"/>
        <pt x="799" y="369" on="0"/>
        <pt x="752" y="195" on="0"/>
        <pt x="657" y="61" on="0"/>
        <pt x="515" y="-20" on="0"/>
        <pt x="420" y="-20" on="1"/>
        <pt x="372" y="-20" on="0"/>
        <pt x="297" y="-8" on="0"/>
        <pt x="254" y="4" on="1"/>
        <pt x="254" y="-432" on="1"/>
        <pt x="123" y="-432" on="1"/>
      </contour>
      <contour>
        <pt x="254" y="135" on="1"/>
        <pt x="276" y="126" on="0"/>
        <pt x="350" y="102" on="0"/>
        <pt x="401" y="102" on="1"/>
        <pt x="476" y="102" on="0"/>
        <pt x="577" y="168" on="0"/>
        <pt x="638" y="272" on="0"/>
        <pt x="663" y="399" on="0"/>
        <pt x="663" y="461" on="1"/>
        <pt x="663" y="522" on="0"/>
        <pt x="641" y="650" on="0"/>
        <pt x="582" y="753" on="0"/>
        <pt x="481" y="819" on="0"/>
        <pt x="403" y="819" on="1"/>
        <pt x="365" y="819" on="0"/>
        <pt x="285" y="802" on="0"/>
        <pt x="254" y="786" on="1"/>
      </contour>
    </TTGlyph>
    <TTGlyph name="three" xMin="81" yMin="-23" xMax="662" yMax="1262">
      <contour>
        <pt x="91" y="1130" on="1"/>
        <pt x="91" y="1262" on="1"/>
        <pt x="652" y="1262" on="1"/>
        <pt x="378" y="793" on="1"/>
        <pt x="444" y="793" on="0"/>
        <pt x="549" y="756" on="0"/>
        <pt x="623" y="685" on="0"/>
        <pt x="662" y="581" on="0"/>
        <pt x="662" y="514" on="1"/>
        <pt x="662" y="408" on="0"/>
        <pt x="578" y="241" on="0"/>
        <pt x="434" y="110" on="0"/>
        <pt x="242" y="13" on="0"/>
        <pt x="134" y="-23" on="1"/>
        <pt x="81" y="111" on="1"/>
        <pt x="177" y="141" on="0"/>
        <pt x="338" y="218" on="0"/>
        <pt x="454" y="316" on="0"/>
        <pt x="519" y="436" on="0"/>
        <pt x="519" y="510" on="1"/>
        <pt x="519" y="541" on="0"/>
        <pt x="501" y="597" on="0"/>
        <pt x="459" y="638" on="0"/>
        <pt x="390" y="662" on="0"/>
        <pt x="339" y="662" on="1"/>
        <pt x="144" y="662" on="1"/>
        <pt x="419" y="1130" on="1"/>
      </contour>
    </TTGlyph>
    <TTGlyph name="threequarters" xMin="84" yMin="-20" xMax="1258" yMax="1282">
      <component glyphName="fraction" x="230" y="0" flags="0x4"/>
      <component glyphName="threesuperior" x="-3" y="0" flags="0x4"/>
      <component glyphName="foursuperior" x="697" y="-687" flags="0x4"/>
    </TTGlyph>
    <TTGlyph name="threesuperior" xMin="87" yMin="668" xMax="398" yMax="1262">
      <contour>
        <pt x="87" y="1149" on="1"/>
        <pt x="87" y="1262" on="1"/>
        <pt x="394" y="1262" on="1"/>
        <pt x="288" y="1063" on="1"/>
        <pt x="312" y="1056" on="0"/>
        <pt x="352" y="1033" on="0"/>
        <pt x="381" y="998" on="0"/>
        <pt x="398" y="948" on="0"/>
        <pt x="398" y="915" on="1"/>
        <pt x="398" y="862" on="0"/>
        <pt x="354" y="784" on="0"/>
        <pt x="280" y="726" on="0"/>
        <pt x="186" y="684" on="0"/>
        <pt x="136" y="668" on="1"/>
        <pt x="95" y="770" on="1"/>
        <pt x="133" y="780" on="0"/>
        <pt x="201" y="807" on="0"/>
        <pt x="252" y="841" on="0"/>
        <pt x="281" y="883" on="0"/>
        <pt x="281" y="907" on="1"/>
        <pt x="281" y="929" on="0"/>
        <pt x="254" y="961" on="0"/>
        <pt x="214" y="961" on="1"/>
        <pt x="120" y="961" on="1"/>
        <pt x="218" y="1149" on="1"/>
      </contour>
    </TTGlyph>
    <TTGlyph name="tilde" xMin="82" yMin="1055" xMax="680" yMax="1337">
      <contour>
        <pt x="82" y="1139" on="1"/>
        <pt x="136" y="1211" on="0"/>
        <pt x="264" y="1308" on="0"/>
        <pt x="336" y="1333" on="1"/>
        <pt x="463" y="1208" on="1"/>
        <pt x="487" y="1218" on="0"/>
        <pt x="525" y="1249" on="0"/>
        <pt x="557" y="1285" on="0"/>
        <pt x="581" y="1322" on="0"/>
        <pt x="590" y="1337" on="1"/>
        <pt x="680" y="1253" on="1"/>
        <pt x="629" y="1188" on="0"/>
        <pt x="506" y="1085" on="0"/>
        <pt x="426" y="1059" on="1"/>
        <pt x="299" y="1184" on="1"/>
        <pt x="275" y="1173" on="0"/>
        <pt x="237" y="1143" on="0"/>
        <pt x="205" y="1108" on="0"/>
        <pt x="181" y="1071" on="0"/>
        <pt x="172" y="1055" on="1"/>
      </contour>
    </TTGlyph>
    <TTGlyph name="two" xMin="34" yMin="0" xMax="673" yMax="1282">
      <contour>
        <pt x="327" y="1151" on="1"/>
        <pt x="287" y="1151" on="0"/>
        <pt x="192" y="1128" on="0"/>
        <pt x="141" y="1102" on="1"/>
        <pt x="90" y="1223" on="1"/>
        <pt x="147" y="1254" on="0"/>
        <pt x="262" y="1282" on="0"/>
        <pt x="336" y="1282" on="1"/>
        <pt x="412" y="1282" on="0"/>
        <pt x="534" y="1237" on="0"/>
        <pt x="620" y="1155" on="0"/>
        <pt x="665" y="1036" on="0"/>
        <pt x="665" y="963" on="1"/>
        <pt x="665" y="925" on="0"/>
        <pt x="649" y="854" on="0"/>
        <pt x="623" y="785" on="0"/>
        <pt x="589" y="718" on="0"/>
        <pt x="571" y="684" on="1"/>
        <pt x="262" y="131" on="1"/>
        <pt x="673" y="131" on="1"/>
        <pt x="673" y="0" on="1"/>
        <pt x="34" y="0" on="1"/>
        <pt x="462" y="770" on="1"/>
        <pt x="493" y="826" on="0"/>
        <pt x="522" y="916" on="0"/>
        <pt x="522" y="967" on="1"/>
        <pt x="522" y="1007" on="0"/>
        <pt x="497" y="1074" on="0"/>
        <pt x="447" y="1123" on="0"/>
        <pt x="375" y="1151" on="0"/>
      </contour>
    </TTGlyph>
    <TTGlyph name="twosuperior" xMin="75" yMin="688" xMax="411" yMax="1282">
      <contour>
        <pt x="208" y="1169" on="1"/>
        <pt x="188" y="1169" on="0"/>
        <pt x="149" y="1160" on="0"/>
        <pt x="124" y="1149" on="1"/>
        <pt x="87" y="1245" on="1"/>
        <pt x="119" y="1264" on="0"/>
        <pt x="193" y="1282" on="0"/>
        <pt x="228" y="1282" on="1"/>
        <pt x="312" y="1282" on="0"/>
        <pt x="400" y="1196" on="0"/>
        <pt x="400" y="1120" on="1"/>
        <pt x="400" y="1078" on="0"/>
        <pt x="371" y="1006" on="0"/>
        <pt x="351" y="969" on="1"/>
        <pt x="261" y="801" on="1"/>
        <pt x="411" y="801" on="1"/>
        <pt x="411" y="688" on="1"/>
        <pt x="75" y="688" on="1"/>
        <pt x="257" y="1038" on="1"/>
        <pt x="266" y="1057" on="0"/>
        <pt x="280" y="1089" on="0"/>
        <pt x="280" y="1108" on="1"/>
        <pt x="280" y="1136" on="0"/>
        <pt x="243" y="1169" on="0"/>
      </contour>
    </TTGlyph>
    <TTGlyph name="u" xMin="115" yMin="-20" xMax="824" yMax="922">
      <contour>
        <pt x="824" y="74" on="1"/>
        <pt x="797" y="58" on="0"/>
        <pt x="726" y="24" on="0"/>
        <pt x="637" y="-3" on="0"/>
        <pt x="531" y="-20" on="0"/>
        <pt x="470" y="-20" on="1"/>
        <pt x="431" y="-20" on="0"/>
        <pt x="341" y="-9" on="0"/>
        <pt x="253" y="25" on="0"/>
        <pt x="177" y="88" on="0"/>
        <pt x="152" y="141" on="1"/>
        <pt x="141" y="164" on="0"/>
        <pt x="127" y="222" on="0"/>
        <pt x="118" y="307" on="0"/>
        <pt x="115" y="424" on="0"/>
        <pt x="115" y="506" on="1"/>
        <pt x="115" y="922" on="1"/>
        <pt x="246" y="922" on="1"/>
        <pt x="246" y="502" on="1"/>
        <pt x="246" y="434" on="0"/>
        <pt x="249" y="332" on="0"/>
        <pt x="257" y="257" on="0"/>
        <pt x="272" y="205" on="0"/>
        <pt x="285" y="186" on="1"/>
        <pt x="294" y="172" on="0"/>
        <pt x="325" y="142" on="0"/>
        <pt x="371" y="118" on="0"/>
        <pt x="436" y="102" on="0"/>
        <pt x="480" y="102" on="1"/>
        <pt x="529" y="102" on="0"/>
        <pt x="610" y="119" on="0"/>
        <pt x="644" y="133" on="1"/>
        <pt x="644" y="922" on="1"/>
        <pt x="775" y="922" on="1"/>
        <pt x="775" y="174" on="1"/>
      </contour>
    </TTGlyph>
    <TTGlyph name="uacute" xMin="115" yMin="-20" xMax="824" yMax="1341">
      <component glyphName="u" x="0" y="0" flags="0x204"/>
      <component glyphName="acute" x="221" y="0" flags="0x4"/>
    </TTGlyph>
    <TTGlyph name="ucircumflex" xMin="115" yMin="-20" xMax="824" yMax="1341">
      <component glyphName="u" x="0" y="0" flags="0x204"/>
      <component glyphName="circumflex" x="77" y="0" flags="0x4"/>
    </TTGlyph>
    <TTGlyph name="udieresis" xMin="115" yMin="-20" xMax="824" yMax="1262">
      <component glyphName="u" x="0" y="0" flags="0x204"/>
      <component glyphName="dieresis" x="147" y="0" flags="0x4"/>
    </TTGlyph>
    <TTGlyph name="ugrave" xMin="115" yMin="-20" xMax="824" yMax="1341">
      <component glyphName="u" x="0" y="0" flags="0x204"/>
      <component glyphName="grave" x="199" y="0" flags="0x4"/>
    </TTGlyph>
    <TTGlyph name="underscore" xMin="155" yMin="-301" xMax="815" yMax="-168">
      <contour>
        <pt x="155" y="-168" on="1"/>
        <pt x="815" y="-168" on="1"/>
        <pt x="815" y="-301" on="1"/>
        <pt x="155" y="-301" on="1"/>
      </contour>
    </TTGlyph>
    <TTGlyph name="uni00AD" xMin="113" yMin="434" xMax="691" yMax="578">
      <contour>
        <pt x="113" y="578" on="1"/>
        <pt x="691" y="578" on="1"/>
        <pt x="691" y="434" on="1"/>
        <pt x="113" y="434" on="1"/>
      </contour>
    </TTGlyph>
    <TTGlyph name="v" xMin="45" yMin="-20" xMax="823" yMax="942">
      <contour>
        <pt x="174" y="942" on="1"/>
        <pt x="327" y="287" on="1"/>
        <pt x="336" y="251" on="0"/>
        <pt x="359" y="184" on="0"/>
        <pt x="393" y="133" on="0"/>
        <pt x="443" y="102" on="0"/>
        <pt x="481" y="102" on="1"/>
        <pt x="486" y="102" on="0"/>
        <pt x="494" y="102" on="0"/>
        <pt x="499" y="104" on="1"/>
        <pt x="694" y="942" on="1"/>
        <pt x="823" y="915" on="1"/>
        <pt x="639" y="129" on="1"/>
        <pt x="686" y="35" on="1"/>
        <pt x="654" y="13" on="0"/>
        <pt x="550" y="-20" on="0"/>
        <pt x="481" y="-20" on="1"/>
        <pt x="365" y="-20" on="0"/>
        <pt x="233" y="115" on="0"/>
        <pt x="200" y="256" on="1"/>
        <pt x="45" y="915" on="1"/>
      </contour>
    </TTGlyph>
    <TTGlyph name="w" xMin="61" yMin="-20" xMax="1069" yMax="942">
      <contour>
        <pt x="192" y="942" on="1"/>
        <pt x="290" y="297" on="1"/>
        <pt x="298" y="244" on="0"/>
        <pt x="334" y="172" on="0"/>
        <pt x="387" y="127" on="0"/>
        <pt x="455" y="105" on="0"/>
        <pt x="495" y="102" on="1"/>
        <pt x="495" y="748" on="1"/>
        <pt x="626" y="748" on="1"/>
        <pt x="626" y="102" on="1"/>
        <pt x="640" y="102" on="1"/>
        <pt x="664" y="102" on="0"/>
        <pt x="718" y="108" on="0"/>
        <pt x="767" y="116" on="0"/>
        <pt x="805" y="126" on="0"/>
        <pt x="813" y="131" on="1"/>
        <pt x="938" y="942" on="1"/>
        <pt x="1069" y="926" on="1"/>
        <pt x="948" y="152" on="1"/>
        <pt x="987" y="55" on="1"/>
        <pt x="963" y="42" on="0"/>
        <pt x="880" y="15" on="0"/>
        <pt x="774" y="-6" on="0"/>
        <pt x="652" y="-20" on="0"/>
        <pt x="589" y="-20" on="1"/>
        <pt x="514" y="-20" on="0"/>
        <pt x="374" y="-1" on="0"/>
        <pt x="258" y="62" on="0"/>
        <pt x="177" y="178" on="0"/>
        <pt x="161" y="276" on="1"/>
        <pt x="61" y="926" on="1"/>
      </contour>
    </TTGlyph>
</ttFont>
